SplineFontDB: 3.0
FontName: Cantarell-Regular
FullName: Cantarell Regular
FamilyName: Cantarell
Weight: Regular
Copyright: Copyright (c) 2009-2011 Dave Crossland <dave@lab6.com>
UComments: "Cantarell is designed by Dave Crossland+AA0ACgAA-dave@lab6.com+AA0ACgAA-http://abattis.org/cantarell/" 
Version: 001.001
ItalicAngle: 0
UnderlinePosition: -233
UnderlineWidth: 116
Ascent: 1514
Descent: 534
LayerCount: 4
Layer: 0 0 "Back"  1
Layer: 1 1 "Fore"  0
Layer: 2 0 "Temp"  1
Layer: 3 0 "Spiro"  1
NeedsXUIDChange: 1
XUID: [1021 472 1916768597 5236576]
FSType: 0
OS2Version: 0
OS2_WeightWidthSlopeOnly: 0
OS2_UseTypoMetrics: 1
CreationTime: 1236980653
ModificationTime: 1295305427
PfmFamily: 33
TTFWeight: 500
TTFWidth: 5
LineGap: 211
VLineGap: 0
OS2TypoAscent: 0
OS2TypoAOffset: 1
OS2TypoDescent: 0
OS2TypoDOffset: 1
OS2TypoLinegap: 211
OS2WinAscent: 0
OS2WinAOffset: 1
OS2WinDescent: 0
OS2WinDOffset: 1
HheadAscent: 0
HheadAOffset: 1
HheadDescent: 0
HheadDOffset: 1
OS2FamilyClass: 2050
OS2Vendor: 'ABAT'
MarkAttachClasses: 1
DEI: 91125

StartChar: a
Encoding: 97 97 0
Width: 1069
VWidth: 2097
Flags: MWO
LayerCount: 4
Back
SplineSet
753.004 561 m 1
 752.004 438 l 1
 671.313 436.159 590.437 437.709 510.004 431 c 0
 476.471 428.203 442.905 423.409 410.891 413.049 c 0
 378.876 402.688 348.225 386.354 325.004 362 c 0
 298.95 334.674 283.207 296.564 287.004 259 c 0
 289.227 237.016 297.934 215.927 310.596 197.818 c 0
 323.258 179.71 339.782 164.498 358.004 152 c 0
 401.626 122.081 455.194 107.671 508.074 108.999 c 0
 560.954 110.327 613.114 127.02 658.004 155 c 0
 735.215 203.127 790.341 284.749 808.004 374 c 1
 871.004 347 l 1
 857.021 252.163 810.701 162.337 741.324 96.1826 c 0
 671.946 30.0283 579.626 -12.2119 484.004 -19 c 0
 406.116 -24.5293 326.256 -6.32422 260.004 35 c 0
 222.11 58.6367 188.667 89.8145 164.277 127.229 c 0
 139.889 164.643 124.756 208.373 123.004 253 c 0
 120.088 327.275 155.297 400.786 211.004 450 c 0
 259.88 493.179 322.406 518.335 385.965 532.948 c 0
 449.523 547.562 514.872 552.672 580.004 556 c 0
 637.623 558.944 695.313 560.331 753.004 561 c 1
  Spiro
    753.004 561 v
    752.004 438 v
    510.004 431 o
    325.004 362 c
    287.004 259 c
    358.004 152 c
    658.004 155 o
    808.004 374 v
    871.004 347 v
    484.004 -19 o
    260.004 35 c
    123.004 253 c
    211.004 450 c
    580.004 556 o
    0 0 z
  EndSpiro
186.004 946 m 1
 223.235 959.998 261.331 971.699 300.004 981 c 0
 366.932 997.095 435.634 1006.26 504.469 1006.51 c 0
 573.304 1006.76 642.987 998.301 707.004 973 c 0
 766.522 949.477 820.519 908.718 852.004 853 c 0
 868.649 823.543 878.897 790.716 883.997 757.268 c 0
 889.096 723.82 889.159 689.834 889.004 656 c 2
 886.004 0 l 1
 773.004 0 l 1
 724.004 115 l 1
 724.004 613 l 2
 724.004 653.241 725.747 694.219 715.004 733 c 0
 709.278 753.67 699.766 773.326 686.708 790.342 c 0
 673.65 807.357 657.224 821.683 639.004 833 c 0
 593.697 861.144 539.011 870.774 485.677 871.25 c 0
 432.343 871.725 379.259 863.688 327.004 853 c 0
 290.006 845.433 253.324 836.34 217.004 826 c 1
 186.004 946 l 1
  Spiro
    186.004 946 v
    300.004 981 o
    707.004 973 o
    852.004 853 o
    889.004 656 [
    886.004 0 v
    773.004 0 v
    724.004 115 v
    724.004 613 ]
    715.004 733 o
    639.004 833 o
    327.004 853 o
    217.004 826 v
    0 0 z
  EndSpiro
EndSplineSet
Fore
SplineSet
170 940 m 1,0,1
 330 1000 330 1000 502 1001 c 128,-1,2
 674 1002 674 1002 757.5 946.5 c 128,-1,3
 841 891 841 891 867.5 821 c 128,-1,4
 894 751 894 751 894 642 c 2,5,-1
 894 0 l 1,6,-1
 770 0 l 1,7,-1
 733 92 l 1,8,9
 582 -34 582 -34 398 -22 c 0,10,11
 287 -15 287 -15 211 47 c 0,12,13
 112 127 112 127 112.5 246.5 c 128,-1,14
 113 366 113 366 182 439 c 0,15,16
 252 512 252 512 354 539 c 0,17,18
 500 577 500 577 727 582 c 1,19,-1
 727 589 l 2,20,21
 727 695 727 695 709 743 c 0,22,23
 643 917 643 917 266 832 c 0,24,25
 217 821 217 821 170 806 c 1,26,-1
 170 940 l 1,0,1
728 224 m 1,27,-1
 727 459 l 1,28,29
 525 454 525 454 465 441 c 0,30,31
 350 416 350 416 302 337.5 c 128,-1,32
 254 259 254 259 309 181 c 0,33,34
 334 145 334 145 387 121.5 c 128,-1,35
 440 98 440 98 520 114 c 0,36,37
 639 137 639 137 728 224 c 1,27,-1
EndSplineSet
Layer: 2
SplineSet
728 228.1 m 5
 706.899 204.867 682.896 184.247 656.716 166.938 c 4
 629.841 149.17 600.626 134.89 569.951 125.044 c 4
 537.584 114.656 503.583 109.22 469.592 109.597 c 4
 438.675 109.941 407.635 114.889 378.794 126.031 c 4
 351.924 136.411 326.952 152.952 309.755 176.06 c 4
 291.87 200.091 283.105 230.226 282.5 260.176 c 4
 282.057 282.127 285.774 304.21 293.911 324.602 c 4
 301.127 342.685 311.911 359.324 325.422 373.342 c 4
 339.008 387.436 355.209 398.853 372.473 408.082 c 4
 409.581 427.919 450.962 438.61 492.496 445.351 c 4
 535.551 452.338 579.215 454.728 622.803 456.332 c 4
 669.853 458.063 716.929 458.978 764 460 c 5
 764 582.958 l 5
 704.208 582.826 644.405 581.115 584.751 577.052 c 4
 532.531 573.495 480.356 568.083 428.981 558.07 c 4
 379.566 548.439 330.731 534.607 285.155 513.22 c 4
 253.007 498.134 222.516 479.082 196.527 454.881 c 4
 170.976 431.087 150.077 402.211 136.217 370.166 c 4
 120.799 334.521 113.965 295.448 114.083 256.612 c 4
 114.251 201.667 128.356 146.002 159.372 100.647 c 4
 188.094 58.6467 230.749 27.2724 277.645 7.53255 c 4
 329.075 -14.116 385.28 -23.5227 441.08 -23.1618 c 4
 479.305 -22.9146 517.548 -17.7599 554.263 -7.12178 c 4
 588.959 2.93097 622.191 17.8593 653.097 36.5573 c 4
 683.054 54.6807 710.893 76.285 736.001 100.687 c 5
 728 228.1 l 5
769.859 0 m 5
 894.599 0 l 5
 894.599 656.671 l 6
 894.599 895.459 764.514 1001.49 501.669 1001.49 c 4
 395.639 1001.49 278.919 980.996 169.325 940.9 c 5
 169.325 805.468 l 5
 300.302 847.346 403.658 858.928 482.957 858.928 c 4
 647.792 858.928 727.092 794.776 727.092 627.269 c 6
 727.092 105.143 l 5
 769.859 0 l 5
EndSplineSet
Layer: 3
SplineSet
764.5 582.5 m 1
 764 460 l 1
 698.643 458.778 633.242 458.069 568 454 c 0
 532.484 451.785 496.939 448.326 462.187 440.667 c 0
 427.436 433.009 393.315 420.926 363.5 401.5 c 0
 340.249 386.35 319.756 366.637 305.243 342.983 c 0
 290.73 319.329 282.435 291.751 282.5 264 c 0
 282.569 234.571 292.132 205.308 309.101 181.263 c 0
 326.07 157.219 350.131 138.506 377 126.5 c 0
 421.98 106.401 473.599 104.803 522 114 c 0
 575.781 124.219 626.879 147.003 672 178 c 0
 696.6 194.9 719.429 214.376 740 236 c 1
 744 102 l 1
 705.848 67.3591 662.113 38.8794 615 18 c 0
 547.111 -12.0869 472.101 -26.8223 398 -22 c 0
 330.619 -17.615 263.298 4.28744 211 47 c 0
 148.775 97.8199 111.585 177.661 112 258 c 0
 112.354 326.484 139.782 394.396 187 444 c 0
 235.022 494.449 300.754 524.857 368 543 c 0
 496.537 577.679 631.372 581.369 764.5 582.5 c 1
  Spiro
    764.5 582.5 v
    764 460 v
    698.701 458.807 o
    633.222 457.09 o
    568 454 o
    532.54 451.264 o
    497.138 447.03 o
    462.187 440.667 o
    427.816 431.437 o
    394.582 418.572 o
    363.5 401.5 o
    341.309 384.87 o
    321.612 365.279 o
    305.243 342.983 o
    292.892 318.186 o
    285.137 291.527 o
    282.5 264 o
    285.65 234.842 o
    294.69 206.833 o
    309.101 181.263 o
    328.254 159.067 o
    351.25 140.674 o
    377 126.5 o
    423.78 112.291 o
    472.941 108.688 o
    522 114 o
    574.713 128.228 o
    625.057 149.927 o
    672 178 o
    695.968 195.724 o
    718.716 215.128 o
    740 236 v
    744 102 v
    704.11 69.4965 o
    660.861 41.3337 o
    615 18 o
    545.106 -6.79456 o
    472.033 -20.4666 o
    398 -22 o
    331.259 -11.6703 o
    267.691 11.1314 o
    211 47 o
    157.63 106.37 o
    123.631 178.96 o
    112 258 o
    121.091 325.57 o
    146.682 389.01 o
    187 444 o
    240.267 488.019 o
    301.923 520.508 o
    368 543 o
    498.208 568.385 o
    631.233 579.469 o
    0 0 z
  EndSpiro
170 940 m 1
 198.817 950.864 228.208 960.201 258 968 c 0
 340.152 989.506 425.083 1000.18 510 1001 c 0
 554.856 1001.43 599.912 998.777 643.849 989.73 c 0
 687.785 980.683 730.659 964.857 768 940 c 0
 815.117 908.635 852.12 862.342 872.014 809.351 c 0
 891.909 756.361 894 698.602 894 642 c 2
 894 0 l 1
 770 0 l 1
 728 104 l 1
 727 589 l 2
 726.949 613.954 727.168 638.936 725.474 663.833 c 0
 723.781 688.729 719.848 713.668 711 737 c 0
 698.045 771.162 673.862 800.884 643.11 820.611 c 0
 612.358 840.339 576.252 850.453 540 855 c 0
 448.667 866.456 355.824 852.111 266 832 c 0
 233.637 824.754 201.593 816.086 170 806 c 1
 170 940 l 1
  Spiro
    170 940 v
    198.973 950.345 o
    228.378 959.698 o
    258 968 o
    340.891 985.917 o
    425.266 996.867 o
    510 1001 o
    554.829 1000.28 o
    599.632 996.763 o
    643.849 989.73 o
    687.223 978.354 o
    729.021 961.911 o
    768 940 o
    811.447 904.004 o
    846.707 859.757 o
    872.014 809.351 o
    886.547 755.046 o
    892.724 698.711 o
    894 642 [
    894 0 v
    770 0 v
    728 104 v
    727 589 ]
    726.958 613.934 o
    726.611 638.937 o
    725.474 663.833 o
    722.939 688.657 o
    718.303 713.218 o
    711 737 o
    694.495 769.446 o
    671.474 797.784 o
    643.11 820.611 o
    610.8 837.27 o
    575.975 848.456 o
    540 855 o
    448.423 858.601 o
    356.571 849.433 o
    266 832 o
    233.78 824.288 o
    201.707 815.604 o
    170 806 v
    0 0 z
  EndSpiro
EndSplineSet
EndChar

StartChar: d
Encoding: 100 100 1
Width: 1188
VWidth: 2097
Flags: MW
LayerCount: 4
Back
SplineSet
834 1511 m 5
 998 1511 l 5
 998 0 l 5
 884 0 l 5
 834 115 l 5
 834 1511 l 5
  Spiro
    834 1511 v
    998 1511 v
    998 0 v
    884 0 v
    834 115 v
    0 0 z
  EndSpiro
651 1005 m 4
 707.314 999.086 762.646 984.57 815 963 c 4
 845.077 950.608 874.189 935.876 902 919 c 5
 848 825 l 5
 816.448 839.786 783.633 851.89 750 861 c 4
 686.309 878.252 619.057 885.033 554 874 c 4
 511.268 866.753 469.721 851.533 433.405 827.874 c 4
 397.089 804.216 366.366 772.126 344 735 c 4
 302.523 666.151 290.01 583.377 290 503 c 4
 289.99 425.965 301.117 347.167 337 279 c 4
 364.984 225.839 408.868 181.04 462 153 c 4
 520.376 122.193 588.224 111.496 654 117 c 4
 754.12 125.377 850.251 168.997 926 235 c 5
 964 142 l 5
 864.127 48.8496 732.35 -11.2383 596 -19 c 4
 523.724 -23.1143 450.161 -11.9961 383.866 17.0869 c 4
 317.572 46.1699 259.445 93.6445 218 153 c 4
 152.163 247.289 129.403 366.002 130 481 c 4
 130.343 547.067 138.148 613.318 156.319 676.838 c 4
 174.49 740.358 203.881 801.099 246 852 c 4
 290.583 905.88 349.119 947.902 414 974 c 4
 488.653 1004.03 570.974 1013.4 651 1005 c 4
  Spiro
    651 1005 o
    815 963 o
    902 919 v
    848 825 v
    750 861 o
    554 874 o
    344 735 o
    290 503 o
    337 279 o
    462 153 o
    654 117 o
    926 235 v
    964 142 v
    596 -19 o
    218 153 o
    130 481 o
    246 852 o
    414 974 o
    0 0 z
  EndSpiro
EndSplineSet
Fore
SplineSet
832 834 m 1,0,1
 726 880 726 880 610 880 c 0,2,3
 458 880 458 880 373 776.5 c 128,-1,4
 288 673 288 673 288 498 c 128,-1,5
 288 323 288 323 370.5 221.5 c 128,-1,6
 453 120 453 120 608 120 c 0,7,8
 679 120 679 120 728 136.5 c 128,-1,9
 777 153 777 153 832 183 c 1,10,-1
 832 834 l 1,0,1
832 964 m 1,11,-1
 832 1374 l 1,12,-1
 1001 1374 l 1,13,-1
 1001 1 l 1,14,-1
 880 1 l 1,15,-1
 851 69 l 1,16,17
 720 -18 720 -18 572 -18.5 c 128,-1,18
 424 -19 424 -19 321 46 c 0,19,20
 114 176 114 176 114 484 c 0,21,22
 114 738 114 738 256 880 c 1,23,24
 392 1013 392 1013 594 1012 c 0,25,26
 715 1013 715 1013 832 964 c 1,11,-1
EndSplineSet
Layer: 3
SplineSet
831.6 111.899 m 1
 880.2 1.2002 l 1
 1000.8 1.2002 l 1
 1000.8 1373.7 l 1
 831.6 1373.7 l 1
 831.6 111.899 l 1
844.2 958.8 m 1
 762.3 994.8 685.8 1012.8 594 1012.8 c 0
 331.2 1012.8 114.3 831.899 114.3 484.5 c 0
 114.3 190.2 279 -18.6006 563.399 -18.6006 c 0
 686.7 -18.6006 783.899 21 864.899 78.5996 c 1
 864.899 78.5996 845.1 189.3 844.2 190.2 c 1
 774.899 150.6 712.8 120 608.399 120 c 0
 396.899 120 288 270.3 288 498 c 0
 288 728.399 405 880.5 610.2 880.5 c 0
 712.8 880.5 771.3 861.6 844.2 828.3 c 1
 844.2 958.8 l 1
EndSplineSet
EndChar

StartChar: e
Encoding: 101 101 2
Width: 1102
VWidth: 2097
Flags: MW
LayerCount: 4
Back
SplineSet
591 864 m 4
 536.131 867.896 479.497 856.391 433 827 c 4
 394.036 802.371 363.47 765.79 342 725 c 4
 312.326 668.624 297.954 604.702 297 541 c 5
 813 541 l 5
 814.153 582.835 811.722 624.868 804 666 c 4
 795.98 708.721 781.161 751.062 754 785 c 4
 734.578 809.267 709.219 828.614 681.01 841.667 c 4
 652.802 854.721 622.004 861.798 591 864 c 4
  Spiro
    591 864 o
    433 827 o
    342 725 o
    297 541 v
    813 541 v
    804 666 o
    754 785 o
    0 0 z
  EndSpiro
598 1007 m 4
 646.994 1007.75 696.343 1001.18 742.553 984.884 c 4
 788.764 968.589 831.527 942.078 865.463 906.732 c 4
 918.375 851.621 947.34 777.176 960.409 701.903 c 4
 971.158 639.992 972 576.838 972 514 c 6
 972 417 l 5
 293 417 l 5
 297.726 352.161 323.332 289.084 364.773 238.994 c 4
 402.126 193.846 451.91 159.464 506.602 138.43 c 4
 555.659 119.563 608.441 111.309 661 111 c 4
 686.662 110.849 712.318 112.506 737.812 115.436 c 4
 763.448 118.382 788.933 122.604 814.187 127.905 c 4
 839.383 133.193 864.35 139.572 889 147 c 5
 918 35 l 5
 884.076 23.3249 849.561 13.3621 814.623 5.20964 c 4
 779.69 -2.94165 744.326 -9.27117 708.708 -13.5313 c 4
 673.305 -17.7658 637.655 -19.9836 602 -20 c 4
 517.365 -20.0389 431.138 -7.71664 355.395 30.0471 c 4
 285.425 64.9324 227.143 122.244 190.032 191.059 c 4
 147.098 270.673 130.981 362.553 130 453 c 4
 128.742 568.997 150.663 687.596 209.632 787.494 c 4
 252.892 860.78 317.337 921.596 393.764 959.029 c 4
 457.069 990.035 527.518 1005.92 598 1007 c 4
  Spiro
    598 1007 o
    865.463 906.732 o
    960.409 701.903 o
    972 514 [
    972 417 v
    293 417 v
    364.773 238.994 o
    506.602 138.43 o
    661 111 o
    737.812 115.436 o
    814.187 127.905 o
    889 147 v
    918 35 v
    814.623 5.20964 o
    708.708 -13.5313 o
    602 -20 o
    355.395 30.0471 o
    190.032 191.059 o
    130 453 o
    209.632 787.494 o
    393.764 959.029 o
    0 0 z
  EndSpiro
EndSplineSet
Fore
SplineSet
969 446 m 1,0,-1
 297 446 l 1,1,2
 307 304 307 304 393 213 c 128,-1,3
 479 122 479 122 667 122 c 0,4,5
 797 122 797 122 940 168 c 1,6,-1
 940 34 l 1,7,8
 788 -19 788 -19 623 -19 c 0,9,10
 377 -19 377 -19 251 111 c 128,-1,11
 125 241 125 241 125 477 c 0,12,13
 125 697 125 697 239 850 c 1,14,15
 358 1004 358 1004 573 1004 c 0,16,17
 875 1004 875 1004 955 733 c 0,18,19
 979 652 979 652 979 553 c 2,20,-1
 979 463 l 1,21,-1
 969 446 l 1,0,-1
301 575 m 1,22,-1
 811 575 l 1,23,24
 811 711 811 711 751.5 790.5 c 128,-1,25
 692 870 692 870 587 870 c 128,-1,26
 482 870 482 870 418.5 817 c 128,-1,27
 355 764 355 764 331.5 697 c 128,-1,28
 308 630 308 630 301 575 c 1,22,-1
EndSplineSet
Layer: 3
SplineSet
969.468 445.654 m 1
 978.288 463.294 l 1
 978.288 553.258 l 2
 978.288 811.685 858.337 1003.96 573.45 1003.96 c 0
 280.627 1003.96 124.513 768.467 124.513 477.406 c 0
 124.513 167.824 289.446 -19.1592 622.843 -19.1592 c 0
 735.738 -19.1592 838.933 -1.51953 940.363 33.7607 c 1
 940.363 167.824 l 1
 860.101 142.246 769.254 121.96 666.942 121.96 c 0
 408.517 121.96 295.62 267.49 295.62 486.227 c 0
 295.62 695.261 387.348 869.896 570.805 869.896 c 0
 739.267 869.896 810.708 747.298 810.708 575.308 c 1
 280.627 575.308 l 1
 280.627 445.654 l 1
 969.468 445.654 l 1
EndSplineSet
EndChar

StartChar: h
Encoding: 104 104 3
Width: 1191
VWidth: 2097
Flags: MW
LayerCount: 4
Back
SplineSet
228 835 m 5
 334.224 910.335 453.282 970.562 581 996 c 4
 657.686 1011.27 739.117 1011.72 812.166 983.834 c 4
 885.216 955.944 945.942 897.76 977 826 c 4
 997.075 779.617 1005.67 729.002 1009.05 678.574 c 4
 1012.42 628.146 1011.38 577.539 1011 527 c 6
 1007 0 l 5
 843 0 l 5
 842 595 l 6
 841.951 623.966 841.703 653.069 836.991 681.649 c 4
 832.279 710.229 823.018 738.232 808 763 c 4
 783.47 803.455 743.423 833.748 698.413 848.323 c 4
 653.403 862.899 604.662 862.808 558 855 c 4
 452.759 837.39 354.969 788.369 265 731 c 5
 228 835 l 5
  Spiro
    228 835 v
    581 996 o
    977 826 o
    1011 527 [
    1007 0 v
    843 0 v
    842 595 ]
    808 763 o
    558 855 o
    265 731 v
    0 0 z
  EndSpiro
190 1511 m 5
 354 1511 l 5
 354 0 l 5
 190 0 l 5
 190 1511 l 5
  Spiro
    190 1511 v
    354 1511 v
    354 0 v
    190 0 v
    0 0 z
  EndSpiro
EndSplineSet
Fore
SplineSet
787.5 817.5 m 128,-1,1
 738 874 738 874 621.5 874 c 128,-1,2
 505 874 505 874 354 801 c 1,3,-1
 354 1 l 1,4,-1
 185 1 l 1,5,-1
 185 1373 l 1,6,-1
 354 1373 l 1,7,-1
 354 926 l 1,8,9
 532 1016 532 1016 684.5 1016 c 128,-1,10
 837 1016 837 1016 920.5 925.5 c 128,-1,11
 1004 835 1004 835 1004 674 c 2,12,-1
 1004 1 l 1,13,-1
 837 1 l 1,14,-1
 837 634 l 2,15,0
 837 761 837 761 787.5 817.5 c 128,-1,1
EndSplineSet
Layer: 3
SplineSet
185.241 1373.23 m 1
 185.241 0.868164 l 1
 354.425 0.868164 l 1
 354.425 1373.23 l 1
 185.241 1373.23 l 1
342.726 795.488 m 1
 441.715 844.984 548.805 873.782 625.297 873.782 c 0
 776.481 873.782 836.775 802.689 836.775 633.505 c 2
 836.775 0.868164 l 1
 1004.16 0.868164 l 1
 1004.16 674.002 l 2
 1004.16 883.68 897.069 1015.97 672.992 1015.97 c 0
 569.503 1015.97 457.014 980.87 330.127 913.377 c 1
 342.726 795.488 l 1
EndSplineSet
EndChar

StartChar: i
Encoding: 105 105 4
Width: 524
VWidth: 2097
Flags: MW
LayerCount: 4
Back
SplineSet
165 1421 m 5xf0
 359 1421 l 5
 359 1232 l 5
 165 1232 l 5
 165 1421 l 5xf0
  Spiro
    165 1421 v
    359 1421 v
    359 1232 v
    165 1232 v
    0 0 z
  EndSpiro
180 988 m 5xe8
 344 988 l 5
 344 0 l 5
 180 0 l 5
 180 988 l 5xe8
  Spiro
    180 988 v
    344 988 v
    344 0 v
    180 0 v
    0 0 z
  EndSpiro
EndSplineSet
Fore
SplineSet
174 989 m 1,0,-1
 343 989 l 1,1,-1
 343 -1 l 1,2,-1
 174 -1 l 1,3,-1
 174 989 l 1,0,-1
174 1371 m 1,4,-1
 343 1371 l 1,5,-1
 343 1201 l 1,6,-1
 174 1201 l 1,7,-1
 174 1371 l 1,4,-1
EndSplineSet
Layer: 3
SplineSet
173.682 1371.33 m 1
 342.837 1371.33 l 1
 342.837 1201.28 l 1
 173.682 1201.28 l 1
 173.682 1371.33 l 1
173.682 988.938 m 1
 342.837 988.938 l 1
 342.837 -0.793945 l 1
 173.682 -0.793945 l 1
 173.682 988.938 l 1
EndSplineSet
EndChar

StartChar: n
Encoding: 110 110 5
Width: 1181
VWidth: 2097
Flags: MW
LayerCount: 4
Back
SplineSet
218 835 m 5
 324.224 910.335 443.282 970.562 571 996 c 4
 647.686 1011.27 729.117 1011.72 802.166 983.834 c 4
 875.216 955.944 935.942 897.76 967 826 c 4
 987.08 779.617 995.67 729.002 999.05 678.574 c 4
 1002.42 628.146 1001.38 577.539 1001 527 c 6
 997 0 l 5
 833 0 l 5
 832 595 l 6
 831.951 623.966 831.703 653.069 826.991 681.649 c 4
 822.279 710.229 813.018 738.232 798 763 c 4
 773.47 803.455 733.423 833.748 688.413 848.323 c 4
 643.403 862.899 594.662 862.808 548 855 c 4
 442.759 837.39 344.969 788.369 255 731 c 5
 218 835 l 5
  Spiro
    218 835 v
    571 996 o
    967 826 o
    1001 527 [
    997 0 v
    833 0 v
    832 595 ]
    798 763 o
    548 855 o
    255 731 v
    0 0 z
  EndSpiro
180 988 m 5
 295 988 l 5
 344 873 l 5
 344 0 l 5
 180 0 l 5
 180 988 l 5
  Spiro
    180 988 v
    295 988 v
    344 873 v
    344 0 v
    180 0 v
    0 0 z
  EndSpiro
EndSplineSet
Fore
SplineSet
781 811 m 128,-1,1
 732 867 732 867 616.5 867 c 128,-1,2
 501 867 501 867 351 795 c 1,3,-1
 351 0 l 1,4,-1
 183 0 l 1,5,-1
 183 983 l 1,6,-1
 299 983 l 1,7,-1
 332 909 l 1,8,9
 520 1008 520 1008 675.5 1008 c 128,-1,10
 831 1008 831 1008 913.5 918.5 c 128,-1,11
 996 829 996 829 996 669 c 2,12,-1
 996 0 l 1,13,-1
 830 0 l 1,14,-1
 830 628 l 2,15,0
 830 755 830 755 781 811 c 128,-1,1
EndSplineSet
Layer: 3
SplineSet
339.405 789.18 m 1
 437.718 838.336 544.074 866.936 620.043 866.936 c 0
 770.192 866.936 830.074 796.329 830.074 628.306 c 2
 830.074 0 l 1
 996.311 0 l 1
 996.311 668.523 l 2
 996.311 876.768 889.954 1008.15 667.412 1008.15 c 0
 564.63 1008.15 452.912 973.292 326.893 906.261 c 1
 339.405 789.18 l 1
299.187 983.123 m 1
 183 983.123 l 1
 183 0 l 1
 351.024 0 l 1
 351.024 867.829 l 1
 299.187 983.123 l 1
EndSplineSet
EndChar

StartChar: o
Encoding: 111 111 6
Width: 1211
VWidth: 2097
Flags: MW
LayerCount: 4
Back
SplineSet
597 867 m 4
 446 867 290 746 290 511 c 4
 290 296 419 120 613 120 c 4
 785 120 921 263 921 481 c 4
 921 735 754 867 597 867 c 4
611 1007 m 4
 874 1007 1081 832 1081 514 c 4
 1081 183 877 -20 595 -20 c 4
 327 -20 130 167 130 483 c 4
 130 805 326 1007 611 1007 c 4
EndSplineSet
Fore
SplineSet
380 768 m 128,-1,1
 297 664 297 664 297 492 c 128,-1,2
 297 320 297 320 380 216 c 128,-1,3
 463 112 463 112 602.5 112 c 128,-1,4
 742 112 742 112 824.5 215.5 c 128,-1,5
 907 319 907 319 907 492 c 128,-1,6
 907 665 907 665 824.5 768.5 c 128,-1,7
 742 872 742 872 602.5 872 c 128,-1,0
 463 872 463 872 380 768 c 128,-1,1
251 116 m 128,-1,9
 126 252 126 252 126 490.5 c 128,-1,10
 126 729 126 729 254.5 866.5 c 128,-1,11
 383 1004 383 1004 605 1004 c 128,-1,12
 827 1004 827 1004 952.5 868 c 128,-1,13
 1078 732 1078 732 1078 494 c 128,-1,14
 1078 256 1078 256 949.5 118 c 128,-1,15
 821 -20 821 -20 598.5 -20 c 128,-1,8
 376 -20 376 -20 251 116 c 128,-1,9
EndSplineSet
Layer: 3
SplineSet
125.987 492.356 m 0
 125.987 172.489 300.941 -20.1387 600.487 -20.1387 c 0
 894.729 -20.1387 1077.64 176.907 1077.64 492.356 c 0
 1077.64 811.341 902.682 1003.97 604.021 1003.97 c 0
 308.895 1003.97 125.987 806.924 125.987 492.356 c 0
296.523 492.356 m 0
 296.523 721.212 416.695 872.311 602.253 872.311 c 0
 788.696 872.311 907.1 721.212 907.1 492.356 c 0
 907.1 262.618 788.696 111.52 602.253 111.52 c 0
 416.695 111.52 296.523 262.618 296.523 492.356 c 0
EndSplineSet
EndChar

StartChar: s
Encoding: 115 115 7
Width: 1016
VWidth: 2097
Flags: MW
LayerCount: 4
Back
SplineSet
590 1007 m 4
 718 1007 770 988 841 967 c 5
 799 842 l 5
 734 860 663 879 563 879 c 4
 355 879 324 770 324 726 c 4
 324 549 896 591 896 283 c 4
 896 159 817 -20 466 -20 c 4
 392 -20 274 -4 130 55 c 5
 176 179 l 5
 308 130 387 109 473 109 c 4
 592 109 717 135 717 264 c 4
 717 453 154 378 154 709 c 4
 154 820 245 1007 590 1007 c 4
EndSplineSet
Fore
SplineSet
148 37 m 1,0,-1
 148 186 l 1,1,2
 315 120 315 120 496 119 c 0,3,4
 594 119 594 119 653 155 c 128,-1,5
 712 191 712 191 712 255 c 0,6,7
 712 314 712 314 655 354 c 0,8,9
 605 389 605 389 522 420 c 2,10,-1
 375 475 l 1,11,12
 297 506 297 506 269.5 525 c 128,-1,13
 242 544 242 544 218.5 565 c 128,-1,14
 195 586 195 586 184 608 c 0,15,16
 156 661 156 661 155.5 724 c 128,-1,17
 155 787 155 787 180.5 837 c 128,-1,18
 206 887 206 887 246.5 918 c 128,-1,19
 287 949 287 949 341 970 c 0,20,21
 546 1048 546 1048 834 965 c 1,22,-1
 834 828 l 1,23,24
 687 868 687 868 588 868 c 128,-1,25
 489 868 489 868 440 855 c 128,-1,26
 391 842 391 842 358 811.5 c 128,-1,27
 325 781 325 781 325 749.5 c 128,-1,28
 325 718 325 718 331.5 702 c 128,-1,29
 338 686 338 686 354 672 c 128,-1,30
 370 658 370 658 385 648 c 0,31,32
 408 632 408 632 475 606 c 1,33,-1
 563 574 l 2,34,35
 767 500 767 500 822 439 c 0,36,37
 888 366 888 366 888.5 271 c 128,-1,38
 889 176 889 176 837 110 c 0,39,40
 736 -20 736 -20 509.5 -20 c 128,-1,41
 283 -20 283 -20 148 37 c 1,0,-1
EndSplineSet
Layer: 3
SplineSet
554.409 1005.93 m 0
 656.164 1005.93 752.563 988.077 833.788 964.87 c 1
 833.788 828.305 l 1
 758.812 848.835 640.098 868.472 549.055 868.472 c 0
 435.695 868.472 325.016 829.197 325.016 736.369 c 0
 325.016 652.465 435.695 620.332 562.443 573.918 c 0
 724 515.008 888.235 455.205 888.235 266.87 c 0
 888.235 80.3193 724 -19.6504 495.499 -19.6504 c 0
 383.926 -19.6504 245.576 -3.58398 148.284 37.4746 c 1
 148.284 185.644 l 1
 258.965 141.908 380.356 119.594 496.392 119.594 c 0
 624.924 119.594 711.504 168.685 711.504 255.267 c 0
 711.504 357.021 582.079 398.079 441.944 449.85 c 0
 282.172 508.76 155.425 558.745 155.425 723.873 c 0
 155.425 943.447 383.926 1005.93 554.409 1005.93 c 0
EndSplineSet
EndChar

StartChar: bar
Encoding: 124 124 8
Width: 884
VWidth: 2097
Flags: MW
LayerCount: 4
Fore
SplineSet
524 1601 m 5,0,-1
 524 -308 l 1,1,-1
360 1601 m 1,2,-1
 524 1601 l 1,3,-1
 524 -308 l 1,4,-1
 360 -308 l 1,5,-1
 360 1601 l 1,2,-1
EndSplineSet
Layer: 3
SplineSet
360 1601 m 5
 524 1601 l 5
 524 -308 l 5
 360 -308 l 5
 360 1601 l 5
524 1601 m 5
 524 -308 l 5
EndSplineSet
EndChar

StartChar: b
Encoding: 98 98 9
Width: 1188
VWidth: 2097
Flags: MW
LayerCount: 4
Back
SplineSet
190 1511 m 1
 354 1511 l 1
 354 115 l 1
 304 0 l 1
 190 0 l 1
 190 1511 l 1
  Spiro
    354 1511 v
    354 115 v
    304 0 v
    190 0 v
    190 1511 v
    0 0 z
  EndSpiro
588 1007 m 0
 660.318 1011.32 733.99 1000.42 800.347 971.344 c 0
 866.704 942.27 924.782 894.579 966 835 c 0
 1023.99 751.182 1048.12 647.804 1053 546 c 0
 1056.47 473.487 1050.86 400.286 1033.14 329.887 c 0
 1015.41 259.488 984.363 191.864 938 136 c 0
 893.342 82.1904 834.86 40.1328 770 14 c 0
 695.362 -16.0723 613.027 -25.4189 533 -17 c 0
 476.688 -11.0762 421.355 3.43359 369 25 c 0
 338.922 37.3896 309.809 52.1221 282 69 c 1
 336 163 l 1
 367.56 148.234 400.373 136.128 434 127 c 0
 497.688 109.712 564.955 102.865 630 114 c 0
 672.7 121.31 714.181 136.635 750.46 160.31 c 0
 786.74 183.984 817.496 215.983 840 253 c 0
 867.829 298.777 882.896 351.486 889.328 404.671 c 0
 895.76 457.855 894.664 511.844 888 565 c 0
 881.76 614.774 869.9 664.368 847 709 c 0
 819.55 762.499 775.323 807.21 722 835 c 0
 663.495 865.491 595.766 876.243 530 871 c 0
 429.789 863.011 333.374 819.52 258 753 c 1
 220 846 l 1
 320.179 938.742 451.726 998.858 588 1007 c 0
  Spiro
    588 1007 o
    966 835 o
    1053 546 o
    938 136 o
    770 14 o
    533 -17 o
    369 25 o
    282 69 v
    336 163 v
    434 127 o
    630 114 o
    840 253 o
    888 565 o
    847 709 o
    722 835 o
    530 871 o
    258 753 v
    220 846 v
    0 0 z
  EndSpiro
EndSplineSet
Fore
Refer: 1 100 N -1 0 0 1 1186 0 2
Layer: 3
Refer: 1 100 S -1 0 0 1 1186.1 0 2
EndChar

StartChar: l
Encoding: 108 108 10
Width: 564
VWidth: 2097
Flags: MW
LayerCount: 4
Fore
SplineSet
200 1374 m 1,0,-1
 364 1374 l 1,1,-1
 364 0 l 1,2,-1
 200 0 l 1,3,-1
 200 1374 l 1,0,-1
EndSplineSet
Layer: 3
SplineSet
200 1374 m 5
 364 1374 l 5
 364 0 l 1
 200 0 l 1
 200 1374 l 5
EndSplineSet
EndChar

StartChar: w
Encoding: 119 119 11
Width: 1675
VWidth: 2097
Flags: MW
LayerCount: 4
Fore
SplineSet
55 988 m 1,0,-1
 230 988 l 1,1,-1
 498 159 l 1,2,-1
 762 988 l 1,3,-1
 923 988 l 1,4,-1
 1177 160 l 1,5,-1
 1445 988 l 1,6,-1
 1620 988 l 1,7,-1
 1259 0 l 1,8,-1
 1094 0 l 1,9,-1
 836 801 l 1,10,-1
 571 0 l 1,11,-1
 416 0 l 1,12,-1
 55 988 l 1,0,-1
EndSplineSet
Layer: 3
SplineSet
55 988 m 21
 230 988 l 13
 533 51 l 21
 464 51 l 5
 762 988 l 13
 923 988 l 21
 1211 51 l 5
 1142 51 l 13
 1445 988 l 29
 1620 988 l 29
 1259 0 l 29
 1094 0 l 29
 803 905 l 21
 871 905 l 5
 571 0 l 13
 416 0 l 29
 55 988 l 21
EndSplineSet
EndChar

StartChar: exclam
Encoding: 33 33 12
Width: 650
VWidth: 2097
Flags: MW
LayerCount: 4
Fore
SplineSet
240 1421 m 1,0,-1
 410 1421 l 1,1,-1
 410 458 l 1,2,-1
 240 458 l 1,3,-1
 240 1421 l 1,0,-1
225 200 m 1,4,-1
 425 200 l 1,5,-1
 425 0 l 1,6,-1
 225 0 l 1,7,-1
 225 200 l 1,4,-1
EndSplineSet
Layer: 3
SplineSet
225 200 m 1
 425 200 l 1
 425 0 l 1
 225 0 l 1
 225 200 l 1
240 1421 m 1
 410 1421 l 1
 410 458 l 1
 240 458 l 1
 240 1421 l 1
EndSplineSet
EndChar

StartChar: u
Encoding: 117 117 14
Width: 1181
VWidth: 2097
Flags: MW
LayerCount: 4
Back
SplineSet
184 988 m 5
 348 988 l 5
 349 392 l 6
 349.049 363.034 349.296 333.931 354.009 305.351 c 4
 358.721 276.771 367.982 248.768 383 224 c 4
 407.53 183.545 447.577 153.252 492.587 138.677 c 4
 537.597 124.101 586.338 124.192 633 132 c 4
 738.241 149.61 836.031 198.631 926 256 c 5
 963 152 l 5
 856.775 76.6659 737.718 16.438 610 -9 c 4
 533.313 -24.2739 451.883 -24.725 378.833 3.16481 c 4
 305.783 31.0547 245.057 89.2396 214 161 c 4
 193.926 207.383 185.327 257.998 181.953 308.426 c 4
 178.578 358.854 179.617 409.461 180 460 c 6
 184 988 l 5
  Spiro
    184 988 v
    348 988 v
    349 392 ]
    383 224 o
    633 132 o
    926 256 v
    963 152 v
    610 -9 o
    214 161 o
    180 460 [
    0 0 z
  EndSpiro
837 988 m 5
 1001 988 l 5
 1001 0 l 5
 886 0 l 5
 837 115 l 5
 837 988 l 5
  Spiro
    837 988 v
    1001 988 v
    1001 0 v
    886 0 v
    837 115 v
    0 0 z
  EndSpiro
EndSplineSet
Fore
Refer: 5 110 N -1 0 -0 -1 1182 984 2
Layer: 3
Refer: 5 110 S -1 0 -0 -1 1182.31 984.148 2
EndChar

StartChar: p
Encoding: 112 112 15
Width: 1164
VWidth: 2097
Flags: MW
LayerCount: 4
Back
SplineSet
180 988 m 5x60
 294 988 l 5
 344 873 l 5
 344 -531 l 5
 180 -531 l 5
 180 988 l 5x60
  Spiro
    180 988 v
    294 988 v
    344 873 v
    344 -531 v
    180 -531 v
    0 0 z
  EndSpiro
582 1006 m 4xa0
 654.316 1010.31 727.983 999.397 794.337 970.323 c 4
 860.691 941.248 918.771 893.568 960 834 c 4
 1018.01 750.192 1042.18 646.81 1047 545 c 4
 1050.43 472.651 1044.77 399.621 1027.03 329.398 c 4
 1009.28 259.175 978.259 191.734 932 136 c 4
 887.34 82.1927 828.86 40.1336 764 14 c 4
 689.362 -16.0734 607.027 -25.4192 527 -17 c 4
 470.688 -11.0757 415.355 3.43384 363 25 c 4
 332.922 37.3899 303.809 52.1222 276 69 c 5
 330 163 l 5
 361.56 148.234 394.373 136.128 428 127 c 4
 491.687 109.712 558.955 102.866 624 114 c 4
 666.7 121.309 708.181 136.634 744.461 160.308 c 4
 780.741 183.982 811.498 215.982 834 253 c 4
 861.74 298.634 876.796 351.163 883.246 404.176 c 4
 889.696 457.188 888.63 511.009 882 564 c 4
 875.772 613.776 863.904 663.37 841 708 c 4
 813.546 761.496 769.321 806.208 716 834 c 4
 657.496 864.494 589.766 875.245 524 870 c 4
 423.79 862.008 327.377 818.515 252 752 c 5
 214 845 l 5
 314.165 937.762 445.722 997.876 582 1006 c 4xa0
  Spiro
    582 1006 o
    960 834 o
    1047 545 o
    932 136 o
    764 14 o
    527 -17 o
    363 25 o
    276 69 v
    330 163 v
    428 127 o
    624 114 o
    834 253 o
    882 564 o
    841 708 o
    716 834 o
    524 870 o
    252 752 v
    214 845 v
    0 0 z
  EndSpiro
EndSplineSet
Fore
SplineSet
349 153 m 1,0,1
 455 106 455 106 570 106 c 0,2,3
 722 106 722 106 807 210 c 128,-1,4
 892 314 892 314 892 489 c 128,-1,5
 892 664 892 664 809.5 765.5 c 128,-1,6
 727 867 727 867 572 867 c 0,7,8
 501 867 501 867 452 850.5 c 128,-1,9
 403 834 403 834 349 804 c 1,10,-1
 349 153 l 1,0,1
349 23 m 1,11,-1
 349 -535 l 1,12,-1
 179 -535 l 1,13,-1
 179 986 l 1,14,-1
 300 986 l 1,15,-1
 330 918 l 1,16,17
 461 1005 461 1005 608.5 1005.5 c 128,-1,18
 756 1006 756 1006 859 941 c 0,19,20
 1066 810 1066 810 1066 503 c 0,21,22
 1066 247 1066 247 924 108 c 0,23,24
 788 -25 788 -25 586 -26 c 0,25,26
 466 -26 466 -26 349 23 c 1,11,-1
EndSplineSet
Layer: 3
SplineSet
348.5 875.2 m 1
 299.9 985.9 l 1
 179.3 985.9 l 1
 179.3 -534.6 l 1
 348.5 -534.6 l 1
 348.5 875.2 l 1
335.899 28.2998 m 1
 417.8 -7.7002 494.3 -25.7002 586.1 -25.7002 c 0
 848.899 -25.7002 1065.8 155.2 1065.8 502.6 c 0
 1065.8 796.899 901.1 1005.7 616.7 1005.7 c 0
 493.399 1005.7 396.2 966.1 315.2 908.5 c 1
 315.2 908.5 335 797.8 335.899 796.899 c 1
 405.2 836.5 467.3 867.1 571.7 867.1 c 0
 783.2 867.1 892.1 716.8 892.1 489.1 c 0
 892.1 258.7 775.1 106.6 569.899 106.6 c 0
 467.3 106.6 408.8 125.5 335.899 158.8 c 1
 335.899 28.2998 l 1
EndSplineSet
EndChar

StartChar: q
Encoding: 113 113 16
Width: 1164
VWidth: 2097
Flags: MW
LayerCount: 4
Back
SplineSet
650 1003 m 4xa0
 706.882 994.38 761.589 974.727 814 951 c 4
 843.614 937.594 872.617 922.848 901 907 c 5
 847 813 l 5
 815.013 826.753 782.314 838.875 749 849 c 4
 685.58 868.275 618.721 880.628 553 872 c 4
 509.875 866.339 467.879 851.303 431.641 827.248 c 4
 395.403 803.194 365.206 770.4 343 733 c 4
 314.958 685.769 299.516 631.802 292.747 577.293 c 4
 285.978 522.783 287.029 467.347 295 413 c 4
 301.81 366.565 314.262 320.594 336 279 c 4
 363.834 225.741 407.804 180.955 461 153 c 4
 519.42 122.3 587.227 111.586 653 117 c 4
 753.152 125.244 849.38 168.819 925 235 c 5
 963 142 l 5
 862.675 49.4524 731.238 -10.6797 595 -19 c 4
 522.665 -23.4176 448.943 -12.6108 382.561 16.4647 c 4
 316.179 45.5402 258.14 93.339 217 153 c 4
 161.028 234.171 136.563 333.62 130 432 c 4
 125.069 505.916 129.53 580.773 147.14 652.73 c 4
 164.749 724.687 196.961 793.607 245 850 c 4
 290.284 903.16 348.703 944.749 413 972 c 4
 487.312 1003.5 570.2 1015.09 650 1003 c 4xa0
  Spiro
    650 1003 o
    814 951 o
    901 907 v
    847 813 v
    749 849 o
    553 872 o
    343 733 o
    295 413 o
    336 279 o
    461 153 o
    653 117 o
    925 235 v
    963 142 v
    595 -19 o
    217 153 o
    130 432 o
    245 850 o
    413 972 o
    0 0 z
  EndSpiro
881 988 m 5x60
 996 988 l 5
 996 -531 l 5
 832 -531 l 5
 832 853 l 5
 881 988 l 5x60
  Spiro
    881 988 v
    996 988 v
    996 -531 v
    832 -531 v
    832 853 v
    0 0 z
  EndSpiro
EndSplineSet
Fore
Refer: 15 112 N -1 0 0 1 1180 0 2
Layer: 3
Refer: 15 112 S -1 0 0 1 1180.1 0 2
EndChar

StartChar: m
Encoding: 109 109 17
Width: 1691
VWidth: 2097
Flags: MW
LayerCount: 4
Back
SplineSet
1210 1006 m 4xdc
 1273.66 1008.11 1338.6 996.141 1394.32 965.29 c 4
 1450.05 934.439 1494.63 884.426 1520 826 c 4
 1540.13 779.639 1548.73 729.013 1552.08 678.582 c 4
 1555.44 628.151 1554.38 577.542 1554 527 c 6
 1550 0 l 5
 1386 0 l 5
 1385 595 l 6
 1384.95 623.967 1384.71 653.072 1380 681.654 c 4
 1375.3 710.237 1366.05 738.252 1351 763 c 4
 1333.55 791.682 1308.34 815.58 1278.74 831.424 c 4
 1249.14 847.268 1215.56 855.074 1182 856 c 4
 1116.78 857.799 1053.34 835.127 994 808 c 4
 943.941 785.116 895.503 758.804 848 731 c 5
 781 835 l 5
 821.562 864.049 863.979 890.523 908 914 c 4
 1001.65 963.943 1103.92 1002.49 1210 1006 c 4xdc
  Spiro
    1210 1006 o
    1520 826 o
    1554 527 [
    1550 0 v
    1386 0 v
    1385 595 ]
    1351 763 o
    1182 856 o
    994 808 o
    848 731 v
    781 835 v
    908 914 o
    0 0 z
  EndSpiro
617 1006 m 4
 679.271 1009.33 743.025 996.669 796.812 965.114 c 4
 850.599 933.559 892.698 883.43 917 826 c 4
 936.689 779.469 945.308 728.925 948.811 678.521 c 4
 952.314 628.118 951.383 577.524 951 527 c 6
 947 0 l 5
 783 0 l 5
 782 595 l 6
 781.951 623.961 781.674 653.06 776.933 681.631 c 4
 772.193 710.201 762.946 738.194 748 763 c 4
 731.492 790.398 708.062 813.629 680.348 829.6 c 4
 652.633 845.572 620.938 854.214 589 856 c 4
 523.741 859.65 460.122 835.868 401 808 c 4
 351.222 784.536 302.9 758.093 255 731 c 5
 218 835 l 5
 259.089 863.269 301.399 889.785 345 914 c 4
 429.396 960.871 520.6 1000.84 617 1006 c 4
  Spiro
    617 1006 o
    917 826 o
    951 527 [
    947 0 v
    783 0 v
    782 595 ]
    748 763 o
    589 856 o
    401 808 o
    255 731 v
    218 835 v
    345 914 o
    0 0 z
  EndSpiro
180 988 m 5xbc
 295 988 l 5
 344 873 l 5
 344 0 l 5
 180 0 l 5
 180 988 l 5xbc
  Spiro
    180 988 v
    295 988 v
    344 873 v
    344 0 v
    180 0 v
    0 0 z
  EndSpiro
EndSplineSet
Fore
SplineSet
930 784 m 1,0,1
 941 741 941 741 941 669 c 2,2,-1
 941 0 l 1,3,-1
 775 0 l 1,4,-1
 775 628 l 2,5,6
 775 718 775 718 753 766 c 0,7,8
 711 858 711 858 606 870 c 0,9,10
 502 882 502 882 351 796 c 1,11,-1
 351 0 l 1,12,-1
 183 0 l 1,13,-1
 183 983 l 1,14,-1
 299 983 l 1,15,-1
 332 910 l 1,16,17
 434 973 434 973 496 990 c 0,18,19
 673 1039 673 1039 796 966 c 0,20,21
 851 934 851 934 887 881 c 1,22,23
 1019 969 1019 969 1088 988 c 0,24,25
 1272 1039 1272 1039 1396 966 c 0,26,27
 1541 881 1541 881 1541 669 c 2,28,-1
 1541 0 l 1,29,-1
 1375 0 l 1,30,-1
 1375 628 l 2,31,32
 1375 718 1375 718 1353 766 c 0,33,34
 1311 858 1311 858 1206 870 c 0,35,36
 1093 883 1093 883 930 784 c 1,0,1
EndSplineSet
Layer: 3
SplineSet
862 738 m 1
 901.393 767.928 943.625 794.13 988 816 c 0
 1017.88 830.729 1048.71 843.632 1080.46 853.719 c 0
 1120.99 866.594 1163.79 874.748 1206.04 869.936 c 0
 1234.32 866.715 1262.01 857.552 1286.13 842.457 c 0
 1315.72 823.95 1339.52 796.481 1354.03 764.744 c 0
 1373.33 722.535 1375.07 674.716 1375.07 628.305 c 2
 1375.07 0 l 1
 1541.31 0 l 1
 1541.31 668.523 l 2
 1541.31 699.521 1540.66 730.669 1535.16 761.175 c 0
 1529.66 791.682 1519.7 821.385 1505.57 848.977 c 0
 1480.87 897.2 1443.23 939.132 1396.44 966.455 c 0
 1341.43 998.585 1276.1 1009.76 1212.41 1008.15 c 0
 1176.67 1007.24 1141 1002.23 1106.56 992.651 c 0
 1068.5 982.065 1032.21 965.86 997.351 947.271 c 0
 946.073 919.923 897.159 888.318 849.487 855.081 c 1
 862 738 l 1
262 738 m 1
 301.393 767.928 343.625 794.13 388 816 c 0
 417.885 830.729 448.708 843.632 480.461 853.719 c 0
 520.99 866.594 563.791 874.748 606.043 869.936 c 0
 634.321 866.715 662.006 857.552 686.135 842.457 c 0
 715.721 823.95 739.521 796.481 754.031 764.744 c 0
 773.328 722.535 775.074 674.716 775.074 628.305 c 2
 775.074 0 l 1
 941.311 0 l 1
 941.311 668.523 l 2
 941.311 699.521 940.661 730.669 935.161 761.175 c 0
 929.661 791.682 919.695 821.385 905.566 848.977 c 0
 880.872 897.2 843.229 939.132 796.443 966.455 c 0
 741.427 998.585 676.103 1009.76 612.411 1008.15 c 0
 576.674 1007.24 541.004 1002.23 506.562 992.651 c 0
 468.505 982.065 432.205 965.86 397.351 947.271 c 0
 346.073 919.923 297.159 888.318 249.487 855.081 c 1
 262 738 l 1
299.187 983.123 m 1
 183 983.123 l 1
 183 0 l 1
 351.024 0 l 1
 351.024 867.829 l 1
 299.187 983.123 l 1
EndSplineSet
EndChar

StartChar: c
Encoding: 99 99 18
Width: 1001
VWidth: 2097
Flags: MW
LayerCount: 4
Fore
SplineSet
620 1006 m 0,0,1
 746 1008 746 1008 886 947 c 1,2,-1
 846 827 l 1,3,4
 723 870 723 870 627 866 c 0,5,6
 269 851 269 851 290 462 c 0,7,8
 301 249 301 249 444 165 c 0,9,10
 508 127 508 127 610 116 c 128,-1,11
 712 105 712 105 835 148 c 1,12,-1
 875 35 l 1,13,14
 735 -19 735 -19 606 -20 c 0,15,16
 340 -22 340 -22 217 150 c 0,17,18
 132 269 132 269 130 464 c 0,19,20
 128 709 128 709 250 856 c 128,-1,21
 372 1003 372 1003 620 1006 c 0,0,1
EndSplineSet
Layer: 3
SplineSet
600 1006 m 0
 698.056 1007.38 796.098 986.173 886 947 c 1
 846 827 l 1
 769.026 853.638 687.386 868.281 606 865 c 0
 560.158 863.152 514.247 855.089 471.853 837.55 c 0
 429.459 820.011 391.011 792.542 362 757 c 0
 329.253 716.88 309.173 667.471 298.956 616.7 c 0
 288.739 565.93 287.051 513.704 290 462 c 0
 293.667 397.716 305.298 332.597 336 276 c 0
 360.908 230.083 398.648 191.32 443.669 164.826 c 0
 488.689 138.331 540.073 123.689 592 118 c 0
 673.791 109.04 757.362 120.752 835 148 c 1
 875 35 l 1
 785.812 0.500873 690.625 -19.3341 595 -20 c 0
 523.108 -20.5006 450.525 -9.56807 384.222 18.2253 c 0
 317.918 46.0187 258.868 91.5555 217 150 c 0
 184.87 194.852 162.868 246.509 149.395 300.011 c 0
 135.921 353.514 130.441 408.829 130 464 c 0
 129.452 532.503 136.365 601.314 154.041 667.499 c 0
 171.718 733.685 201.298 797.245 245 850 c 0
 287.58 901.4 343.187 941.661 404.749 967.451 c 0
 466.312 993.241 533.26 1005.06 600 1006 c 0
EndSplineSet
EndChar

StartChar: t
Encoding: 116 116 19
Width: 780
VWidth: 2097
Flags: MW
LayerCount: 4
Back
SplineSet
80 988 m 5
 678 988 l 5
 678 859 l 5
 80 859 l 5
 80 988 l 5
  Spiro
    80 988 v
    678 988 v
    678 859 v
    80 859 v
    0 0 z
  EndSpiro
213 1271 m 5
 377 1271 l 5
 377 317 l 6
 377 273.373 378.405 228.127 397.897 189.097 c 4
 407.643 169.581 421.613 152.117 438.908 138.824 c 4
 456.204 125.531 476.666 116.55 498 112 c 4
 536.399 103.81 576.268 109.567 615 116 c 4
 640.678 120.265 666.307 124.826 692 129 c 5
 715 17 l 5
 690.774 10.8848 666.442 5.18457 642 0 c 4
 563.633 -16.623 481.664 -29.6465 404 -10 c 4
 370.812 -1.60449 339.069 12.9346 311.779 33.6025 c 4
 284.489 54.2695 261.855 80.9785 245.629 111.122 c 4
 229.403 141.266 219.638 174.629 214.76 208.513 c 4
 209.883 242.397 209.833 276.767 210 311 c 6
 213 926 l 5
 213 1271 l 5
  Spiro
    213 1271 v
    377 1271 v
    377 317 ]
    498 112 o
    615 116 o
    692 129 v
    715 17 v
    642 0 o
    404 -10 o
    210 311 [
    213 926 v
    0 0 z
  EndSpiro
EndSplineSet
Fore
SplineSet
47 849 m 1,0,-1
 47 989 l 1,1,-1
 214 989 l 1,2,-1
 214 1234 l 1,3,-1
 379 1243 l 1,4,-1
 379 989 l 1,5,-1
 706 989 l 1,6,-1
 706 849 l 1,7,-1
 379 849 l 1,8,-1
 379 320 l 2,9,10
 379 216 379 216 414.5 168.5 c 128,-1,11
 450 121 450 121 538 121 c 0,12,13
 626 121 626 121 707 143 c 1,14,-1
 707 18 l 1,15,16
 594 -19 594 -19 489 -19 c 0,17,18
 340 -19 340 -19 277 63.5 c 128,-1,19
 214 146 214 146 214 307 c 2,20,-1
 214 849 l 1,21,-1
 47 849 l 1,0,-1
EndSplineSet
Layer: 3
SplineSet
213.727 1234.24 m 1
 378.71 1243.16 l 1
 378.71 320.149 l 2
 378.71 186.379 416.165 121.278 539.233 121.278 c 0
 604.335 121.278 659.626 130.195 706.892 142.681 c 1
 706.892 17.8291 l 1
 646.25 -1.79102 574.905 -18.7344 489.293 -18.7344 c 0
 281.503 -18.7344 213.727 103.441 213.727 306.772 c 2
 213.727 1234.24 l 1
46.96 848.987 m 1
 46.96 988.999 l 1
 706 988.999 l 1
 706 848.987 l 1
 46.96 848.987 l 1
EndSplineSet
EndChar

StartChar: r
Encoding: 114 114 20
Width: 801
VWidth: 2097
Flags: MW
LayerCount: 4
Back
SplineSet
585 1007 m 0xd0
 655.518 1009.69 726.612 995.882 791 967 c 1
 741 837 l 1
 689.506 856.997 634.24 867.231 579 867 c 0
 458.504 866.496 339.092 814.207 257 726 c 1
 217 798.667 l 1
 297.088 921.28 438.655 1001.42 585 1007 c 0xd0
  Spiro
    585 1007 o
    791 967 v
    741 837 v
    579 867 o
    257 726 v
    217 798.667 v
    0 0 z
  EndSpiro
180 988 m 1xb0
 295 988 l 1
 344 872 l 1
 344 0 l 1
 180 0 l 1
 180 988 l 1xb0
  Spiro
    180 988 v
    295 988 v
    344 872 v
    344 0 v
    180 0 v
    0 0 z
  EndSpiro
EndSplineSet
Fore
SplineSet
303 986 m 1,0,-1
 336 904 l 1,1,2
 468 1004 468 1004 611 1004 c 0,3,4
 682 1004 682 1004 746 985 c 1,5,-1
 746 824 l 1,6,-1
 726 824 l 1,7,8
 649 856 649 856 576 856 c 0,9,10
 456 856 456 856 350 785 c 1,11,-1
 350 -0 l 1,12,-1
 181 -0 l 1,13,-1
 181 986 l 1,14,-1
 303 986 l 1,0,-1
EndSplineSet
Layer: 3
SplineSet
341.1 779.099 m 1
 415.559 831.129 500.781 856.249 576.138 856.249 c 0
 628.17 856.249 674.818 845.483 725.952 823.953 c 1
 745.688 823.953 l 1
 745.688 984.531 l 1
 702.628 997.988 659.566 1004.27 611.125 1004.27 c 0
 514.238 1004.27 416.455 968.385 323.157 893.926 c 1
 341.1 779.099 l 1
302.525 986.326 m 1
 181.418 986.326 l 1
 181.418 -0.475586 l 1
 350.07 -0.475586 l 1
 350.07 868.808 l 1
 302.525 986.326 l 1
EndSplineSet
EndChar

StartChar: v
Encoding: 118 118 21
Width: 1008
VWidth: 2097
Flags: MW
LayerCount: 4
Back
SplineSet
918 988 m 5
 748 988 l 5
 449 12 l 5
 543 12 l 5
 235 988 l 5
 65 988 l 5
 413 0 l 5
 573 0 l 5
 918 988 l 5
EndSplineSet
Fore
SplineSet
963 991 m 1,0,-1
 594 0 l 1,1,-1
 414 0 l 1,2,-1
 45 991 l 1,3,-1
 225 991 l 1,4,-1
 498 216 l 1,5,-1
 507 161 l 1,6,-1
 516 216 l 1,7,-1
 790 991 l 1,8,-1
 963 991 l 1,0,-1
EndSplineSet
Layer: 3
SplineSet
962.641 991.457 m 1
 594 0 l 1
 413.734 0 l 1
 45.0938 991.457 l 1
 225.357 991.457 l 1
 497.558 216.317 l 1
 507.473 161.337 l 1
 516.485 216.317 l 1
 789.587 991.457 l 1
 962.641 991.457 l 1
EndSplineSet
EndChar

StartChar: k
Encoding: 107 107 22
Width: 1073
VWidth: 2097
Flags: MW
LayerCount: 4
Fore
SplineSet
180 1511 m 1,0,-1
 344 1511 l 1,1,-1
 344 0 l 1,2,-1
 180 0 l 1,3,-1
 180 1511 l 1,0,-1
796 1008 m 1,4,-1
 977 1008 l 1,5,-1
 547 563 l 1,6,-1
 1003 0 l 1,7,-1
 806 0 l 1,8,-1
 360 546 l 1,9,-1
 796 1008 l 1,4,-1
EndSplineSet
Layer: 3
SplineSet
796 1008 m 1
 977 1008 l 1
 502 517 l 1
 502 618 l 1
 1003 0 l 1
 806 0 l 1
 360 546 l 1
 796 1008 l 1
180 1511 m 1
 344 1511 l 1
 344 0 l 1
 180 0 l 1
 180 1511 l 1
EndSplineSet
EndChar

StartChar: j
Encoding: 106 106 23
Width: 524
VWidth: 2097
Flags: MW
LayerCount: 4
Fore
SplineSet
344 -131 m 2,0,1
 344 -250 344 -250 329.5 -291 c 128,-1,2
 315 -332 315 -332 295.5 -369.5 c 128,-1,3
 276 -407 276 -407 248 -434 c 0,4,5
 179 -502 179 -502 78 -538 c 1,6,-1
 16 -414 l 1,7,8
 184 -335 184 -335 178 -146 c 0,9,10
 178 -141 178 -141 178 -140 c 2,11,-1
 176 988 l 1,12,-1
 340 988 l 1,13,-1
 344 -131 l 2,0,1
174 1371 m 1,14,-1
 343 1371 l 1,15,-1
 343 1201 l 1,16,-1
 174 1201 l 1,17,-1
 174 1371 l 1,14,-1
EndSplineSet
Layer: 3
SplineSet
173.682 1371.33 m 5
 342.837 1371.33 l 5
 342.837 1201.28 l 5
 173.682 1201.28 l 5
 173.682 1371.33 l 5
344 -131 m 2
 344 -239 347 -440 78 -538 c 1
 16 -414 l 1
 195 -330 178 -164 178 -140 c 2
 176 988 l 1
 340 988 l 1
 344 -131 l 2
EndSplineSet
EndChar

StartChar: x
Encoding: 120 120 24
Width: 1048
VWidth: 2097
Flags: MW
LayerCount: 4
Fore
SplineSet
803 988 m 1,0,-1
 978 988 l 1,1,-1
 614 484 l 1,2,-1
 959 0 l 1,3,-1
 769 0 l 1,4,-1
 504 371 l 1,5,-1
 252 0 l 1,6,-1
 77 0 l 1,7,-1
 423 485 l 1,8,-1
 65 988 l 1,9,-1
 255 988 l 1,10,-1
 534 596 l 1,11,-1
 803 988 l 1,0,-1
EndSplineSet
Layer: 3
SplineSet
65 988 m 25
 255 988 l 25
 959 0 l 25
 769 0 l 25
 65 988 l 25
803 988 m 9
 978 988 l 17
 603 468 l 1
 560 453 l 1
 252 0 l 1
 77 0 l 1
 472.782 554 l 1
 514.381 567 l 1
 803 988 l 9
EndSplineSet
EndChar

StartChar: z
Encoding: 122 122 25
Width: 1078
VWidth: 2097
Flags: MW
LayerCount: 4
Fore
SplineSet
150 988 m 1,0,-1
 903 988 l 1,1,-1
 903 901 l 1,2,-1
 363 129 l 1,3,-1
 928 129 l 1,4,-1
 928 0 l 1,5,-1
 150 0 l 1,6,-1
 150 87 l 1,7,-1
 688 859 l 1,8,-1
 150 859 l 1,9,-1
 150 988 l 1,0,-1
EndSplineSet
Layer: 3
SplineSet
150 988 m 29
 903 988 l 21
 903 901 l 5
 363 129 l 13
 928 129 l 29
 928 0 l 29
 150 0 l 21
 150 87 l 5
 688 859 l 13
 150 859 l 29
 150 988 l 29
EndSplineSet
EndChar

StartChar: y
Encoding: 121 121 26
Width: 1040
VWidth: 2097
Flags: MW
LayerCount: 4
Fore
SplineSet
830 988 m 1,0,-1
 985 988 l 1,1,-1
 420 -531 l 1,2,-1
 245 -531 l 1,3,-1
 448 -38 l 1,4,-1
 45 988 l 1,5,-1
 210 988 l 1,6,-1
 521 150 l 1,7,-1
 830 988 l 1,0,-1
EndSplineSet
Layer: 3
SplineSet
210 988 m 1
 556 56 l 1
 538 -100 l 1
 494 -154 l 1
 45 988 l 1
 210 988 l 1
830 988 m 1
 985 988 l 1
 420 -531 l 1
 245 -531 l 1
 485 51 l 1
 830 988 l 1
EndSplineSet
EndChar

StartChar: f
Encoding: 102 102 27
Width: 820
VWidth: 2097
Flags: MW
LayerCount: 4
Fore
SplineSet
721 1419 m 0,0,1
 784 1409 784 1409 845 1390 c 1,2,-1
 820 1268 l 1,3,4
 663 1310 663 1310 581 1282 c 0,5,6
 464 1243 464 1243 448 1144 c 0,7,8
 444 1122 444 1122 444 1082 c 2,9,-1
 444 988 l 1,10,-1
 775 988 l 1,11,-1
 775 859 l 1,12,-1
 444 859 l 1,13,-1
 446 0 l 1,14,-1
 280 0 l 1,15,-1
 278 859 l 1,16,-1
 135 859 l 1,17,-1
 135 988 l 1,18,-1
 278 988 l 1,19,-1
 278 1088 l 2,20,21
 278 1217 278 1217 309 1273 c 0,22,23
 421 1468 421 1468 721 1419 c 0,0,1
EndSplineSet
Layer: 3
SplineSet
473 1409 m 0
 552.334 1435.12 638.561 1432.42 721 1419 c 0
 762.929 1412.18 804.363 1402.38 845 1390 c 1
 820 1268 l 1
 799.886 1273.56 779.529 1278.25 759 1282 c 0
 694.695 1293.75 626.889 1298.04 565 1277 c 0
 525.69 1263.63 489.764 1238.09 468.591 1202.38 c 0
 458.005 1184.52 451.178 1164.55 447.665 1144.09 c 0
 444.151 1123.63 443.962 1102.76 444 1082 c 2
 446 0 l 1
 280 0 l 1
 278 1088 l 2
 277.938 1121.99 278.201 1156.13 283.655 1189.68 c 0
 289.11 1223.23 299.756 1256.07 316.561 1285.61 c 0
 350.172 1344.69 408.436 1387.74 473 1409 c 0
135 988 m 1
 775 988 l 1
 775 859 l 1
 135 859 l 1
 135 988 l 1
EndSplineSet
EndChar

StartChar: G
Encoding: 71 71 28
Width: 1591
VWidth: 2097
Flags: MW
LayerCount: 4
Fore
SplineSet
1201 1231 m 0,0,1
 869 1350 869 1350 641 1202 c 0,2,3
 391 1039 391 1039 385 725 c 0,4,5
 382 562 382 562 457 422.5 c 128,-1,6
 532 283 532 283 665.5 207.5 c 128,-1,7
 799 132 799 132 977 131.5 c 128,-1,8
 1155 131 1155 131 1276 247 c 1,9,-1
 1276 610 l 1,10,-1
 872 610 l 1,11,-1
 872 750 l 1,12,-1
 1441 750 l 1,13,-1
 1436 192 l 1,14,15
 1352 96 1352 96 1221 37.5 c 128,-1,16
 1090 -21 1090 -21 895.5 -19 c 128,-1,17
 701 -17 701 -17 548.5 73 c 128,-1,18
 396 163 396 163 304.5 336 c 128,-1,19
 213 509 213 509 215 710.5 c 128,-1,20
 217 912 217 912 305 1079 c 128,-1,21
 393 1246 393 1246 551 1339 c 0,22,23
 776 1471 776 1471 1077 1418 c 0,24,25
 1233 1390 1233 1390 1376 1311 c 1,26,-1
 1309 1184 l 1,27,28
 1257 1211 1257 1211 1201 1231 c 0,0,1
EndSplineSet
Layer: 3
SplineSet
919 1432 m 0
 971.981 1431.92 1024.94 1427.08 1077.1 1417.77 c 0
 1129.51 1408.41 1181.11 1394.52 1231.22 1376.54 c 0
 1281.14 1358.63 1329.6 1336.67 1376 1311 c 1
 1309 1184 l 1
 1274 1202.1 1237.8 1217.84 1200.71 1231.14 c 0
 1157.77 1246.53 1113.68 1258.71 1068.93 1267.51 c 0
 1019.9 1277.15 969.963 1282.7 920 1282 c 0
 817.848 1280.58 716.056 1250.64 630.423 1194.92 c 0
 559.507 1148.78 499.647 1085.63 458.024 1011.97 c 0
 410.247 927.421 386.845 830.096 385 733 c 0
 382.944 624.806 406.818 515.574 458.153 420.311 c 0
 505.938 331.638 578.628 256.4 666.306 206.815 c 0
 755.261 156.508 857.806 131.33 960 131 c 0
 1030.97 130.771 1102.56 143.273 1167 173 c 0
 1207.06 191.48 1244.1 216.523 1276 247 c 1
 1276 610 l 1
 872 610 l 1
 872 750 l 1
 1441 750 l 1
 1436 192 l 1
 1380.09 128.535 1310.16 77.6543 1233 43 c 0
 1132.51 -2.13379 1021.15 -20.3027 911 -19 c 0
 784.156 -17.5 655.876 10.3037 546.545 74.6338 c 0
 444.592 134.623 362.574 225.934 307.281 330.508 c 0
 244.583 449.087 213.551 583.873 215 718 c 0
 216.341 842.152 245.863 966.326 303.569 1076.26 c 0
 359.943 1183.66 444.679 1276.78 549.239 1338.26 c 0
 660.165 1403.48 790.321 1432.19 919 1432 c 0
EndSplineSet
EndChar

StartChar: H
Encoding: 72 72 29
Width: 1600
VWidth: 2097
Flags: MW
LayerCount: 4
Back
SplineSet
357 808 m 5xea
 1319 808 l 5
 1319 658 l 5
 357 658 l 5
 357 808 l 5xea
1220 1421 m 5xe4
 1390 1421 l 5
 1390 0 l 5
 1220 0 l 5
 1220 1421 l 5xe4
290 1421 m 5xf0
 460 1421 l 5
 460 0 l 5
 290 0 l 5
 290 1421 l 5xf0
EndSplineSet
Fore
SplineSet
1221 1418 m 1,0,-1
 1401 1418 l 1,1,-1
 1401 0 l 1,2,-1
 1221 0 l 1,3,-1
 1221 637 l 1,4,-1
 433 637 l 1,5,-1
 433 0 l 1,6,-1
 253 0 l 1,7,-1
 253 1418 l 1,8,-1
 433 1418 l 1,9,-1
 433 790 l 1,10,-1
 1221 790 l 1,11,-1
 1221 1418 l 1,0,-1
EndSplineSet
Layer: 3
SplineSet
1221 1418.25 m 5
 1401.42 1418.25 l 5
 1401.42 0 l 5
 1221 0 l 5
 1221 637.05 l 5
 433.289 637.05 l 5
 433.289 0 l 5
 252.869 0 l 5
 252.869 1418.25 l 5
 433.289 1418.25 l 5
 433.289 790.5 l 5
 1221 790.5 l 5
 1221 1418.25 l 5
EndSplineSet
EndChar

StartChar: g
Encoding: 103 103 30
Width: 1176
VWidth: 2097
Flags: MW
LayerCount: 4
Fore
SplineSet
413 972 m 0,0,1
 597 1050 597 1050 814 951 c 1,2,-1
 860 929 l 1,3,-1
 881 988 l 1,4,-1
 996 988 l 1,5,-1
 996 -48 l 2,6,7
 996 -175 996 -175 969.5 -259 c 128,-1,8
 943 -343 943 -343 865 -416 c 128,-1,9
 787 -489 787 -489 668 -521 c 0,10,11
 489 -569 489 -569 284 -506 c 0,12,13
 243 -494 243 -494 204 -477 c 1,14,-1
 250 -358 l 1,15,16
 483 -444 483 -444 648 -375 c 0,17,18
 807 -309 807 -309 827 -118 c 0,19,20
 832 -76 832 -76 832 18 c 2,21,-1
 832 48 l 1,22,23
 717 -13 717 -13 598.5 -19 c 128,-1,24
 480 -25 480 -25 380 20.5 c 128,-1,25
 280 66 280 66 210.5 168 c 128,-1,26
 141 270 141 270 132 412 c 0,27,28
 113 695 113 695 245 850 c 0,29,30
 313 930 313 930 413 972 c 0,0,1
832 171 m 1,31,-1
 832 819 l 1,32,33
 577 923 577 923 432 827 c 0,34,35
 315 749 315 749 292 580 c 0,36,37
 271 415 271 415 336 285 c 0,38,39
 380 197 380 197 462.5 152 c 128,-1,40
 545 107 545 107 646.5 116.5 c 128,-1,41
 748 126 748 126 832 171 c 1,31,-1
EndSplineSet
Layer: 3
SplineSet
881 988 m 1
 996 988 l 1
 996 -48 l 2
 996 -114.652 993.699 -182.267 973.597 -245.815 c 0
 953.496 -309.364 916.661 -367.452 868 -413 c 0
 812.126 -465.3 741.927 -501.199 668 -521 c 0
 542.665 -554.571 408.058 -544.018 284 -506 c 0
 256.869 -497.686 230.158 -487.999 204 -477 c 1
 250 -358 l 1
 274.908 -367.271 300.282 -375.295 326 -382 c 0
 378.852 -395.778 433.273 -404.202 487.891 -404.343 c 0
 542.509 -404.483 597.6 -396.047 648 -375 c 0
 707.572 -350.122 759.454 -305.875 790 -249 c 0
 811.55 -208.874 822.563 -163.777 827.486 -118.497 c 0
 832.41 -73.2167 832 -27.5469 832 18 c 2
 832 853 l 1
 881 988 l 1
650 1003 m 0
 706.881 994.375 761.588 974.725 814 951 c 0
 843.615 937.594 872.618 922.849 901 907 c 1
 847 813 l 1
 815.005 826.734 782.308 838.858 749 849 c 0
 685.584 868.309 618.713 880.727 553 872 c 0
 509.906 866.277 467.976 851.137 431.778 827.064 c 0
 395.58 802.991 365.363 770.279 343 733 c 0
 315.236 686.718 299.425 633.895 292.472 580.373 c 0
 285.518 526.852 286.776 472.341 295 419 c 0
 302.147 372.646 314.906 326.891 336 285 c 0
 363.68 230.028 406.989 182.512 461 153 c 0
 518.995 121.311 587.196 110.88 653 117 c 0
 752.907 126.292 848.397 170.195 925 235 c 1
 963 142 l 1
 863.902 47.8151 731.556 -12.3826 595 -19 c 0
 522.231 -22.5263 448.305 -10.3546 382.023 19.8852 c 0
 315.742 50.1251 258.039 98.8046 217 159 c 0
 161.473 240.447 136.535 339.643 130 438 c 0
 125.154 510.936 129.844 584.808 147.618 655.711 c 0
 165.391 726.614 197.557 794.392 245 850 c 0
 290.323 903.123 348.714 944.732 413 972 c 0
 487.305 1003.52 570.2 1015.1 650 1003 c 0
EndSplineSet
EndChar

StartChar: O
Encoding: 79 79 31
Width: 1696
VWidth: 2097
Flags: MW
LayerCount: 4
Back
SplineSet
872 1287 m 4
 740.98 1286.28 610.44 1229.46 524 1131 c 4
 474.071 1074.13 438.884 1005.1 417.637 932.463 c 4
 396.39 859.827 388.262 783.66 390 708 c 4
 393.198 568.756 430.185 426.704 516 317 c 4
 560.892 259.612 618.805 212.35 684.451 180.738 c 4
 750.096 149.125 823.145 133.084 896 134 c 4
 966.914 134.892 1037.66 151.873 1100.93 183.913 c 4
 1164.2 215.953 1219.62 263.136 1262 320 c 4
 1343.93 429.929 1375.84 570.899 1376 708 c 4
 1376.14 827.98 1351.95 950.25 1290 1053 c 4
 1246.86 1124.56 1185.23 1185.02 1112.23 1225.69 c 4
 1039.24 1266.37 955.557 1287.46 872 1287 c 4
  Spiro
    524 1131 o
    390 708 o
    516 317 o
    896 134 o
    1262 320 o
    1376 708 o
    1290 1053 o
    872 1287 o
    0 0 z
  EndSpiro
891 1436 m 4
 981.195 1435.13 1071.43 1417.92 1154.78 1383.45 c 4
 1238.13 1348.98 1314.25 1296.67 1375 1230 c 4
 1438.35 1160.48 1484.45 1076 1512.84 986.328 c 4
 1541.23 896.66 1552.81 802.038 1551 708 c 4
 1549.03 605.611 1531.3 503.157 1494.65 407.529 c 4
 1458.01 311.9 1401.27 223.436 1326 154 c 4
 1205.44 42.791 1040.02 -15.1396 876 -15 c 4
 706.801 -14.8564 535.935 47.6523 416 167 c 4
 346.014 236.644 294.304 323.686 261.799 416.916 c 4
 229.294 510.145 214.907 609.266 215 708 c 4
 215.098 811.35 231.017 915.114 266.663 1012.12 c 4
 302.309 1109.13 358.981 1198.98 435 1269 c 4
 556.945 1381.32 725.221 1437.61 891 1436 c 4
  Spiro
    1375 1230 o
    1551 708 o
    1326 154 o
    876 -15 o
    416 167 o
    215 708 o
    435 1269 o
    891 1436 o
    0 0 z
  EndSpiro
EndSplineSet
Fore
SplineSet
458 1004.5 m 128,-1,1
 397 874 397 874 397 709 c 128,-1,2
 397 544 397 544 458 413.5 c 128,-1,3
 519 283 519 283 629 209.5 c 128,-1,4
 739 136 739 136 878.5 136 c 128,-1,5
 1018 136 1018 136 1128 209.5 c 128,-1,6
 1238 283 1238 283 1299 413.5 c 128,-1,7
 1360 544 1360 544 1360 708.5 c 128,-1,8
 1360 873 1360 873 1299 1004 c 128,-1,9
 1238 1135 1238 1135 1128 1208.5 c 128,-1,10
 1018 1282 1018 1282 878.5 1282 c 128,-1,11
 739 1282 739 1282 629 1208.5 c 128,-1,0
 519 1135 519 1135 458 1004.5 c 128,-1,1
205 708.5 m 128,-1,13
 205 925 205 925 287.5 1089.5 c 128,-1,14
 370 1254 370 1254 523 1344 c 128,-1,15
 676 1434 676 1434 878 1434 c 128,-1,16
 1080 1434 1080 1434 1233 1344 c 128,-1,17
 1386 1254 1386 1254 1469 1089.5 c 128,-1,18
 1552 925 1552 925 1552 708.5 c 128,-1,19
 1552 492 1552 492 1469 328 c 128,-1,20
 1386 164 1386 164 1233 74 c 128,-1,21
 1080 -16 1080 -16 878 -16 c 128,-1,22
 676 -16 676 -16 523 74 c 128,-1,23
 370 164 370 164 287.5 328 c 128,-1,12
 205 492 205 492 205 708.5 c 128,-1,13
EndSplineSet
Layer: 3
SplineSet
205.161 708.524 m 0
 205.161 272.291 469.373 -15.6797 878.995 -15.6797 c 0
 1285.77 -15.6797 1551.88 272.291 1551.88 708.524 c 0
 1551.88 1144.76 1285.77 1433.68 878.995 1433.68 c 0
 469.373 1433.68 205.161 1144.76 205.161 708.524 c 0
397.142 708.524 m 0
 397.142 1042.12 594.826 1281.62 878.995 1281.62 c 0
 1161.26 1281.62 1359.9 1042.12 1359.9 708.524 c 0
 1359.9 375.885 1161.26 136.384 878.995 136.384 c 0
 594.826 136.384 397.142 375.885 397.142 708.524 c 0
EndSplineSet
EndChar

StartChar: A
Encoding: 65 65 32
Width: 1383
VWidth: 2097
Flags: MW
LayerCount: 4
Fore
SplineSet
635 1421 m 1,0,-1
 828 1421 l 1,1,-1
 1333 0 l 1,2,-1
 1161 0 l 1,3,-1
 1017 413 l 1,4,-1
 431 413 l 1,5,-1
 287 0 l 1,6,-1
 130 0 l 1,7,-1
 635 1421 l 1,0,-1
724 1255 m 1,8,-1
 482 562 l 1,9,-1
 965 562 l 1,10,-1
 724 1255 l 1,8,-1
EndSplineSet
Layer: 3
SplineSet
723.554 1255.2 m 1
 482.461 562 l 1
 965.139 562 l 1
 723.554 1255.2 l 1
635 1421 m 1
 828 1421 l 1
 1333 0 l 1
 1161 0 l 1
 1017.07 413 l 1
 430.639 413 l 1
 287 0 l 1
 130 0 l 1
 635 1421 l 1
EndSplineSet
EndChar

StartChar: L
Encoding: 76 76 33
Width: 1133
VWidth: 2097
Flags: MW
LayerCount: 4
Fore
SplineSet
290 1421 m 1,0,-1
 460 1421 l 1,1,-1
 460 149 l 1,2,-1
 1098 149 l 1,3,-1
 1098 0 l 1,4,-1
 290 0 l 1,5,-1
 290 1421 l 1,0,-1
EndSplineSet
Layer: 3
SplineSet
357 149 m 5
 1098 149 l 5
 1098 0 l 5
 357 0 l 5
 357 149 l 5
290 1421 m 5
 460 1421 l 5
 460 0 l 5
 290 0 l 5
 290 1421 l 5
EndSplineSet
EndChar

StartChar: E
Encoding: 69 69 34
Width: 1283
VWidth: 2097
Flags: MW
LayerCount: 4
Fore
SplineSet
290 0 m 1,0,-1
 290 1421 l 1,1,-1
 1123 1421 l 1,2,-1
 1123 1271 l 1,3,-1
 460 1271 l 1,4,-1
 460 807 l 1,5,-1
 1068 807 l 1,6,-1
 1068 657 l 1,7,-1
 460 657 l 1,8,-1
 460 150 l 1,9,-1
 1123 150 l 1,10,-1
 1123 0 l 1,11,-1
 290 0 l 1,0,-1
EndSplineSet
Layer: 3
SplineSet
290 807 m 5
 1068 807 l 5
 1068 657 l 5
 290 657 l 5
 290 807 l 5
290 1421 m 5
 1123 1421 l 5
 1123 1271 l 5
 290 1271 l 5
 290 1421 l 5
290 150 m 5
 1123 150 l 5
 1123 0 l 5
 290 0 l 5
 290 150 l 5
290 1421 m 5
 460 1421 l 5
 460 0 l 5
 290 0 l 5
 290 1421 l 5
EndSplineSet
EndChar

StartChar: F
Encoding: 70 70 35
Width: 1248
VWidth: 2097
Flags: MW
LayerCount: 4
Fore
SplineSet
460 1271 m 1,0,-1
 460 807 l 1,1,-1
 1053 807 l 1,2,-1
 1053 657 l 1,3,-1
 460 657 l 1,4,-1
 460 0 l 1,5,-1
 290 0 l 1,6,-1
 290 1421 l 1,7,-1
 1113 1421 l 1,8,-1
 1113 1271 l 1,9,-1
 460 1271 l 1,0,-1
EndSplineSet
Layer: 3
SplineSet
357 807 m 1
 1053 807 l 1
 1053 657 l 1
 357 657 l 1
 357 807 l 1
357 1421 m 1
 1113 1421 l 1
 1113 1271 l 1
 357 1271 l 1
 357 1421 l 1
290 1421 m 1
 460 1421 l 1
 460 0 l 1
 290 0 l 1
 290 1421 l 1
EndSplineSet
EndChar

StartChar: N
Encoding: 78 78 36
Width: 1659
VWidth: 2097
Flags: MW
LayerCount: 4
Fore
SplineSet
290 1421 m 1,0,-1
 505 1421 l 1,1,-1
 1279 232 l 1,2,-1
 1279 1421 l 1,3,-1
 1449 1421 l 1,4,-1
 1449 0 l 1,5,-1
 1234 0 l 1,6,-1
 460 1191 l 1,7,-1
 460 0 l 1,8,-1
 290 0 l 1,9,-1
 290 1421 l 1,0,-1
EndSplineSet
Layer: 3
SplineSet
290 1421 m 1
 505 1421 l 1
 1349 124 l 1
 1279 124 l 1
 1279 1421 l 1
 1449 1421 l 1
 1449 0 l 1
 1234 0 l 1
 379.23 1315 l 1
 460 1315 l 1
 460 0 l 1
 290 0 l 1
 290 1421 l 1
EndSplineSet
EndChar

StartChar: V
Encoding: 86 86 37
Width: 1401
VWidth: 2097
Flags: MW
LayerCount: 4
Fore
SplineSet
140 1421 m 1,0,-1
 342 1421 l 1,1,-1
 748 180 l 1,2,-1
 1154 1421 l 1,3,-1
 1341 1421 l 1,4,-1
 846 0 l 1,5,-1
 635 0 l 1,6,-1
 140 1421 l 1,0,-1
EndSplineSet
Layer: 3
SplineSet
140 1421 m 5
 342 1421 l 5
 801 19 l 5
 696 19 l 5
 1154 1421 l 5
 1341 1421 l 5
 846 0 l 5
 635 0 l 5
 140 1421 l 5
EndSplineSet
EndChar

StartChar: Z
Encoding: 90 90 38
Width: 1358
VWidth: 2097
Flags: MW
LayerCount: 4
Fore
SplineSet
185 1421 m 1,0,-1
 1271 1421 l 1,1,-1
 1271 1312 l 1,2,-1
 381 150 l 1,3,-1
 1298 150 l 1,4,-1
 1298 0 l 1,5,-1
 155 0 l 1,6,-1
 155 111 l 1,7,-1
 1028 1271 l 1,8,-1
 185 1271 l 1,9,-1
 185 1421 l 1,0,-1
EndSplineSet
Layer: 3
SplineSet
185 1421 m 29
 1271 1421 l 17
 1271 1312 l 1
 381 150 l 9
 1298 150 l 25
 1298 0 l 25
 155 0 l 17
 155 111 l 1
 1028 1271 l 9
 185 1271 l 29
 185 1421 l 29
EndSplineSet
EndChar

StartChar: T
Encoding: 84 84 39
Width: 1210
VWidth: 2097
Flags: MW
LayerCount: 4
Fore
SplineSet
85 1421 m 1,0,-1
 1205 1421 l 1,1,-1
 1205 1271 l 1,2,-1
 730 1271 l 1,3,-1
 730 0 l 1,4,-1
 560 0 l 1,5,-1
 560 1271 l 1,6,-1
 85 1271 l 1,7,-1
 85 1421 l 1,0,-1
EndSplineSet
Layer: 3
SplineSet
730 0 m 5
 560 0 l 5
 560 1393 l 5
 730 1393 l 5
 730 0 l 5
85 1421 m 5
 1205 1421 l 5
 1205 1271 l 5
 85 1271 l 5
 85 1421 l 5
EndSplineSet
EndChar

StartChar: I
Encoding: 73 73 40
Width: 730
VWidth: 2097
Flags: MW
LayerCount: 4
Fore
SplineSet
320 1421 m 1,0,-1
 490 1421 l 1,1,-1
 490 0 l 1,2,-1
 320 0 l 1,3,-1
 320 1421 l 1,0,-1
EndSplineSet
Layer: 3
SplineSet
320 1421 m 5
 490 1421 l 5
 490 0 l 5
 320 0 l 5
 320 1421 l 5
EndSplineSet
EndChar

StartChar: X
Encoding: 88 88 41
Width: 1368
VWidth: 2097
Flags: MW
LayerCount: 4
Fore
SplineSet
1087 1421 m 1,0,-1
 1283 1421 l 1,1,-1
 833 746 l 1,2,-1
 1338 0 l 1,3,-1
 1118 0 l 1,4,-1
 719 599 l 1,5,-1
 320 0 l 1,6,-1
 110 0 l 1,7,-1
 623 742 l 1,8,-1
 170 1421 l 1,9,-1
 376 1421 l 1,10,-1
 738 886 l 1,11,-1
 1087 1421 l 1,0,-1
EndSplineSet
Layer: 3
SplineSet
170 1421 m 9
 376 1421 l 25
 1338 0 l 25
 1118 0 l 17
 170 1421 l 9
1087 1421 m 9
 1283 1421 l 17
 791 684 l 1
 762 664 l 1
 320 0 l 1
 110 0 l 1
 647 777 l 1
 680 797 l 1
 1087 1421 l 9
EndSplineSet
EndChar

StartChar: Y
Encoding: 89 89 42
Width: 1263
VWidth: 2097
Flags: MW
LayerCount: 4
Fore
SplineSet
100 1421 m 1,0,-1
 301 1421 l 1,1,-1
 663 834 l 1,2,-1
 1033 1421 l 1,3,-1
 1223 1421 l 1,4,-1
 739 673 l 1,5,-1
 739 0 l 1,6,-1
 569 0 l 1,7,-1
 569 673 l 1,8,-1
 100 1421 l 1,0,-1
EndSplineSet
Layer: 3
SplineSet
100 1421 m 9
 301 1421 l 25
 685 798 l 25
 644 805 l 25
 1033 1421 l 25
 1223 1421 l 25
 739 673 l 25
 739 0 l 25
 569 0 l 25
 569 673 l 17
 100 1421 l 9
EndSplineSet
EndChar

StartChar: K
Encoding: 75 75 43
Width: 1417
VWidth: 2097
Flags: MW
LayerCount: 4
Fore
SplineSet
290 1421 m 1,0,-1
 460 1421 l 1,1,-1
 460 0 l 1,2,-1
 290 0 l 1,3,-1
 290 1421 l 1,0,-1
1086 1421 m 1,4,-1
 1299 1421 l 1,5,-1
 698 743 l 1,6,-1
 1337 0 l 1,7,-1
 1118 1 l 1,8,-1
 484 729 l 1,9,-1
 1086 1421 l 1,4,-1
EndSplineSet
Layer: 3
SplineSet
1086 1421 m 1
 1299 1421 l 1
 646 685 l 1
 680 764 l 1
 1337 0 l 1
 1118 1 l 1
 484 729 l 1
 1086 1421 l 1
290 1421 m 1
 460 1421 l 1
 460 0 l 1
 290 0 l 1
 290 1421 l 1
EndSplineSet
EndChar

StartChar: M
Encoding: 77 77 44
Width: 1884
VWidth: 2097
Flags: MW
LayerCount: 4
Fore
SplineSet
290 1421 m 1,0,-1
 530 1421 l 1,1,-1
 986 559 l 1,2,-1
 1449 1421 l 1,3,-1
 1674 1421 l 1,4,-1
 1674 0 l 1,5,-1
 1504 0 l 1,6,-1
 1504 1177 l 1,7,-1
 1067 407 l 1,8,-1
 897 407 l 1,9,-1
 460 1177 l 1,10,-1
 460 0 l 1,11,-1
 290 0 l 1,12,-1
 290 1421 l 1,0,-1
EndSplineSet
Layer: 3
SplineSet
290 1421 m 5
 530 1421 l 5
 1050 437 l 5
 920 437 l 5
 1449 1421 l 5
 1674 1421 l 5
 1674 0 l 5
 1504 0 l 5
 1504 1365 l 5
 1611 1365 l 5
 1067 407 l 5
 897 407 l 5
 353.23 1365 l 5
 460 1365 l 5
 460 0 l 5
 290 0 l 5
 290 1421 l 5
EndSplineSet
EndChar

StartChar: hyphen
Encoding: 45 45 45
Width: 1210
VWidth: 2097
Flags: MW
LayerCount: 4
Fore
SplineSet
175 728 m 1,0,-1
 1035 728 l 1,1,-1
 1035 589 l 1,2,-1
 175 589 l 1,3,-1
 175 728 l 1,0,-1
EndSplineSet
Layer: 3
SplineSet
175 728 m 1
 1035 728 l 1
 1035 589 l 1
 175 589 l 1
 175 728 l 1
EndSplineSet
EndChar

StartChar: J
Encoding: 74 74 46
Width: 953
VWidth: 2097
Flags: MW
LayerCount: 4
Fore
SplineSet
573 1419 m 1,0,-1
 743 1419 l 1,1,-1
 743 426 l 2,2,3
 743 315 743 315 723.5 241.5 c 128,-1,4
 704 168 704 168 646 106 c 0,5,6
 536 -10 536 -10 332 -17 c 0,7,8
 223 -21 223 -21 110 7 c 1,9,-1
 137 149 l 1,10,11
 306 108 306 108 427 158 c 0,12,13
 536 202 536 202 564 311 c 0,14,15
 573 348 573 348 573 417 c 2,16,-1
 573 1419 l 1,0,-1
EndSplineSet
Layer: 3
SplineSet
573 1419 m 1
 743 1419 l 1
 743 426 l 2
 743 368.558 741.781 310.475 727.074 254.948 c 0
 712.367 199.421 684.349 147.264 644.754 105.649 c 0
 605.16 64.0342 554.854 33.2715 500.864 13.6562 c 0
 446.875 -5.95898 389.406 -14.9648 332 -17 c 0
 257.38 -19.6445 182.482 -10.9277 110 7 c 1
 137 149 l 1
 197.815 134.802 260.779 128.645 323 134 c 0
 358.469 137.053 393.781 144.15 426.754 157.572 c 0
 459.726 170.994 490.22 191.043 514.092 217.453 c 0
 537.964 243.863 554.718 276.432 563.502 310.931 c 0
 572.285 345.43 573 381.4 573 417 c 2
 573 1419 l 1
EndSplineSet
EndChar

StartChar: R
Encoding: 82 82 47
Width: 1438
VWidth: 2097
Flags: MW
LayerCount: 4
Fore
SplineSet
736 593 m 1,0,1
 704 592 704 592 610 592 c 2,2,-1
 461 592 l 1,3,-1
 461 0 l 1,4,-1
 290 0 l 1,5,-1
 290 1421 l 1,6,-1
 812 1421 l 2,7,8
 923 1421 923 1421 996.5 1400 c 128,-1,9
 1070 1379 1070 1379 1125 1321 c 0,10,11
 1227 1212 1227 1212 1228 1034 c 0,12,13
 1229 825 1229 825 1102 707 c 0,14,15
 1027 637 1027 637 910 611 c 1,16,-1
 1311 0 l 1,17,-1
 1121 0 l 1,18,-1
 736 593 l 1,0,1
461 742 m 1,19,-1
 630 742 l 2,20,21
 767 742 767 742 801 745 c 0,22,23
 975 760 975 760 1034 892 c 0,24,25
 1082 1001 1082 1001 1041 1112 c 0,26,27
 996 1233 996 1233 860 1262 c 0,28,29
 814 1272 814 1272 720 1272 c 2,30,-1
 461 1272 l 1,31,-1
 461 742 l 1,19,-1
EndSplineSet
Layer: 3
SplineSet
697 653 m 1
 882 653 l 1
 1311 0 l 1
 1121 0 l 1
 697 653 l 1
290 1421 m 1
 812 1421 l 2
 869.508 1421 927.761 1419.72 983.062 1403.94 c 0
 1038.37 1388.17 1089.72 1358 1129 1316 c 0
 1163.83 1278.76 1189.07 1233.07 1204.93 1184.6 c 0
 1220.78 1136.14 1227.76 1084.99 1228 1034 c 0
 1228.29 973.9 1219.35 913.512 1198.98 856.967 c 0
 1178.62 800.422 1145.95 747.994 1102 707 c 0
 1038.79 648.041 954.287 615.996 868.831 603.003 c 0
 783.374 590.009 696.438 592 610 592 c 2
 357 592 l 1
 357 742 l 1
 630 742 l 2
 686.876 742 743.891 739.994 800.549 744.971 c 0
 857.207 749.948 914.501 764.872 960 799 c 0
 992.021 823.019 1017.26 855.709 1033.54 892.279 c 0
 1049.81 928.849 1057.62 968.973 1058 1009 c 0
 1058.33 1044.11 1052.92 1079.4 1040.76 1112.34 c 0
 1028.6 1145.28 1009.37 1175.73 984 1200 c 0
 950.128 1232.4 905.889 1252.69 860.02 1262.35 c 0
 814.151 1272 766.874 1272 720 1272 c 2
 461 1272 l 1
 461 0 l 1
 290 0 l 1
 290 1421 l 1
EndSplineSet
EndChar

StartChar: D
Encoding: 68 68 48
Width: 1605
VWidth: 2097
Flags: MW
LayerCount: 4
Back
SplineSet
460 1271 m 1
 460 150 l 1
 667 150 l 2
 729.782 150 792.849 150.426 854.856 160.261 c 0
 916.863 170.096 977.688 189.509 1032 221 c 0
 1107.95 265.037 1169.39 332.647 1209 411 c 0
 1252.89 497.836 1271.95 595.748 1275 693 c 0
 1278.78 813.297 1257.41 937.088 1195 1040 c 0
 1147.61 1118.14 1077.17 1182.01 995 1222 c 0
 955.097 1241.42 912.428 1255.13 868.691 1262.64 c 0
 824.953 1270.15 780.378 1271 736 1271 c 2
 460 1271 l 1
  Spiro
    460 1271 v
    460 150 v
    667 150 ]
    1032 221 o
    1209 411 o
    1275 693 o
    1195 1040 o
    995 1222 o
    736 1271 [
    0 0 z
  EndSpiro
290 1421 m 1
 687 1421 l 2
 819.03 1421 953.753 1412.88 1076 1363 c 0
 1184.57 1318.7 1281.39 1243.51 1345 1145 c 0
 1427.73 1016.88 1451.63 858.361 1445 706 c 0
 1440.99 613.829 1426.46 521.767 1397.17 434.284 c 0
 1367.88 346.8 1322.36 264.062 1259 197 c 0
 1180.32 113.715 1075.14 57.8271 964 30 c 0
 844.935 0.189453 720.74 0 598 0 c 2
 290 0 l 1
 290 1421 l 1
  Spiro
    290 1421 v
    687 1421 ]
    1076 1363 o
    1345 1145 o
    1445 706 o
    1259 197 o
    964 30 o
    598 0 [
    290 0 v
    0 0 z
  EndSpiro
EndSplineSet
Fore
SplineSet
289 1420 m 1,0,-1
 757 1420 l 2,1,2
 1096 1420 1096 1420 1284 1238.5 c 128,-1,3
 1472 1057 1472 1057 1472 711.5 c 128,-1,4
 1472 366 1472 366 1273.5 183 c 128,-1,5
 1075 0 1075 0 692 0 c 2,6,-1
 289 0 l 1,7,-1
 289 1420 l 1,0,-1
477 1269 m 1,8,-1
 477 152 l 1,9,-1
 717 152 l 2,10,11
 1039 152 1039 152 1174 335 c 0,12,13
 1276 473 1276 473 1276 724 c 0,14,15
 1276 1071 1276 1071 1053 1195 c 0,16,17
 920 1269 920 1269 714 1269 c 2,18,-1
 477 1269 l 1,8,-1
EndSplineSet
Layer: 3
SplineSet
477.181 1268.76 m 1
 477.181 152.29 l 1
 716.771 152.29 l 2
 1044.63 152.29 1276.46 291 1276.46 723.62 c 0
 1276.46 1133.93 1041.72 1268.76 713.86 1268.76 c 2
 477.181 1268.76 l 1
289 1420.08 m 1
 756.54 1420.08 l 2
 1207.59 1420.08 1472.4 1165.94 1472.4 729.44 c 0
 1472.4 241.53 1199.83 0 691.55 0 c 2
 289 0 l 1
 289 1420.08 l 1
EndSplineSet
EndChar

StartChar: P
Encoding: 80 80 49
Width: 1339
VWidth: 2097
Flags: MW
LayerCount: 4
Fore
SplineSet
290 1421 m 1,0,-1
 738 1421 l 2,1,2
 880 1421 880 1421 946 1408 c 0,3,4
 1059 1385 1059 1385 1126 1320 c 0,5,6
 1250 1198 1250 1198 1229 989 c 0,7,8
 1212 809 1212 809 1103 707 c 0,9,10
 1044 652 1044 652 969.5 628 c 128,-1,11
 895 604 895 604 761 593.5 c 128,-1,12
 627 583 627 583 460 596 c 1,13,-1
 460 0 l 1,14,-1
 290 0 l 1,15,-1
 290 1421 l 1,0,-1
460 746 m 1,16,17
 611 733 611 733 719.5 739.5 c 128,-1,18
 828 746 828 746 875 757 c 0,19,20
 983 784 983 784 1031 886 c 0,21,22
 1083 994 1083 994 1045 1106 c 0,23,24
 997 1247 997 1247 824 1266 c 0,25,26
 784 1271 784 1271 646 1271 c 2,27,-1
 460 1271 l 1,28,-1
 460 746 l 1,16,17
EndSplineSet
Layer: 3
SplineSet
290 1421 m 1
 738 1421 l 2
 807.577 1421 877.722 1421.48 945.97 1407.94 c 0
 1014.22 1394.41 1080.41 1364.8 1130 1316 c 0
 1171.97 1274.69 1200.96 1221.11 1216.34 1164.27 c 0
 1231.72 1107.43 1234.61 1047.62 1229 989 c 0
 1223.99 936.616 1212.11 884.708 1191.62 836.236 c 0
 1171.14 787.765 1141.44 742.935 1103 707 c 0
 1062.19 668.856 1011.98 641.442 958.758 624.475 c 0
 905.539 607.508 849.675 600.526 794 596 c 0
 636.771 583.218 478.1 588.261 322 611 c 1
 350 759 l 1
 486.972 739.539 625.894 733.834 764 742 c 0
 798.66 744.049 833.445 747.069 867.12 755.524 c 0
 900.796 763.979 933.264 778.114 961 799 c 0
 990.98 821.576 1014.99 851.769 1031.28 885.579 c 0
 1047.58 919.388 1056.54 956.551 1059 994 c 0
 1061.47 1031.64 1057.38 1069.89 1045.3 1105.62 c 0
 1033.22 1141.36 1012.69 1174.38 985 1200 c 0
 963.267 1220.11 937.387 1235.55 909.775 1246.24 c 0
 882.163 1256.94 852.925 1263.01 823.508 1266.4 c 0
 764.676 1273.18 705.221 1271 646 1271 c 2
 460 1271 l 1
 460 0 l 1
 290 0 l 1
 290 1421 l 1
EndSplineSet
EndChar

StartChar: B
Encoding: 66 66 50
Width: 1424
VWidth: 2097
Flags: MW
LayerCount: 4
Fore
SplineSet
460 1291 m 1,0,-1
 460 814 l 1,1,-1
 641 819 l 2,2,3
 1018 829 1018 829 1018 1071 c 0,4,5
 1018 1230 1018 1230 856 1276 c 0,6,7
 804 1291 804 1291 734 1291 c 2,8,-1
 460 1291 l 1,0,-1
460 682 m 1,9,-1
 460 150 l 1,10,-1
 719 150 l 2,11,12
 749 150 749 150 774 150 c 128,-1,13
 799 150 799 150 844 155 c 128,-1,14
 889 160 889 160 922.5 169 c 128,-1,15
 956 178 956 178 997.5 197.5 c 128,-1,16
 1039 217 1039 217 1066 244 c 0,17,18
 1130 308 1130 308 1130 413 c 0,19,20
 1130 554 1130 554 1015 629.5 c 128,-1,21
 900 705 900 705 709 695 c 2,22,-1
 460 682 l 1,9,-1
290 1421 m 1,23,-1
 791 1421 l 2,24,25
 990 1421 990 1421 1094 1309 c 0,26,27
 1182 1214 1182 1214 1182 1079 c 0,28,29
 1182 992 1182 992 1123 905.5 c 128,-1,30
 1064 819 1064 819 998 794 c 1,31,32
 1130 770 1130 770 1214.5 666.5 c 128,-1,33
 1299 563 1299 563 1299 431 c 0,34,35
 1299 252 1299 252 1163 130 c 0,36,37
 1018 1 1018 1 752 0 c 2,38,-1
 290 0 l 1,39,-1
 290 1421 l 1,23,-1
EndSplineSet
Layer: 3
SplineSet
290 1421 m 5
 791 1421 l 6
 1148 1421 1182 1153 1182 1079 c 4
 1182 957 1081 826 998 794 c 5
 1175 762 1299 606 1299 431 c 4
 1299 302 1218 0 752 0 c 6
 290 0 l 5
 290 1421 l 5
460 682 m 5
 460 150 l 5
 719 150 l 6
 780 150 1130 133 1130 413 c 4
 1130 604 960 708 709 695 c 6
 460 682 l 5
460 1291 m 5
 460 814 l 5
 641 819 l 6
 708.17 820.856 1018 823 1018 1071 c 4
 1018 1159 975 1291 734 1291 c 6
 460 1291 l 5
EndSplineSet
EndChar

StartChar: U
Encoding: 85 85 51
Width: 1580
VWidth: 2097
Flags: MW
LayerCount: 4
Fore
SplineSet
290 1421 m 1,0,-1
 460 1421 l 1,1,-1
 460 500 l 2,2,3
 460 411 460 411 474.5 351.5 c 128,-1,4
 489 292 489 292 538 236.5 c 128,-1,5
 587 181 587 181 664.5 154 c 128,-1,6
 742 127 742 127 830 127 c 0,7,8
 1025 127 1025 127 1125 240 c 0,9,10
 1171 292 1171 292 1185.5 351.5 c 128,-1,11
 1200 411 1200 411 1200 500 c 2,12,-1
 1200 1421 l 1,13,-1
 1370 1421 l 1,14,-1
 1370 620 l 2,15,16
 1370 600 1370 600 1371 542.5 c 128,-1,17
 1372 485 1372 485 1372 456 c 0,18,19
 1369 259 1369 259 1283 150 c 0,20,21
 1148 -21 1148 -21 830 -21 c 128,-1,22
 512 -21 512 -21 377 150 c 0,23,24
 326 214 326 214 311.5 275.5 c 128,-1,25
 297 337 297 337 293 382 c 128,-1,26
 289 427 289 427 288.5 456 c 128,-1,27
 288 485 288 485 289 542.5 c 128,-1,28
 290 600 290 600 290 620 c 2,29,-1
 290 1421 l 1,0,-1
EndSplineSet
Layer: 3
SplineSet
290 1421 m 1
 460 1421 l 1
 460 500 l 2
 460 453.742 460.869 407.024 471.991 362.124 c 0
 483.113 317.223 504.405 274.694 535 240 c 0
 570.892 199.299 618.658 169.974 669.91 152.141 c 0
 721.162 134.309 775.734 127 830 127 c 0
 884.266 127 938.838 134.309 990.09 152.141 c 0
 1041.34 169.974 1089.11 199.299 1125 240 c 0
 1155.59 274.694 1176.89 317.223 1188.01 362.124 c 0
 1199.13 407.024 1200 453.742 1200 500 c 2
 1200 1421 l 1
 1370 1421 l 1
 1370 620 l 2
 1370 512.939 1379.09 404.079 1354 300 c 0
 1340.95 245.854 1317.18 194.084 1282.73 150.326 c 0
 1248.27 106.568 1203.68 71.1709 1154.3 45.3965 c 0
 1055.56 -6.15137 941.394 -21 830 -21 c 0
 718.606 -21 604.443 -6.15137 505.695 45.3965 c 0
 456.32 71.1709 411.733 106.568 377.274 150.326 c 0
 342.816 194.084 319.053 245.854 306 300 c 0
 280.909 404.079 290 512.939 290 620 c 2
 290 1421 l 1
EndSplineSet
EndChar

StartChar: Q
Encoding: 81 81 52
Width: 1706
VWidth: 2097
Flags: MW
LayerCount: 4
Fore
SplineSet
435 1269 m 0,0,1
 619 1438 619 1438 898 1436 c 0,2,3
 1032 1435 1032 1435 1158 1383 c 128,-1,4
 1284 1331 1284 1331 1375 1230 c 0,5,6
 1551 1034 1551 1034 1551 708 c 0,7,8
 1550 410 1550 410 1401 220 c 1,9,-1
 1582 41 l 1,10,-1
 1490 -56 l 1,11,-1
 1303 121 l 1,12,13
 1126 -19 1126 -19 876 -15 c 0,14,15
 746 -13 746 -13 625 33.5 c 128,-1,16
 504 80 504 80 408 174.5 c 128,-1,17
 312 269 312 269 263.5 410 c 128,-1,18
 215 551 215 551 215.5 711.5 c 128,-1,19
 216 872 216 872 269.5 1019 c 128,-1,20
 323 1166 323 1166 435 1269 c 0,0,1
1297.5 1040 m 128,-1,22
 1224 1165 1224 1165 1113 1226.5 c 128,-1,23
 1002 1288 1002 1288 887 1287 c 0,24,25
 659 1285 659 1285 524 1131 c 0,26,27
 385 973 385 973 389.5 721 c 128,-1,28
 394 469 394 469 516 317 c 0,29,30
 585 231 585 231 684.5 183.5 c 128,-1,31
 784 136 784 136 891 134 c 0,32,33
 1067 130 1067 130 1191 227 c 1,34,-1
 876 525 l 1,35,-1
 981 633 l 1,36,-1
 1287 331 l 1,37,38
 1381 476 1381 476 1376 695.5 c 128,-1,21
 1371 915 1371 915 1297.5 1040 c 128,-1,22
EndSplineSet
Layer: 3
SplineSet
981 633 m 1
 1582 41 l 1
 1490 -56 l 1
 876 525 l 1
 981 633 l 1
872 1287 m 0
 741.01 1285.87 610.378 1229.48 524 1131 c 0
 474.114 1074.12 439.129 1005.02 417.987 932.377 c 0
 396.845 859.738 388.635 783.641 390 708 c 0
 392.516 568.589 428.694 425.717 516 317 c 0
 561.446 260.409 619.985 214.483 685.567 183.387 c 0
 751.148 152.291 823.438 135.618 896 134 c 0
 961.566 132.538 1027.6 143.456 1088.44 167.951 c 0
 1149.27 192.447 1204.53 230.895 1248 280 c 0
 1298.52 337.072 1332.45 407.645 1351.91 481.341 c 0
 1371.37 555.037 1377.69 631.796 1376 708 c 0
 1373.34 827.771 1350.81 949.78 1290 1053 c 0
 1247.53 1125.09 1185.99 1185.99 1112.81 1226.57 c 0
 1039.63 1267.15 955.673 1287.72 872 1287 c 0
891 1436 m 0
 981.254 1435.31 1071.61 1418.41 1155.06 1384.01 c 0
 1238.5 1349.61 1314.61 1297.08 1375 1230 c 0
 1437.83 1160.2 1483.07 1075.44 1511.16 985.824 c 0
 1539.24 896.204 1551.23 801.917 1551 708 c 0
 1550.76 610.016 1537.26 511.654 1506.1 418.754 c 0
 1474.95 325.855 1424.85 238.716 1356 169 c 0
 1294.12 106.345 1217.77 58.418 1135.17 27.9062 c 0
 1052.56 -2.60645 964.05 -16.3477 876 -15 c 0
 707.051 -12.4141 536.458 48.5088 416 167 c 0
 345.569 236.281 293.583 323.315 261.157 416.637 c 0
 228.731 509.959 214.695 609.206 215 708 c 0
 215.319 811.335 231.255 915.059 266.827 1012.08 c 0
 302.399 1109.1 358.974 1199.01 435 1269 c 0
 556.953 1381.27 725.245 1437.26 891 1436 c 0
EndSplineSet
EndChar

StartChar: W
Encoding: 87 87 53
Width: 2155
VWidth: 2097
Flags: MW
LayerCount: 4
Fore
SplineSet
140 1421 m 1,0,-1
 322 1421 l 1,1,-1
 679 227 l 1,2,-1
 1039 1421 l 1,3,-1
 1210 1421 l 1,4,-1
 1580 227 l 1,5,-1
 1927 1421 l 1,6,-1
 2095 1421 l 1,7,-1
 1669 0 l 1,8,-1
 1488 0 l 1,9,-1
 1115 1187 l 1,10,-1
 766 0 l 1,11,-1
 585 0 l 1,12,-1
 140 1421 l 1,0,-1
EndSplineSet
Layer: 3
SplineSet
140 1421 m 1
 322 1421 l 1
 741 19 l 1
 616 19 l 1
 1039 1421 l 1
 1210 1421 l 1
 1644 19 l 1
 1519 19 l 1
 1927 1421 l 1
 2095 1421 l 1
 1669 0 l 1
 1488 0 l 1
 1064 1348 l 1
 1162 1348 l 1
 766 0 l 1
 585 0 l 1
 140 1421 l 1
EndSplineSet
EndChar

StartChar: C
Encoding: 67 67 54
Width: 1451
VWidth: 2097
Flags: MW
LayerCount: 4
Back
SplineSet
994 1431 m 4
 1071.11 1430.32 1148.03 1420.02 1223 1402 c 4
 1273.68 1389.82 1323.5 1374.08 1372 1355 c 5
 1320 1214 l 5
 1268.23 1231.95 1215.5 1247.18 1162 1259 c 4
 1099.61 1272.79 1035.89 1281.88 972 1281 c 4
 897.699 1279.98 823.332 1264.6 755.972 1233.23 c 4
 688.612 1201.86 628.706 1154.97 581 1098 c 4
 490.796 990.277 444.518 848.502 445 708 c 4
 445.465 572.491 490.25 436.102 577 332 c 4
 626.385 272.737 688.865 224.486 758.606 191.511 c 4
 828.346 158.537 904.959 140.954 982 137 c 4
 1049.29 133.546 1116.87 140.066 1183 153 c 4
 1235.99 163.364 1288.15 177.85 1339 196 c 5
 1391 70 l 5
 1332.83 44.7139 1272.57 24.2266 1211 9 c 4
 1088.31 -21.3418 959.449 -31.0664 835 -9 c 4
 702.424 14.5078 576.116 76.7012 481 172 c 4
 411.642 241.492 359.178 327.159 325.245 419.291 c 4
 291.312 511.423 275.161 609.818 275 708 c 4
 274.703 889.116 331.371 1073.9 452 1209 c 4
 519.067 1284.11 604.555 1342.29 698.275 1379.12 c 4
 791.995 1415.95 893.307 1431.89 994 1431 c 4
  Spiro
    994 1431 o
    1223 1402 o
    1372 1355 v
    1320 1214 v
    1162 1259 o
    972 1281 o
    581 1098 o
    445 708 o
    577 332 o
    982 137 o
    1183 153 o
    1339 196 v
    1391 70 v
    1211 9 o
    835 -9 o
    481 172 o
    275 708 o
    452 1209 o
    0 0 z
  EndSpiro
EndSplineSet
Fore
SplineSet
711.5 205.5 m 128,-1,1
 841 133 841 133 1006.5 133 c 128,-1,2
 1172 133 1172 133 1337 201 c 1,3,-1
 1381 65 l 1,4,5
 1195 -21 1195 -21 957 -21 c 0,6,7
 798 -21 798 -21 665 33 c 128,-1,8
 532 87 532 87 441 183 c 0,9,10
 249 385 249 385 248 707 c 0,11,12
 248 862 248 862 300.5 995.5 c 128,-1,13
 353 1129 353 1129 445 1224.5 c 128,-1,14
 537 1320 537 1320 669.5 1374 c 128,-1,15
 802 1428 802 1428 938.5 1428 c 128,-1,16
 1075 1428 1075 1428 1170 1409 c 128,-1,17
 1265 1390 1265 1390 1362 1353 c 1,18,-1
 1314 1215 l 1,19,20
 1217 1248 1217 1248 1147 1261.5 c 128,-1,21
 1077 1275 1077 1275 968 1275 c 128,-1,22
 859 1275 859 1275 758 1231.5 c 128,-1,23
 657 1188 657 1188 588 1113 c 0,24,25
 441 953 441 953 441 708 c 0,26,27
 441 539 441 539 511.5 408.5 c 128,-1,0
 582 278 582 278 711.5 205.5 c 128,-1,1
EndSplineSet
Layer: 3
SplineSet
957.1 1427.95 m 0
 1123.35 1427.95 1243.05 1398.5 1361.8 1352.9 c 1
 1314.3 1215.15 l 1
 1196.5 1255.05 1118.6 1275 978 1275 c 0
 654.05 1275 441.25 1030.85 441.25 707.851 c 0
 441.25 366.8 668.3 133.101 1009.35 133.101 c 0
 1134.75 133.101 1227.85 155.9 1337.1 200.55 c 1
 1380.8 64.7002 l 1
 1263 10.5498 1133.8 -20.7998 957.1 -20.7998 c 0
 525.8 -20.7998 248.399 279.4 248.399 706.9 c 0
 248.399 1124.9 537.199 1427.95 957.1 1427.95 c 0
EndSplineSet
EndChar

StartChar: S
Encoding: 83 83 55
Width: 1361
VWidth: 2097
Flags: MW
LayerCount: 4
Fore
SplineSet
593 1400.5 m 128,-1,1
 698 1434 698 1434 841.5 1434 c 128,-1,2
 985 1434 985 1434 1174 1377 c 1,3,-1
 1119 1222 l 1,4,5
 939 1274 939 1274 799 1274 c 128,-1,6
 659 1274 659 1274 556.5 1211.5 c 128,-1,7
 454 1149 454 1149 454 1050 c 0,8,9
 454 942 454 942 574 882 c 0,10,11
 683 828 683 828 796 793 c 128,-1,12
 909 758 909 758 978 724 c 128,-1,13
 1047 690 1047 690 1101 650 c 0,14,15
 1221 560 1221 560 1221 397 c 0,16,17
 1221 276 1221 276 1143 172 c 0,18,19
 1054 55 1054 55 882 7 c 0,20,21
 788 -19 788 -19 672 -19 c 128,-1,22
 556 -19 556 -19 458 5 c 128,-1,23
 360 29 360 29 240 76 c 1,24,-1
 298 241 l 1,25,26
 548 148 548 148 696.5 148 c 128,-1,27
 845 148 845 148 940.5 209 c 128,-1,28
 1036 270 1036 270 1036 372 c 0,29,30
 1036 502 1036 502 884 570 c 0,31,32
 816 600 816 600 734 626.5 c 128,-1,33
 652 653 652 653 570.5 683.5 c 128,-1,34
 489 714 489 714 421.5 754 c 128,-1,35
 354 794 354 794 311.5 862 c 128,-1,36
 269 930 269 930 269 1017 c 128,-1,37
 269 1104 269 1104 308.5 1179 c 128,-1,38
 348 1254 348 1254 418 1310.5 c 128,-1,0
 488 1367 488 1367 593 1400.5 c 128,-1,1
EndSplineSet
Layer: 3
SplineSet
821 1434 m 0
 949 1434 1078 1406 1174 1377 c 1
 1119 1222 l 1
 1074 1235 932 1274 807 1274 c 0
 614 1274 454 1184 454 1050 c 0
 454 741 1221 856 1221 397 c 0
 1221 214 1073 -19 672 -19 c 0
 503 -19 377 22 240 76 c 1
 298 241 l 1
 481 173 609 148 693 148 c 0
 893 148 1036 235 1036 372 c 0
 1036 709 269 570 269 1022 c 0
 269 1242 484 1434 821 1434 c 0
EndSplineSet
EndChar

StartChar: at
Encoding: 64 64 56
Width: 2100
VWidth: 2097
Flags: MW
LayerCount: 4
Back
SplineSet
1323 968 m 5
 1436 968 l 5
 1433 252 l 6
 1432.89 225.841 1432.64 199.633 1434.97 173.578 c 4
 1437.3 147.523 1442.41 121.454 1453.25 97.6478 c 4
 1464.09 73.8416 1480.98 52.4728 1503.04 38.4005 c 4
 1525.09 24.3282 1552 18.0909 1578 21 c 4
 1613.21 24.9401 1645.05 44.8451 1670 70 c 4
 1697.02 97.2374 1717.65 130.296 1734 165 c 4
 1787.85 279.296 1796.55 409.662 1795 536 c 4
 1793.94 622.919 1786.41 710.206 1764.92 794.433 c 4
 1743.42 878.659 1706.15 959.642 1650 1026 c 4
 1599.78 1085.35 1535.42 1132.07 1465 1165 c 4
 1354.14 1216.84 1230.38 1237.12 1108 1238 c 4
 963.523 1239.03 816.049 1211.07 692 1137 c 4
 570.518 1064.46 478.148 948.301 423 818 c 4
 372.114 697.77 348.77 566.555 349 436 c 4
 349.281 276.49 388.237 113.764 481 -16 c 4
 542.166 -101.563 625.47 -170.886 720 -217 c 4
 850.366 -280.596 1001.59 -300.57 1144 -273 c 4
 1201.08 -261.949 1256.71 -243.413 1309 -218 c 5
 1372 -337 l 5
 1318.66 -364.593 1262.17 -386.075 1204 -401 c 4
 1030.79 -445.439 844.519 -431.805 676 -372 c 4
 542.161 -324.502 417.906 -244.088 332 -131 c 4
 276.339 -57.7274 237.602 27.6762 214.202 116.668 c 4
 190.803 205.659 181.74 297.987 181 390 c 4
 179.705 551.024 201.265 713.677 259 864 c 4
 326.913 1040.82 454.996 1195.62 622 1285 c 4
 780.022 1369.57 962.77 1399.23 1142 1399 c 4
 1266.78 1398.84 1392.72 1383.85 1510 1341.23 c 4
 1627.28 1298.61 1734.29 1224.95 1809 1125 c 4
 1870.9 1042.2 1909.99 943.961 1932.41 843.042 c 4
 1954.82 742.122 1962.73 638.378 1963 535 c 4
 1963.22 451.757 1958.18 368.186 1941.59 286.611 c 4
 1925.01 205.037 1895.86 125.108 1848 57 c 4
 1815.06 10.1262 1773.37 -30.8449 1724.67 -61.0268 c 4
 1675.98 -91.2088 1620.19 -110.568 1563 -114 c 4
 1521.39 -116.497 1479.1 -110.409 1440.49 -94.6856 c 4
 1401.88 -78.9624 1367.23 -53.4626 1341.15 -20.9391 c 4
 1315.07 11.5844 1297.89 50.7815 1289.1 91.5324 c 4
 1280.31 132.283 1279.87 174.312 1280 216 c 6
 1282 849 l 5
 1323 968 l 5
  Spiro
    1323 968 v
    1436 968 v
    1433 252 ]
    1578 21 o
    1670 70 o
    1734 165 o
    1795 536 o
    1650 1026 o
    1465 1165 o
    1108 1238 o
    692 1137 o
    423 818 o
    349 436 o
    481 -16 o
    720 -217 o
    1144 -273 o
    1309 -218 v
    1372 -337 v
    1204 -401 o
    676 -372 o
    332 -131 o
    181 390 o
    259 864 o
    622 1285 o
    1142 1399 o
    1809 1125 o
    1963 535 o
    1848 57 o
    1563 -114 o
    1280 216 [
    1282 849 v
    0 0 z
  EndSpiro
1106 960 m 4
 1159.57 954.398 1212.2 940.537 1262 920 c 4
 1290.69 908.166 1318.47 894.103 1345 878 c 5
 1293 789 l 5
 1263.03 802.935 1231.9 814.371 1200 823 c 4
 1139.55 839.353 1075.69 845.78 1014 835 c 4
 972.253 827.705 931.81 812.303 896.499 788.869 c 4
 861.188 765.434 831.273 734.055 809 698 c 4
 768.559 632.533 753.258 553.95 753 477 c 4
 752.753 403.241 766.394 328.035 803 264 c 4
 831.835 213.559 875.329 171.566 927 145 c 4
 982.634 116.396 1046.61 105.497 1109 110 c 4
 1204.39 116.884 1296.4 158.487 1367 223 c 5
 1403 134 l 5
 1309 44.6641 1183.5 -12.2341 1054 -19 c 4
 984.663 -22.6226 914.23 -11.538 850.6 16.2467 c 4
 786.969 44.0314 730.847 88.8542 690 145 c 4
 625.29 233.947 600.146 347.008 601 457 c 4
 601.488 519.917 610.141 582.92 628.606 643.069 c 4
 647.071 703.217 675.932 760.489 716 809 c 4
 759.884 862.131 817.152 904.073 881 930 c 4
 951.812 958.755 1029.99 967.948 1106 960 c 4
  Spiro
    1106 960 o
    1262 920 o
    1345 878 v
    1293 789 v
    1200 823 o
    1014 835 o
    809 698 o
    753 477 o
    803 264 o
    927 145 o
    1109 110 o
    1367 223 v
    1403 134 v
    1054 -19 o
    690 145 o
    601 457 o
    716 809 o
    881 930 o
    0 0 z
  EndSpiro
EndSplineSet
Fore
SplineSet
1331 111 m 1,0,1
 1215 -22 1215 -22 1036 -22 c 0,2,3
 904 -22 904 -22 806 40 c 0,4,5
 608 165 608 165 608 459 c 0,6,7
 608 709 608 709 750 848 c 0,8,9
 886 983 886 983 1090 983 c 0,10,11
 1204 983 1204 983 1335 932 c 1,12,-1
 1352 972 l 1,13,-1
 1459 972 l 1,14,-1
 1459 299 l 2,15,16
 1459 163 1459 163 1526 129 c 0,17,18
 1553 115 1553 115 1593 115 c 128,-1,19
 1633 115 1633 115 1670.5 142 c 128,-1,20
 1708 169 1708 169 1738 224 c 0,21,22
 1804 341 1804 341 1804 580 c 0,23,24
 1804 803 1804 803 1704 968 c 0,25,26
 1527 1262 1527 1262 1106 1262 c 0,27,28
 938 1262 938 1262 794 1205.5 c 128,-1,29
 650 1149 650 1149 549 1047.5 c 128,-1,30
 448 946 448 946 391 801 c 128,-1,31
 334 656 334 656 334 498.5 c 128,-1,32
 334 341 334 341 372 217.5 c 128,-1,33
 410 94 410 94 478.5 3.5 c 128,-1,34
 547 -87 547 -87 643.5 -149.5 c 128,-1,35
 740 -212 740 -212 854 -240 c 0,36,37
 1094 -298 1094 -298 1372 -209 c 1,38,-1
 1372 -347 l 1,39,40
 1036 -451 1036 -451 754 -374 c 0,41,42
 480 -299 480 -299 321 -76 c 0,43,44
 157 153 157 153 157 484 c 0,45,46
 157 686 157 686 229 857.5 c 128,-1,47
 301 1029 301 1029 427 1148 c 128,-1,48
 553 1267 553 1267 728 1334 c 128,-1,49
 903 1401 903 1401 1070.5 1401 c 128,-1,50
 1238 1401 1238 1401 1353 1377 c 128,-1,51
 1468 1353 1468 1353 1555 1310 c 128,-1,52
 1642 1267 1642 1267 1713 1206.5 c 128,-1,53
 1784 1146 1784 1146 1832 1075 c 128,-1,54
 1880 1004 1880 1004 1912 922 c 0,55,56
 1974 766 1974 766 1974 617 c 128,-1,57
 1974 468 1974 468 1950.5 368.5 c 128,-1,58
 1927 269 1927 269 1887 198 c 128,-1,59
 1847 127 1847 127 1794 77 c 0,60,61
 1691 -22 1691 -22 1567 -22 c 0,62,63
 1398 -22 1398 -22 1331 111 c 1,0,1
1302 227 m 1,64,65
 1301 239 1301 239 1301 252 c 2,66,-1
 1301 819 l 1,67,68
 1206 855 1206 855 1108 854 c 0,69,70
 959 854 959 854 873.5 750 c 128,-1,71
 788 646 788 646 788 475.5 c 128,-1,72
 788 305 788 305 862.5 211.5 c 128,-1,73
 937 118 937 118 1073 118 c 0,74,75
 1161 118 1161 118 1218 154 c 128,-1,76
 1275 190 1275 190 1302 227 c 1,64,65
EndSplineSet
Layer: 3
SplineSet
1335.84 804.444 m 1
 1255.94 840.164 1190.14 854.265 1108.36 854.265 c 0
 907.205 854.265 787.825 700.104 787.825 473.564 c 0
 787.825 249.845 891.225 118.244 1072.64 118.244 c 0
 1202.36 118.244 1286.96 194.384 1315.17 248.904 c 1
 1362.17 152.084 l 1
 1311.4 75.9443 1208.94 -21.8154 1035.98 -21.8154 c 0
 766.205 -21.8154 608.284 178.404 608.284 458.524 c 0
 608.284 796.924 826.364 983.044 1090.5 983.044 c 0
 1177.92 983.044 1260.64 962.364 1349 925.704 c 1
 1335.84 804.444 l 1
1301.06 853.324 m 1
 1351.83 971.765 l 1
 1458.98 971.765 l 1
 1458.98 298.725 l 2
 1458.98 194.384 1485.3 115.424 1590.58 115.424 c 0
 1700.56 115.424 1803.96 250.784 1803.96 579.784 c 0
 1803.96 923.824 1613.14 1262.22 1105.54 1262.22 c 0
 651.524 1262.22 333.805 947.324 333.805 484.844 c 0
 333.805 -102.655 813.205 -389.355 1371.56 -208.876 c 1
 1371.56 -347.056 l 1
 691.944 -556.676 157.085 -186.315 157.085 483.904 c 0
 157.085 1030.98 561.284 1401.34 1105.54 1401.34 c 0
 1739.1 1401.34 1974.1 986.805 1974.1 584.484 c 0
 1974.1 184.984 1761.67 -21.8154 1567.08 -21.8154 c 0
 1395.06 -21.8154 1301.06 92.8643 1301.06 251.725 c 2
 1301.06 853.324 l 1
EndSplineSet
EndChar

StartChar: question
Encoding: 63 63 57
Width: 1046
VWidth: 2097
Flags: MW
LayerCount: 4
Fore
SplineSet
311 200 m 1,0,-1
 511 200 l 1,1,-1
 511 0 l 1,2,-1
 311 0 l 1,3,-1
 311 200 l 1,0,-1
366 1294 m 0,4,5
 260 1294 260 1294 152 1247 c 1,6,-1
 100 1369 l 1,7,8
 239 1437 239 1437 438 1437 c 128,-1,9
 637 1437 637 1437 756.5 1351.5 c 128,-1,10
 876 1266 876 1266 876 1097 c 0,11,12
 876 940 876 940 800 844 c 0,13,14
 766 802 766 802 726 764 c 2,15,-1
 646 694 l 1,16,17
 549 612 549 612 522.5 538.5 c 128,-1,18
 496 465 496 465 496 392 c 1,19,-1
 326 392 l 1,20,21
 326 561 326 561 402 664 c 0,22,23
 457 739 457 739 529 796 c 0,24,25
 601 852 601 852 635 886 c 0,26,27
 711 961 711 961 711 1069 c 0,28,29
 711 1294 711 1294 366 1294 c 0,4,5
EndSplineSet
Layer: 3
SplineSet
423 1437 m 0
 701 1437 876 1327 876 1097 c 0
 876 693 496 754 496 392 c 1
 326 392 l 1
 326 817 711 790 711 1069 c 0
 711 1155 660 1294 396 1294 c 0
 320 1294 214 1274 152 1247 c 1
 100 1369 l 1
 200 1418 313 1437 423 1437 c 0
311 200 m 1
 511 200 l 1
 511 0 l 1
 311 0 l 1
 311 200 l 1
EndSplineSet
EndChar

StartChar: eight
Encoding: 56 56 58
Width: 1300
VWidth: 2097
Flags: MW
LayerCount: 4
Fore
SplineSet
773.5 1273.5 m 128,-1,1
 715 1297 715 1297 627.5 1297 c 128,-1,2
 540 1297 540 1297 468.5 1237.5 c 128,-1,3
 397 1178 397 1178 397 1097 c 0,4,5
 397 960 397 960 600 885 c 0,6,7
 631 874 631 874 673 860 c 2,8,-1
 698 852 l 1,9,10
 831 935 831 935 868 984 c 0,11,12
 906 1034 906 1034 906 1094 c 128,-1,13
 906 1154 906 1154 869 1202 c 128,-1,0
 832 1250 832 1250 773.5 1273.5 c 128,-1,1
889 207 m 128,-1,15
 975 284 975 284 975 397 c 0,16,17
 975 597 975 597 724 692 c 0,18,19
 678 710 678 710 620 726 c 1,20,21
 482 686 482 686 403 595.5 c 128,-1,22
 324 505 324 505 324 405 c 0,23,24
 324 294 324 294 415 213 c 0,25,26
 509 129 509 129 656 129.5 c 128,-1,14
 803 130 803 130 889 207 c 128,-1,15
961 1348.5 m 128,-1,28
 1070 1257 1070 1257 1070 1093 c 0,29,30
 1070 1006 1070 1006 1021 936 c 128,-1,31
 972 866 972 866 869 792 c 1,32,33
 1012 728 1012 728 1081 628.5 c 128,-1,34
 1150 529 1150 529 1150 409 c 0,35,36
 1150 275 1150 275 1067 166 c 0,37,38
 925 -20 925 -20 655 -20 c 0,39,40
 517 -20 517 -20 401.5 31.5 c 128,-1,41
 286 83 286 83 218 177.5 c 128,-1,42
 150 272 150 272 150 391 c 128,-1,43
 150 510 150 510 228 620 c 128,-1,44
 306 730 306 730 434 791 c 1,45,46
 274 871 274 871 238 1028 c 0,47,48
 230 1064 230 1064 230 1115.5 c 128,-1,49
 230 1167 230 1167 258.5 1229 c 128,-1,50
 287 1291 287 1291 339 1338 c 0,51,52
 452 1440 452 1440 652 1440 c 128,-1,27
 852 1440 852 1440 961 1348.5 c 128,-1,28
EndSplineSet
Layer: 3
SplineSet
642.978 1440.04 m 0
 926.362 1440.04 1070.02 1308 1070.02 1093.24 c 0
 1070.02 972.891 1000.33 886.227 869.423 792.362 c 1
 1067.53 703.182 1150.08 562.406 1150.08 409.101 c 0
 1150.08 196.838 974.445 -20.0118 654.929 -20.0118 c 0
 377.17 -20.0118 149.713 149.54 149.713 389.655 c 0
 149.713 550.171 263.372 709.529 434.335 790.944 c 1
 262.429 877.635 229.805 1019.54 229.805 1097.99 c 0
 229.805 1282.89 384.92 1440.04 642.978 1440.04 c 0
662.535 129.797 m 0
 854.846 129.797 975.069 251.337 975.069 396.539 c 0
 975.069 594.747 794.33 677.057 619.616 725.849 c 1
 429.081 669.959 324.008 533.329 324.008 404.982 c 0
 324.008 261.214 454.06 129.797 662.535 129.797 c 0
643.015 1297.06 m 0
 503.466 1297.06 396.991 1202.62 396.991 1097.32 c 0
 396.991 954.927 560.746 895.385 673.008 860 c 2
 697.561 852.324 l 1
 817.22 927.058 905.635 988.178 905.635 1088.37 c 0
 905.635 1224 783.492 1297.06 643.015 1297.06 c 0
EndSplineSet
EndChar

StartChar: nine
Encoding: 57 57 59
Width: 1300
VWidth: 2097
Flags: MW
LayerCount: 4
Fore
SplineSet
941.5 1350.5 m 128,-1,1
 1049 1260 1049 1260 1087.5 1140 c 128,-1,2
 1126 1020 1126 1020 1129.5 846 c 128,-1,3
 1133 672 1133 672 1090.5 492.5 c 128,-1,4
 1048 313 1048 313 938 195 c 0,5,6
 735 -24 735 -24 358 -15 c 0,7,8
 311 -14 311 -14 268 -9 c 1,9,-1
 280 139 l 1,10,11
 654 101 654 101 816 290 c 0,12,13
 894 381 894 381 921 536 c 0,14,15
 928 578 928 578 937 655 c 1,16,17
 881 594 881 594 796 558.5 c 128,-1,18
 711 523 711 523 612 524 c 0,19,20
 404 527 404 527 277 670 c 0,21,22
 163 798 163 798 172 981 c 0,23,24
 177 1077 177 1077 219 1165.5 c 128,-1,25
 261 1254 261 1254 330 1315 c 0,26,27
 473 1441 473 1441 653.5 1441 c 128,-1,0
 834 1441 834 1441 941.5 1350.5 c 128,-1,1
772 1268 m 0,28,29
 649 1333 649 1333 526 1273 c 0,30,31
 472 1247 472 1247 428 1200 c 0,32,33
 343 1109 343 1109 336 992 c 128,-1,34
 329 875 329 875 406 781 c 0,35,36
 500 668 500 668 639 664 c 128,-1,37
 778 660 778 660 873 752 c 0,38,39
 966 843 966 843 962 965 c 128,-1,40
 958 1087 958 1087 875 1185 c 0,41,42
 829 1238 829 1238 772 1268 c 0,28,29
EndSplineSet
Layer: 3
SplineSet
645 1301 m 0
 603.944 1301.13 563.035 1291.2 526.057 1273.36 c 0
 489.079 1255.52 455.942 1230.08 428 1200 c 0
 375.597 1143.59 340.784 1069.85 336 993 c 0
 331.264 916.926 357.426 839.739 406 781 c 0
 464.046 710.807 552.965 667.004 644 664 c 0
 727.979 661.229 812.833 693.348 873 752 c 0
 931.09 808.627 964.489 889.914 962 971 c 0
 959.593 1049.43 925.929 1125.3 875 1185 c 0
 846.248 1218.7 811.682 1247.68 772.488 1268.33 c 0
 733.294 1288.98 689.3 1300.86 645 1301 c 0
663 1441 m 0
 767.417 1441.55 873.105 1408.23 953 1341 c 0
 1019.32 1285.19 1065.68 1207.99 1092.21 1125.48 c 0
 1118.73 1042.96 1127.41 955.66 1129 869 c 0
 1131.21 748.436 1121.91 627.161 1094.23 509.798 c 0
 1066.54 392.435 1015.82 278.578 934 190 c 0
 862.654 112.762 769.503 57.0177 669.411 24.8054 c 0
 569.319 -7.40686 463.105 -17.9812 358 -15 c 0
 327.938 -14.1473 297.91 -12.139 268 -9 c 1
 280 139 l 1
 343.765 132.495 408.144 131.455 472 137 c 0
 536.167 142.572 600.162 154.999 659.754 179.437 c 0
 719.346 203.875 774.017 241.155 816 290 c 0
 874.906 358.535 905.667 447.146 921.303 536.154 c 0
 936.939 625.163 941.899 715.735 956 805 c 0
 957.582 815.014 959.248 825.014 961 835 c 1
 1031 852 l 1
 1022.34 787.109 995.226 724.856 954 674 c 0
 913.245 623.725 859.124 584.798 799.453 559.742 c 0
 739.781 534.686 674.712 523.062 610 524 c 0
 547.627 524.904 485.317 537.482 427.958 562.001 c 0
 370.599 586.519 318.355 623.299 277 670 c 0
 202.61 754.005 166.521 868.925 172 981 c 0
 178.22 1108.23 236.647 1232.53 332 1317 c 0
 422.108 1396.82 542.622 1440.37 663 1441 c 0
EndSplineSet
EndChar

StartChar: six
Encoding: 54 54 60
Width: 1300
VWidth: 2097
Flags: MW
LayerCount: 4
Fore
SplineSet
169 547 m 0,0,1
 158 1240 158 1240 629 1391 c 0,2,3
 813 1450 813 1450 1030 1425 c 1,4,-1
 1018 1277 l 1,5,6
 799 1302 799 1302 639 1235 c 0,7,8
 429 1148 429 1148 373 901 c 0,9,10
 364 860 364 860 355 795 c 1,11,12
 413 860 413 860 500 896.5 c 128,-1,13
 587 933 587 933 686 932 c 0,14,15
 895 930 895 930 1021 786 c 0,16,17
 1136 654 1136 654 1126 455 c 0,18,19
 1121 352 1121 352 1079.5 258.5 c 128,-1,20
 1038 165 1038 165 969 102 c 0,21,22
 830 -25 830 -25 647.5 -25 c 128,-1,23
 465 -25 465 -25 357 65.5 c 128,-1,24
 249 156 249 156 210 276 c 128,-1,25
 171 396 171 396 169 547 c 0,0,1
786 759 m 0,26,27
 660 821 660 821 530 771 c 0,28,29
 470 748 470 748 425 704 c 0,30,31
 332 610 332 610 336 471 c 128,-1,32
 340 332 340 332 423 231 c 0,33,34
 518 116 518 116 653 115 c 0,35,36
 779 114 779 114 866.5 212.5 c 128,-1,37
 954 311 954 311 962 444 c 128,-1,38
 970 577 970 577 892 675 c 0,39,40
 849 728 849 728 786 759 c 0,26,27
EndSplineSet
Layer: 3
SplineSet
654 792 m 0
 569.916 794.795 484.298 763.679 425 704 c 0
 363.385 641.99 333.321 552.375 336 465 c 0
 338.596 380.344 369.326 296.516 423 231 c 0
 451.116 196.681 485.733 167.493 525.11 147.053 c 0
 564.487 126.613 608.634 115.178 653 115 c 0
 694.122 114.835 735.185 124.325 772.321 141.987 c 0
 809.458 159.649 842.633 185.306 870 216 c 0
 925.347 278.075 957.158 359.975 962 443 c 0
 966.81 525.479 943.605 610.48 892 675 c 0
 835.03 746.228 745.158 788.97 654 792 c 0
364 1226 m 0
 435.28 1303.31 528.44 1359.09 628.548 1391.28 c 0
 728.656 1423.47 834.885 1433.99 940 1431 c 0
 970.062 1430.14 1000.09 1428.14 1030 1425 c 1
 1018 1277 l 1
 954.273 1284.01 889.831 1285 826 1279 c 0
 762.012 1272.99 698.343 1259.79 638.983 1235.15 c 0
 579.623 1210.52 524.997 1173.77 482 1126 c 0
 425.676 1063.43 391.307 983.549 372.614 901.462 c 0
 353.921 819.374 348.181 734.961 342 651 c 0
 340.283 627.67 338.624 604.336 337 581 c 1
 267 604 l 1
 275.53 668.921 302.672 731.211 344 782 c 0
 384.825 832.171 439.028 870.908 498.687 895.9 c 0
 558.346 920.892 623.321 932.629 688 932 c 0
 750.454 931.392 812.942 919.209 870.413 894.755 c 0
 927.883 870.302 980.084 833.188 1021 786 c 0
 1098.72 696.371 1131.91 573.484 1126 455 c 0
 1119.36 321.707 1064.64 188.895 966 99 c 0
 876.909 17.8082 755.538 -25.0281 635 -25 c 0
 530.641 -24.9757 425.078 8.08025 345 75 c 0
 278.458 130.608 231.867 207.773 205.362 290.342 c 0
 178.858 372.911 170.395 460.293 169 547 c 0
 167.06 667.542 176.492 788.76 204.123 906.108 c 0
 231.754 1023.46 282.281 1137.36 364 1226 c 0
EndSplineSet
EndChar

StartChar: seven
Encoding: 55 55 61
Width: 1300
VWidth: 0
Flags: MW
LayerCount: 4
Fore
SplineSet
1169 1421 m 1,0,-1
 1169 1314 l 1,1,-1
 506 0 l 1,2,-1
 308 0 l 1,3,-1
 960 1261 l 1,4,-1
 131 1261 l 1,5,-1
 131 1421 l 1,6,-1
 1169 1421 l 1,0,-1
EndSplineSet
Layer: 3
SplineSet
1169 1421 m 1
 1169 1314 l 1
 505.999 0 l 1
 307.999 0 l 1
 1025 1386 l 1
 1071 1261 l 1
 130.999 1261 l 1
 130.999 1421 l 1
 1169 1421 l 1
EndSplineSet
EndChar

StartChar: five
Encoding: 53 53 62
Width: 1300
VWidth: 2097
Flags: MW
LayerCount: 4
Fore
SplineSet
235 1421 m 1,0,-1
 1091 1421 l 1,1,-1
 1091 1271 l 1,2,-1
 398 1271 l 1,3,-1
 399 883 l 1,4,5
 620 908 620 908 750 884 c 0,6,7
 1004 838 1004 838 1096 643 c 0,8,9
 1140 548 1140 548 1137 446 c 0,10,11
 1130 234 1130 234 977 106 c 0,12,13
 883 28 883 28 761 2 c 0,14,15
 513 -50 513 -50 173 15 c 1,16,-1
 205 166 l 1,17,18
 327 140 327 140 454 135.5 c 128,-1,19
 581 131 581 131 673 145.5 c 128,-1,20
 765 160 765 160 834 208 c 128,-1,21
 903 256 903 256 935.5 326 c 128,-1,22
 968 396 968 396 955.5 484 c 128,-1,23
 943 572 943 572 870.5 638.5 c 128,-1,24
 798 705 798 705 701.5 727 c 128,-1,25
 605 749 605 749 488 742.5 c 128,-1,26
 371 736 371 736 235 720 c 1,27,-1
 235 1421 l 1,0,-1
EndSplineSet
Layer: 3
SplineSet
234.988 1421 m 1
 1090.98 1421 l 1
 1090.98 1271 l 1
 397.988 1271 l 1
 398.988 883 l 1
 447.503 888.446 496.212 892.224 545 894 c 0
 617.602 896.643 690.72 895.106 762.215 882.202 c 0
 833.711 869.298 903.668 843.947 962.985 802 c 0
 1020.09 761.616 1066.39 706.165 1096.08 642.837 c 0
 1125.77 579.51 1139.24 508.906 1136.98 439 c 0
 1132.89 312.155 1074.56 187.146 976.985 106 c 0
 910.829 50.9853 829.088 16.7696 744.887 -0.934652 c 0
 660.686 -18.639 573.995 -21.4775 487.988 -19 c 0
 411.968 -16.8102 336.07 -10.3026 260.779 0.423854 c 0
 231.409 4.60812 202.134 9.46568 172.988 15 c 1
 204.988 166 l 1
 230.803 160.547 256.778 155.853 282.866 151.904 c 0
 344.164 142.625 406.035 137.309 467.988 135 c 0
 531.828 132.62 596.067 133.173 659.177 143.088 c 0
 722.287 153.003 784.674 173.329 836.985 210 c 0
 878.675 239.225 913.37 278.826 934.804 325.007 c 0
 956.238 371.189 964.113 423.588 956.985 474 c 0
 947.859 538.542 914.116 598.719 866.025 642.721 c 0
 817.933 686.723 756.585 714.651 693 729 c 0
 618.193 745.882 540.565 745.342 464 741 c 0
 387.456 736.659 311.15 728.791 234.988 720 c 1
 234.988 1421 l 1
EndSplineSet
EndChar

StartChar: two
Encoding: 50 50 63
Width: 1300
VWidth: 0
Flags: MW
LayerCount: 4
Fore
SplineSet
198 1319 m 1,0,1
 419 1429 419 1429 634 1431 c 0,2,3
 870 1434 870 1434 1004 1302 c 0,4,5
 1122 1186 1122 1186 1104 1028 c 0,6,7
 1092 928 1092 928 1031.5 849 c 128,-1,8
 971 770 971 770 854 673 c 128,-1,9
 737 576 737 576 717 558 c 0,10,11
 582 437 582 437 521 335.5 c 128,-1,12
 460 234 460 234 432 150 c 1,13,-1
 1132 150 l 1,14,-1
 1132 0 l 1,15,-1
 225 0 l 1,16,-1
 225 93 l 1,17,18
 293 306 293 306 441 489 c 0,19,20
 523 590 523 590 598.5 657.5 c 0,21,22
 674 724 674 724 731 770 c 2,23,-1
 816 840 l 1,24,25
 905 916 905 916 921 980 c 0,26,27
 952 1100 952 1100 857 1191 c 0,28,29
 755 1289 755 1289 596 1284 c 0,30,31
 520 1282 520 1282 399 1244 c 1,32,-1
 237 1192 l 1,33,-1
 198 1319 l 1,0,1
EndSplineSet
Layer: 3
SplineSet
634 1431 m 0
 701.023 1431.72 768.464 1423.65 832.251 1403.06 c 0
 896.039 1382.48 956.177 1348.96 1004 1302 c 0
 1039.94 1266.71 1068.66 1223.87 1086.2 1176.65 c 0
 1103.74 1129.43 1109.84 1078.03 1104 1028 c 0
 1095.72 957.02 1063.48 890.291 1019.82 833.72 c 0
 976.157 777.149 921.96 729.675 867 684 c 0
 816.775 642.26 765.623 601.595 717 558 c 0
 636.417 485.75 562.764 404.758 507 312 c 0
 457.598 229.824 422.275 139.126 404 45 c 1
 379 150 l 1
 1132 150 l 1
 1132 0 l 1
 225 0 l 1
 225 93 l 1
 271.069 237.051 345.862 371.434 441 489 c 0
 501.572 563.851 569.82 632.27 642 696 c 0
 698.442 745.834 758.94 790.875 816 840 c 0
 839.552 860.277 862.255 881.775 881.258 906.367 c 0
 900.261 930.959 915.349 958.878 923 989 c 0
 932.151 1025.03 930.157 1063.7 917.912 1098.8 c 0
 905.667 1133.9 883.802 1165.24 857 1191 c 0
 822.815 1223.86 780.787 1248.14 735.972 1263.63 c 0
 691.157 1279.11 643.389 1285.54 596 1284 c 0
 528.781 1281.82 463.101 1264.02 398.827 1244.22 c 0
 344.657 1227.53 290.878 1209.61 237 1192 c 1
 198 1319 l 1
 241.696 1340.7 286.777 1359.62 332.894 1375.54 c 0
 429.773 1408.99 531.516 1429.89 634 1431 c 0
EndSplineSet
EndChar

StartChar: three
Encoding: 51 51 64
Width: 1300
VWidth: 2097
Flags: MW
LayerCount: 4
Fore
SplineSet
1036 1101 m 0,0,1
 1036 990 1036 990 976.5 903 c 128,-1,2
 917 816 917 816 818 778 c 1,3,4
 963 739 963 739 1030.5 649.5 c 128,-1,5
 1098 560 1098 560 1098 436 c 0,6,7
 1098 222 1098 222 942.5 89 c 128,-1,8
 787 -44 787 -44 547 -45 c 1,9,-1
 543 -45 l 2,10,11
 362 -45 362 -45 176 32 c 1,12,-1
 224 170 l 1,13,14
 432 113 432 113 568.5 113 c 128,-1,15
 705 113 705 113 815 193 c 128,-1,16
 925 273 925 273 925 399 c 0,17,18
 926 532 926 532 794 616 c 0,19,20
 688 684 688 684 492 684 c 2,21,-1
 472 684 l 1,22,-1
 472 830 l 1,23,24
 724 838 724 838 816 949 c 0,25,26
 864 1007 864 1007 864 1084 c 128,-1,27
 864 1161 864 1161 788 1222.5 c 128,-1,28
 712 1284 712 1284 576 1284 c 128,-1,29
 440 1284 440 1284 260 1201 c 1,30,-1
 205 1336 l 1,31,32
 411 1438 411 1438 602 1438 c 128,-1,33
 793 1438 793 1438 914.5 1342 c 128,-1,34
 1036 1246 1036 1246 1036 1101 c 0,0,1
EndSplineSet
Layer: 3
SplineSet
1036 1101 m 4
 1036 951 948 828 818 778 c 5
 1020 724 1098 591 1098 436 c 4
 1098 147 864 -44 547 -45 c 5
 543 -45 l 6
 433 -45 304 -21 176 32 c 5
 224 170 l 5
 399 122 484 113 549 113 c 4
 752 113 925 227 925 399 c 4
 925 513 836 684 492 684 c 4
 485 684 479 684 472 684 c 5
 472 830 l 5
 785 839 864 977 864 1074 c 4
 864 1185 761 1284 586 1284 c 4
 463 1284 338 1237 260 1201 c 5
 205 1336 l 5
 296 1381 446 1438 607 1438 c 4
 855 1438 1036 1294 1036 1101 c 4
EndSplineSet
EndChar

StartChar: one
Encoding: 49 49 65
Width: 1300
VWidth: 0
Flags: MW
LayerCount: 4
Fore
SplineSet
594 1421 m 1,0,-1
 790 1421 l 1,1,-1
 790 149 l 1,2,-1
 1120 149 l 1,3,-1
 1120 0 l 1,4,-1
 292 0 l 1,5,-1
 292 149 l 1,6,-1
 626 149 l 1,7,-1
 626 1257 l 1,8,-1
 314 1134 l 1,9,-1
 250 1281 l 1,10,-1
 594 1421 l 1,0,-1
EndSplineSet
Layer: 3
SplineSet
292 149 m 1
 1120 149 l 1
 1120 0 l 1
 292 0 l 1
 292 149 l 1
594 1421 m 1
 790 1421 l 1
 790 0 l 1
 626 0 l 1
 626 1324 l 1
 694 1284 l 1
 314 1134 l 1
 250 1281 l 1
 594 1421 l 1
EndSplineSet
EndChar

StartChar: zero
Encoding: 48 48 66
Width: 1300
VWidth: 2097
Flags: MW
LayerCount: 4
Fore
SplineSet
828 1227 m 0,0,1
 747 1289 747 1289 654 1287 c 0,2,3
 476 1285 476 1285 373 1122 c 0,4,5
 273 965 273 965 279 711 c 0,6,7
 288 316 288 316 490 180 c 0,8,9
 565 130 565 130 654.5 130 c 128,-1,10
 744 130 744 130 818 184 c 0,11,12
 1015 327 1015 327 1020.5 702 c 128,-1,13
 1026 1077 1026 1077 828 1227 c 0,0,1
111 702 m 0,14,15
 105 1057 105 1057 259 1246 c 0,16,17
 422 1447 422 1447 665 1440 c 0,18,19
 782 1437 782 1437 886 1379 c 0,20,21
 1198 1205 1198 1205 1189 702 c 0,22,23
 1183 358 1183 358 1030 167 c 0,24,25
 958 78 958 78 859 28.5 c 128,-1,26
 760 -21 760 -21 648 -20 c 128,-1,27
 536 -19 536 -19 436 32 c 0,28,29
 221 144 221 144 147 426 c 0,30,31
 114 551 114 551 111 702 c 0,14,15
EndSplineSet
Layer: 3
SplineSet
663.011 1440 m 0
 741.222 1437.69 818.738 1416.04 887.023 1377.84 c 0
 955.308 1339.63 1014.05 1285.04 1059.01 1221 c 0
 1111.09 1146.81 1144.64 1060.68 1164.24 972.182 c 0
 1183.83 883.685 1190.47 792.629 1189.01 702 c 0
 1187.48 607.302 1177.18 512.41 1152.95 420.853 c 0
 1128.71 329.297 1089.31 240.845 1030.01 167 c 0
 984.059 109.781 926.261 61.8351 860.532 29.1975 c 0
 794.803 -3.44003 721.395 -20.5937 648.011 -20 c 0
 574.021 -19.4014 500.32 -0.768233 434.634 33.2923 c 0
 368.947 67.3528 311.508 116.649 266.011 175 c 0
 208.744 248.448 170.488 335.496 146.734 425.551 c 0
 122.981 515.606 112.653 608.88 111.011 702 c 0
 109.292 799.463 117.039 897.496 140.247 992.171 c 0
 163.455 1086.85 203.512 1178.37 265.011 1254 c 0
 312.89 1312.88 373.554 1361.54 442.196 1393.91 c 0
 510.839 1426.27 587.155 1442.24 663.011 1440 c 0
645.011 1287 m 0
 589.719 1286.23 535.014 1268.99 488.264 1239.45 c 0
 441.515 1209.92 402.744 1168.62 373.011 1122 c 0
 333.895 1060.66 309.953 990.556 295.938 919.17 c 0
 281.923 847.784 277.369 774.73 279.011 702 c 0
 282.117 564.435 304.377 423.087 375.011 305 c 0
 404.278 256.071 442.721 212.062 490.135 180.398 c 0
 537.549 148.734 593.997 130.164 651.011 130 c 0
 712.388 129.823 773.127 151.102 822.862 187.067 c 0
 872.597 223.033 911.478 272.659 940.011 327 c 0
 999.985 441.219 1019.12 573.007 1021.01 702 c 0
 1022.83 825.913 1008.19 952.593 956.011 1065 c 0
 927.612 1126.18 886.882 1182.49 833.136 1223.25 c 0
 779.391 1264 712.456 1287.94 645.011 1287 c 0
EndSplineSet
EndChar

StartChar: four
Encoding: 52 52 67
Width: 1300
VWidth: 0
Flags: MW
LayerCount: 4
Fore
SplineSet
694 1421 m 1,0,-1
 932 1421 l 1,1,-1
 932 494 l 1,2,-1
 1180 494 l 1,3,-1
 1180 344 l 1,4,-1
 932 344 l 1,5,-1
 932 0 l 1,6,-1
 768 0 l 1,7,-1
 768 344 l 1,8,-1
 120 344 l 1,9,-1
 120 456 l 1,10,-1
 694 1421 l 1,0,-1
768 494 m 1,11,-1
 768 1259 l 1,12,-1
 316 494 l 1,13,-1
 768 494 l 1,11,-1
EndSplineSet
Layer: 3
SplineSet
694 1421 m 1
 932 1421 l 1
 932 0 l 1
 768 0 l 1
 768 1259 l 1
 316 494 l 1
 1180 494 l 1
 1180 344 l 1
 120 344 l 1
 120 456 l 1
 694 1421 l 1
EndSplineSet
EndChar

StartChar: period
Encoding: 46 46 68
Width: 570
VWidth: 2097
Flags: MW
LayerCount: 4
Fore
SplineSet
180 210 m 1,0,-1
 390 210 l 1,1,-1
 390 0 l 1,2,-1
 180 0 l 1,3,-1
 180 210 l 1,0,-1
EndSplineSet
Layer: 3
SplineSet
180 210 m 1
 390 210 l 1
 390 0 l 1
 180 0 l 1
 180 210 l 1
EndSplineSet
EndChar

StartChar: comma
Encoding: 44 44 69
Width: 570
VWidth: 2097
Flags: MW
LayerCount: 4
Fore
SplineSet
200 170 m 1,0,-1
 380 170 l 1,1,-1
 222 -220 l 1,2,-1
 42 -220 l 1,3,-1
 200 170 l 1,0,-1
EndSplineSet
Layer: 3
SplineSet
200 170 m 1
 380 170 l 1
 222 -220 l 1
 42 -220 l 1
 200 170 l 1
EndSplineSet
EndChar

StartChar: bracketleft
Encoding: 91 91 70
Width: 758
VWidth: 2097
Flags: MW
LayerCount: 4
Back
SplineSet
327 1511 m 5xd0
 708 1511 l 5
 708 1362 l 5xe0
 327 1362 l 5
 327 1511 l 5xd0
327 -261 m 5xd0
 708 -261 l 5
 708 -410 l 5xe0
 327 -410 l 5
 327 -261 l 5xd0
250 1511 m 5
 414 1511 l 5
 414 -410 l 5xd0
 250 -410 l 5
 250 1511 l 5
EndSplineSet
Fore
SplineSet
708 -410 m 1,0,-1
 250 -410 l 1,1,-1
 250 1511 l 1,2,-1
 708 1511 l 1,3,-1
 708 1362 l 1,4,-1
 414 1362 l 1,5,-1
 414 -261 l 1,6,-1
 708 -261 l 1,7,-1
 708 -410 l 1,0,-1
EndSplineSet
Layer: 3
SplineSet
327 1511 m 5
 708 1511 l 5
 708 1362 l 5
 327 1362 l 5
 327 1511 l 5
327 -261 m 5
 708 -261 l 5
 708 -410 l 5
 327 -410 l 5
 327 -261 l 5
250 1511 m 5
 414 1511 l 5
 414 -410 l 5
 250 -410 l 5
 250 1511 l 5
EndSplineSet
EndChar

StartChar: bracketright
Encoding: 93 93 71
Width: 758
VWidth: 2097
Flags: MW
LayerCount: 4
Fore
SplineSet
508 -410 m 1,0,-1
 50 -410 l 1,1,-1
 50 -261 l 1,2,-1
 344 -261 l 1,3,-1
 344 1362 l 1,4,-1
 50 1362 l 1,5,-1
 50 1511 l 1,6,-1
 508 1511 l 1,7,-1
 508 -410 l 1,0,-1
EndSplineSet
Layer: 3
SplineSet
50 1511 m 5
 431 1511 l 5
 431 1362 l 5
 50 1362 l 5
 50 1511 l 5
50 -261 m 5
 431 -261 l 5
 431 -410 l 5
 50 -410 l 5
 50 -261 l 5
344 1511 m 5
 508 1511 l 5
 508 -410 l 5
 344 -410 l 5
 344 1511 l 5
EndSplineSet
EndChar

StartChar: parenleft
Encoding: 40 40 72
Width: 742
VWidth: 2097
Flags: MW
LayerCount: 4
Fore
SplineSet
530 1548 m 1,0,-1
 662 1479 l 1,1,2
 530 1260 530 1260 462 1026 c 0,3,4
 394 792 394 792 395 574 c 0,5,6
 394 356 394 356 462 124 c 0,7,8
 530 -108 530 -108 662 -324 c 1,9,-1
 533 -408 l 1,10,11
 388 -172 388 -172 304 83 c 0,12,13
 220 338 220 338 220 576 c 0,14,15
 220 814 220 814 304 1066 c 0,16,17
 388 1318 388 1318 530 1548 c 1,0,-1
EndSplineSet
Layer: 3
SplineSet
530 1548 m 1
 662 1479 l 1
 576.07 1335.25 507.75 1180.82 461 1020 c 0
 419.001 875.521 395.074 725.459 395 575 c 0
 394.926 424.53 418.73 274.41 461 130 c 0
 507.624 -29.2832 575.922 -182.101 662 -324 c 1
 533 -408 l 1
 440.476 -255.446 363.36 -93.2842 307 76 c 0
 253.432 236.898 220.078 405.419 220 575 c 0
 219.922 744.594 253.142 913.19 307 1074 c 0
 362.568 1239.92 438.59 1398.8 530 1548 c 1
EndSplineSet
EndChar

StartChar: parenright
Encoding: 41 41 73
Width: 742
VWidth: 2097
Flags: MW
LayerCount: 4
Fore
SplineSet
212 1548 m 1,0,1
 354 1318 354 1318 438 1066 c 128,-1,2
 522 814 522 814 522 576 c 128,-1,3
 522 338 522 338 437.5 83 c 128,-1,4
 353 -172 353 -172 209 -408 c 1,5,-1
 80 -324 l 1,6,7
 347 115 347 115 347 575 c 0,8,9
 347 792 347 792 279.5 1026 c 128,-1,10
 212 1260 212 1260 80 1479 c 1,11,-1
 212 1548 l 1,0,1
EndSplineSet
Layer: 3
SplineSet
212 1548 m 1
 303.41 1398.8 379.432 1239.92 435 1074 c 0
 488.858 913.19 522.078 744.594 522 575 c 0
 521.922 405.419 488.568 236.898 435 76 c 0
 378.64 -93.2842 301.524 -255.446 209 -408 c 1
 80 -324 l 1
 166.078 -182.101 234.376 -29.2832 281 130 c 0
 323.27 274.41 347.074 424.53 347 575 c 0
 346.926 725.459 322.999 875.521 281 1020 c 0
 234.25 1180.82 165.93 1335.25 80 1479 c 1
 212 1548 l 1
EndSplineSet
EndChar

StartChar: slash
Encoding: 47 47 74
Width: 726
VWidth: 2097
Flags: MW
LayerCount: 4
Fore
SplineSet
536 1421 m 1,0,-1
 706 1421 l 1,1,-1
 210 -90 l 1,2,-1
 40 -90 l 1,3,-1
 536 1421 l 1,0,-1
EndSplineSet
Layer: 3
SplineSet
536 1421 m 5
 706 1421 l 5
 210 -90 l 5
 40 -90 l 5
 536 1421 l 5
EndSplineSet
EndChar

StartChar: backslash
Encoding: 92 92 75
Width: 726
VWidth: 2097
Flags: MW
LayerCount: 4
Fore
SplineSet
20 1421 m 1,0,-1
 190 1421 l 1,1,-1
 686 -90 l 1,2,-1
 516 -90 l 1,3,-1
 20 1421 l 1,0,-1
EndSplineSet
Layer: 3
SplineSet
20 1421 m 1
 190 1421 l 1
 686 -90 l 1
 516 -90 l 1
 20 1421 l 1
EndSplineSet
EndChar

StartChar: plus
Encoding: 43 43 76
Width: 1400
VWidth: 2097
Flags: MW
LayerCount: 4
Fore
SplineSet
626 1233 m 1,0,-1
 774 1233 l 1,1,-1
 774 727 l 1,2,-1
 1275 727 l 1,3,-1
 1275 589 l 1,4,-1
 774 589 l 1,5,-1
 774 83 l 1,6,-1
 626 83 l 1,7,-1
 626 589 l 1,8,-1
 125 589 l 1,9,-1
 125 727 l 1,10,-1
 626 727 l 1,11,-1
 626 1233 l 1,0,-1
EndSplineSet
Layer: 3
SplineSet
626 1233 m 1
 774 1233 l 1
 774 83 l 1
 626 83 l 1
 626 1233 l 1
125 727 m 1
 1275 727 l 1
 1275 589 l 1
 125 589 l 1
 125 727 l 1
EndSplineSet
EndChar

StartChar: asterisk
Encoding: 42 42 77
Width: 1196
VWidth: 2097
Flags: MW
LayerCount: 4
Fore
SplineSet
513 1420 m 1,0,-1
 683 1420 l 1,1,-1
 665 1102 l 1,2,-1
 931 1277 l 1,3,-1
 1016 1129 l 1,4,-1
 731 986 l 1,5,-1
 1016 843 l 1,6,-1
 931 695 l 1,7,-1
 665 870 l 1,8,-1
 683 552 l 1,9,-1
 513 552 l 1,10,-1
 531 870 l 1,11,-1
 265 695 l 1,12,-1
 180 843 l 1,13,-1
 465 986 l 1,14,-1
 180 1129 l 1,15,-1
 265 1277 l 1,16,-1
 531 1102 l 1,17,-1
 513 1420 l 1,0,-1
EndSplineSet
Layer: 3
SplineSet
931 1277 m 1
 1016 1129 l 1
 628 934 l 1
 265 695 l 1
 180 843 l 1
 568 1038 l 1
 931 1277 l 1
180 1129 m 1
 265 1277 l 1
 628 1038 l 1
 1016 843 l 1
 931 695 l 1
 568 934 l 1
 180 1129 l 1
513 1420 m 1
 683 1420 l 1
 658 986 l 1
 683 552 l 1
 513 552 l 1
 538 986 l 1
 513 1420 l 1
EndSplineSet
EndChar

StartChar: numbersign
Encoding: 35 35 78
Width: 1402
VWidth: 2097
Flags: MW
LayerCount: 4
Fore
SplineSet
363 1421 m 1,0,-1
 523 1421 l 1,1,-1
 523 1030 l 1,2,-1
 881 1030 l 1,3,-1
 881 1421 l 1,4,-1
 1041 1421 l 1,5,-1
 1041 1030 l 1,6,-1
 1357 1030 l 1,7,-1
 1357 880 l 1,8,-1
 1041 880 l 1,9,-1
 1041 528 l 1,10,-1
 1357 528 l 1,11,-1
 1357 378 l 1,12,-1
 1041 378 l 1,13,-1
 1041 -30 l 1,14,-1
 881 -30 l 1,15,-1
 881 378 l 1,16,-1
 523 378 l 1,17,-1
 523 -30 l 1,18,-1
 363 -30 l 1,19,-1
 363 378 l 1,20,-1
 47 378 l 1,21,-1
 47 528 l 1,22,-1
 363 528 l 1,23,-1
 363 880 l 1,24,-1
 45 880 l 1,25,-1
 45 1030 l 1,26,-1
 363 1030 l 1,27,-1
 363 1421 l 1,0,-1
523 528 m 1,28,-1
 881 528 l 1,29,-1
 881 880 l 1,30,-1
 523 880 l 1,31,-1
 523 528 l 1,28,-1
EndSplineSet
Layer: 3
SplineSet
45 1030 m 25
 1357 1030 l 25
 1357 880 l 25
 45 880 l 25
 45 1030 l 25
47 528 m 25
 1357 528 l 25
 1357 378 l 25
 47 378 l 25
 47 528 l 25
881 1421 m 1
 1041 1421 l 1
 1041 -30 l 1
 881 -30 l 1
 881 1421 l 1
363 1421 m 1
 523 1421 l 1
 523 -30 l 1
 363 -30 l 1
 363 1421 l 1
EndSplineSet
EndChar

StartChar: dollar
Encoding: 36 36 79
Width: 1200
VWidth: 2097
Flags: MW
LayerCount: 4
Fore
SplineSet
673 1251 m 1,0,1
 680 1251 680 1251 694 1251 c 128,-1,2
 708 1251 708 1251 726.5 1250.5 c 128,-1,3
 745 1250 745 1250 762.5 1248 c 128,-1,4
 780 1246 780 1246 792.5 1245 c 0,5,6
 806 1244 806 1244 822 1241 c 0,7,8
 850 1236 850 1236 870 1230 c 2,9,-1
 892 1225 l 2,10,11
 908 1221 908 1221 938 1211 c 1,12,-1
 896 1086 l 1,13,14
 762 1123 762 1123 681.5 1123 c 128,-1,15
 601 1123 601 1123 555.5 1112 c 128,-1,16
 510 1101 510 1101 485.5 1084.5 c 0,17,18
 462 1068 462 1068 446 1047 c 0,19,20
 422 1014 422 1014 421.5 975 c 128,-1,21
 421 936 421 936 463.5 904 c 128,-1,22
 506 872 506 872 569.5 852 c 128,-1,23
 633 832 633 832 707 804.5 c 128,-1,24
 781 777 781 777 844.5 746.5 c 128,-1,25
 908 716 908 716 950.5 661 c 128,-1,26
 993 606 993 606 993 549.5 c 128,-1,27
 993 493 993 493 982.5 454 c 128,-1,28
 972 415 972 415 942 372 c 0,29,30
 864 258 864 258 673 232 c 1,31,-1
 673 -65 l 1,32,-1
 552 -65 l 1,33,-1
 552 225 l 1,34,35
 403 228 403 228 227 300 c 1,36,-1
 273 424 l 1,37,38
 368 384 368 384 427 369 c 128,-1,39
 486 354 486 354 557.5 354 c 128,-1,40
 629 354 629 354 684 366.5 c 128,-1,41
 739 379 739 379 776.5 416 c 128,-1,42
 814 453 814 453 814 501 c 128,-1,43
 814 549 814 549 790 575 c 128,-1,44
 766 601 766 601 726 617.5 c 128,-1,45
 686 634 686 634 635.5 651.5 c 128,-1,46
 585 669 585 669 532.5 684 c 128,-1,47
 480 699 480 699 429.5 723.5 c 128,-1,48
 379 748 379 748 339 778 c 0,49,50
 251 843 251 843 251 960 c 0,51,52
 251 1041 251 1041 294 1095.5 c 128,-1,53
 337 1150 337 1150 384 1180 c 0,54,55
 447 1221 447 1221 552 1240 c 1,56,-1
 552 1511 l 1,57,-1
 673 1511 l 1,58,-1
 673 1251 l 1,0,1
EndSplineSet
Layer: 3
SplineSet
552 291 m 21
 673 291 l 13
 673 -65 l 29
 552 -65 l 29
 552 291 l 21
552 1511 m 29
 673 1511 l 29
 673 1182 l 29
 552 1182 l 29
 552 1511 l 29
687 1251 m 4
 815 1251 867 1232 938 1211 c 5
 896 1086 l 5
 831 1104 760 1123 660 1123 c 4
 452 1123 421 1021 421 977 c 4
 421 800 993 842 993 534 c 4
 993 410 914 225 563 225 c 4
 489 225 371 241 227 300 c 5
 273 424 l 5
 399 371 464 354 550 354 c 4
 695 354 814 386 814 515 c 4
 814 704 251 629 251 960 c 4
 251 1071 342 1251 687 1251 c 4
EndSplineSet
EndChar

StartChar: semicolon
Encoding: 59 59 80
Width: 570
VWidth: 2097
Flags: MW
LayerCount: 4
Fore
SplineSet
180 993 m 1,0,-1
 390 993 l 1,1,-1
 390 783 l 1,2,-1
 180 783 l 1,3,-1
 180 993 l 1,0,-1
200 170 m 1,4,-1
 380 170 l 1,5,-1
 222 -220 l 1,6,-1
 42 -220 l 1,7,-1
 200 170 l 1,4,-1
EndSplineSet
Layer: 3
SplineSet
200 170 m 1
 380 170 l 1
 222 -220 l 1
 42 -220 l 1
 200 170 l 1
180 993 m 1
 390 993 l 1
 390 783 l 1
 180 783 l 1
 180 993 l 1
-837 840 m 0
EndSplineSet
EndChar

StartChar: colon
Encoding: 58 58 81
Width: 570
VWidth: 2097
Flags: MW
LayerCount: 4
Fore
SplineSet
180 210 m 1,0,-1
 390 210 l 1,1,-1
 390 0 l 1,2,-1
 180 0 l 1,3,-1
 180 210 l 1,0,-1
180 993 m 1,4,-1
 390 993 l 1,5,-1
 390 783 l 1,6,-1
 180 783 l 1,7,-1
 180 993 l 1,4,-1
EndSplineSet
Layer: 3
SplineSet
180 993 m 1
 390 993 l 1
 390 783 l 1
 180 783 l 1
 180 993 l 1
180 210 m 1
 390 210 l 1
 390 0 l 1
 180 0 l 1
 180 210 l 1
EndSplineSet
EndChar

StartChar: equal
Encoding: 61 61 82
Width: 1400
VWidth: 2097
Flags: MW
LayerCount: 4
Fore
SplineSet
220 954 m 1,0,-1
 1180 954 l 1,1,-1
 1180 804 l 1,2,-1
 220 804 l 1,3,-1
 220 954 l 1,0,-1
220 501 m 1,4,-1
 1180 501 l 1,5,-1
 1180 351 l 1,6,-1
 220 351 l 1,7,-1
 220 501 l 1,4,-1
EndSplineSet
Layer: 3
SplineSet
220 501 m 1
 1180 501 l 1
 1180 351 l 1
 220 351 l 1
 220 501 l 1
220 954 m 1
 1180 954 l 1
 1180 804 l 1
 220 804 l 1
 220 954 l 1
EndSplineSet
EndChar

StartChar: quotedbl
Encoding: 34 34 83
Width: 795
VWidth: 2097
Flags: MW
LayerCount: 4
Fore
SplineSet
110 1511 m 1,0,-1
 295 1511 l 1,1,-1
 295 1083 l 1,2,-1
 110 1083 l 1,3,-1
 110 1511 l 1,0,-1
500 1511 m 1,4,-1
 685 1511 l 1,5,-1
 685 1083 l 1,6,-1
 500 1083 l 1,7,-1
 500 1511 l 1,4,-1
EndSplineSet
Layer: 3
SplineSet
500 1511 m 1
 685 1511 l 1
 685 1083 l 1
 500 1083 l 1
 500 1511 l 1
110 1511 m 1
 295 1511 l 1
 295 1083 l 1
 110 1083 l 1
 110 1511 l 1
EndSplineSet
EndChar

StartChar: quotesingle
Encoding: 39 39 84
Width: 405
VWidth: 2097
Flags: MW
LayerCount: 4
Fore
SplineSet
110 1511 m 1,0,-1
 295 1511 l 1,1,-1
 295 1083 l 1,2,-1
 110 1083 l 1,3,-1
 110 1511 l 1,0,-1
EndSplineSet
Layer: 3
SplineSet
110 1511 m 5
 295 1511 l 5
 295 1083 l 5
 110 1083 l 5
 110 1511 l 5
EndSplineSet
EndChar

StartChar: underscore
Encoding: 95 95 85
Width: 1160
VWidth: 2097
Flags: MW
LayerCount: 4
Fore
SplineSet
150 150 m 1,0,-1
 1010 150 l 1,1,-1
 1010 0 l 1,2,-1
 150 0 l 1,3,-1
 150 150 l 1,0,-1
EndSplineSet
Layer: 3
SplineSet
150 150 m 1
 1010 150 l 1
 1010 0 l 1
 150 0 l 1
 150 150 l 1
EndSplineSet
EndChar

StartChar: percent
Encoding: 37 37 86
Width: 1329
VWidth: 2097
Flags: MW
LayerCount: 4
Fore
SplineSet
369.5 1261 m 128,-1,1
 349 1268 349 1268 310.5 1267.5 c 128,-1,2
 272 1267 272 1267 234 1227.5 c 128,-1,3
 196 1188 196 1188 196 1112 c 128,-1,4
 196 1036 196 1036 208.5 995 c 0,5,6
 220 954 220 954 242 934 c 0,7,8
 280 900 280 900 330 900 c 128,-1,9
 380 900 380 900 418.5 942 c 128,-1,10
 457 984 457 984 457 1063.5 c 128,-1,11
 457 1143 457 1143 444.5 1180.5 c 128,-1,12
 432 1218 432 1218 411 1236 c 128,-1,0
 390 1254 390 1254 369.5 1261 c 128,-1,1
327 1363 m 0,13,14
 490 1363 490 1363 538 1210 c 0,15,16
 554 1159 554 1159 554 1092 c 0,17,18
 554 959 554 959 489.5 882.5 c 128,-1,19
 425 806 425 806 326.5 806 c 128,-1,20
 228 806 228 806 163 873.5 c 128,-1,21
 98 941 98 941 98 1082 c 128,-1,22
 98 1223 98 1223 166 1293 c 128,-1,23
 234 1363 234 1363 327 1363 c 0,13,14
984 537 m 0,24,25
 930 536 930 536 887 491.5 c 128,-1,26
 844 447 844 447 844 371 c 128,-1,27
 844 295 844 295 858.5 252.5 c 0,28,29
 874 210 874 210 896 189 c 0,30,31
 939 149 939 149 988.5 149 c 128,-1,32
 1038 149 1038 149 1081.5 196 c 128,-1,33
 1125 243 1125 243 1125 348 c 0,34,35
 1126 492 1126 492 1030 528 c 0,36,37
 1008 536 1008 536 984 537 c 0,24,25
1223 368 m 128,-1,39
 1223 219 1223 219 1153 137.5 c 128,-1,40
 1083 56 1083 56 984.5 56 c 128,-1,41
 886 56 886 56 816.5 128 c 128,-1,42
 747 200 747 200 747 341 c 128,-1,43
 747 482 747 482 819.5 557.5 c 128,-1,44
 892 633 892 633 977 633 c 128,-1,45
 1062 633 1062 633 1142.5 575 c 128,-1,38
 1223 517 1223 517 1223 368 c 128,-1,39
1054 1421 m 1,46,-1
 1224 1421 l 1,47,-1
 255 0 l 1,48,-1
 85 0 l 1,49,-1
 1054 1421 l 1,46,-1
EndSplineSet
Layer: 3
SplineSet
1054 1421 m 1
 1224 1421 l 1
 255 0 l 1
 85 0 l 1
 1054 1421 l 1
985 633 m 0
 1069 633 1223 585 1223 351 c 0
 1223 169 1111 56 984 56 c 0
 869 56 747 132 747 352 c 0
 747 536 871 633 985 633 c 0
984 537 m 0
 925 536 844 492 844 353 c 0
 844 188 933 149 985 149 c 0
 1041 149 1125 192 1125 348 c 0
 1125 500 1038 537 984 537 c 0
327 1363 m 0
 411 1363 554 1326 554 1092 c 0
 554 910 453 806 326 806 c 0
 211 806 98 873 98 1093 c 0
 98 1277 213 1363 327 1363 c 0
326 1268 m 0
 267 1267 196 1233 196 1094 c 0
 196 929 275 900 327 900 c 0
 383 900 457 933 457 1089 c 0
 457 1241 380 1268 326 1268 c 0
EndSplineSet
EndChar

StartChar: braceright
Encoding: 125 125 87
Width: 798
VWidth: 2097
Flags: MW
LayerCount: 4
Fore
SplineSet
86 1512 m 1,0,1
 232 1502 232 1502 334 1389 c 0,2,3
 433 1279 433 1279 451 1081 c 0,4,5
 452 1065 452 1065 456 1007 c 128,-1,6
 460 949 460 949 468.5 886.5 c 128,-1,7
 477 824 477 824 510 764 c 0,8,9
 579 641 579 641 708 619 c 1,10,-1
 708 481 l 1,11,12
 579 460 579 460 512 340 c 0,13,14
 476 275 476 275 468.5 211 c 128,-1,15
 461 147 461 147 457.5 89.5 c 128,-1,16
 454 32 454 32 448 -26 c 128,-1,17
 442 -84 442 -84 414.5 -156.5 c 128,-1,18
 387 -229 387 -229 337 -285 c 0,19,20
 234 -398 234 -398 86 -411 c 1,21,-1
 56 -282 l 1,22,23
 173 -267 173 -267 242 -162 c 0,24,25
 294 -83 294 -83 305 65 c 0,26,27
 306 84 306 84 309 123 c 0,28,29
 314 203 314 203 325 275 c 128,-1,30
 336 347 336 347 376 419 c 0,31,32
 422 501 422 501 496 550 c 1,33,34
 354 643 354 643 322 847 c 0,35,36
 317 881 317 881 306.5 1031 c 128,-1,37
 296 1181 296 1181 242 1263 c 0,38,39
 173 1366 173 1366 56 1383 c 1,40,-1
 86 1512 l 1,0,1
EndSplineSet
Layer: 3
SplineSet
334 1389 m 4
 270.749 1459.3 180.293 1504.85 86 1512 c 5
 56 1383 l 5
 131.389 1372.59 200.265 1326.64 242 1263 c 4
 288.337 1192.34 301.105 1105.29 307 1021 c 4
 311.071 962.784 313.043 904.295 322.178 846.657 c 4
 331.313 789.02 347.824 732.105 376 681 c 4
 401.413 634.906 436.226 593.849 478.477 562.458 c 4
 520.728 531.068 570.221 509.457 622 500 c 5
 622 600 l 5
 570.33 590.599 520.92 569.125 478.678 537.92 c 4
 436.435 506.714 401.552 465.884 376 420 c 4
 346.368 366.79 329.463 307.229 320.356 247.009 c 4
 311.25 186.788 309.694 125.724 305 65 c 4
 298.881 -14.1543 285.27 -95.4375 242 -162 c 4
 200.494 -225.849 131.486 -271.942 56 -282 c 5
 86 -411 l 5
 180.161 -403.2 270.391 -357.864 334 -288 c 4
 370.256 -248.178 398.006 -200.895 416.855 -150.446 c 4
 435.706 -99.999 445.588 -46.582 451 7 c 4
 456.72 63.6221 457.661 120.675 464.384 177.187 c 4
 471.107 233.698 484.406 290.227 512 340 c 4
 532.207 376.45 559.932 408.87 593.636 433.387 c 4
 627.339 457.903 666.846 474.416 708 481 c 5
 708 619 l 5
 666.829 625.924 627.368 642.679 593.688 667.349 c 4
 560.007 692.02 532.279 724.507 512 761 c 4
 485.398 808.871 471.821 862.999 464.646 917.293 c 4
 457.472 971.587 456.036 1026.47 451 1081 c 4
 445.856 1136.69 436.702 1192.33 418.081 1245.07 c 4
 399.461 1297.8 371.407 1347.43 334 1389 c 4
EndSplineSet
EndChar

StartChar: asciitilde
Encoding: 126 126 88
Width: 1400
VWidth: 2097
Flags: MW
LayerCount: 4
Fore
SplineSet
976 1543 m 1,0,-1
 1084 1526 l 1,1,-1
 1067 1441 l 2,2,3
 1048 1346 1048 1346 1020 1310 c 0,4,5
 936 1202 936 1202 804 1255 c 0,6,7
 750 1278 750 1278 702 1322 c 1,8,-1
 668 1354 l 2,9,10
 649 1373 649 1373 635 1386 c 0,11,12
 575 1442 575 1442 523 1404 c 0,13,14
 507 1392 507 1392 496.5 1371 c 128,-1,15
 486 1350 486 1350 474 1289 c 2,16,-1
 464 1237 l 1,17,-1
 356 1254 l 1,18,-1
 373 1339 l 2,19,20
 392 1434 392 1434 420 1470 c 0,21,22
 504 1578 504 1578 636 1525 c 0,23,24
 690 1502 690 1502 738 1458 c 1,25,-1
 772 1426 l 2,26,27
 791 1407 791 1407 805 1394 c 0,28,29
 865 1338 865 1338 917 1376 c 0,30,31
 933 1388 933 1388 943.5 1409 c 128,-1,32
 954 1430 954 1430 966 1491 c 2,33,-1
 976 1543 l 1,0,-1
EndSplineSet
Layer: 3
SplineSet
976 1543 m 1
 1084 1526 l 1
 1067 1441 l 2
 1062.16 1416.78 1057.19 1392.51 1049.16 1369.15 c 0
 1041.14 1345.8 1030 1323.36 1014.78 1303.92 c 0
 999.557 1284.47 980.261 1268.14 958.258 1256.93 c 0
 936.255 1245.71 911.687 1239.69 887 1239 c 0
 858.746 1238.21 830.538 1244.32 804.305 1254.85 c 0
 778.073 1265.37 753.669 1280.12 731 1297 c 0
 697.855 1321.68 670.084 1352.67 640 1381 c 0
 629.343 1391.04 617.988 1400.51 605.092 1407.44 c 0
 592.196 1414.37 577.629 1418.54 563 1418 c 0
 548.766 1417.47 534.786 1412.41 523.333 1403.94 c 0
 511.88 1395.47 503.004 1383.84 496.553 1371.14 c 0
 483.651 1345.74 479.38 1316.97 474 1289 c 2
 464 1237 l 1
 356 1254 l 1
 373 1339 l 2
 377.843 1363.22 382.812 1387.49 390.836 1410.85 c 0
 398.861 1434.2 409.995 1456.64 425.219 1476.08 c 0
 440.443 1495.53 459.739 1511.86 481.742 1523.07 c 0
 503.745 1534.29 528.313 1540.31 553 1541 c 0
 581.254 1541.79 609.462 1535.68 635.695 1525.15 c 0
 661.927 1514.63 686.331 1499.88 709 1483 c 0
 742.145 1458.32 769.916 1427.33 800 1399 c 0
 810.657 1388.96 822.012 1379.49 834.908 1372.56 c 0
 847.804 1365.63 862.371 1361.46 877 1362 c 0
 891.234 1362.53 905.214 1367.59 916.667 1376.06 c 0
 928.12 1384.53 936.996 1396.16 943.447 1408.86 c 0
 956.349 1434.26 960.62 1463.03 966 1491 c 2
 976 1543 l 1
EndSplineSet
EndChar

StartChar: grave
Encoding: 96 96 89
Width: 1122
VWidth: 2097
Flags: MW
LayerCount: 4
Fore
SplineSet
345 1586 m 1,0,-1
 849 1276 l 1,1,-1
 786 1168 l 1,2,-1
 274 1463 l 1,3,-1
 345 1586 l 1,0,-1
EndSplineSet
Layer: 3
SplineSet
345 1586 m 29
 849 1276 l 25
 786 1168 l 25
 274 1463 l 25
 345 1586 l 29
EndSplineSet
EndChar

StartChar: asciicircum
Encoding: 94 94 90
Width: 1479
VWidth: 2097
Flags: MW
LayerCount: 4
Fore
SplineSet
725 1541 m 1,0,-1
 981 1255 l 1,1,-1
 888 1167 l 1,2,-1
 712 1363 l 1,3,-1
 531 1168 l 1,4,-1
 443 1246 l 1,5,-1
 725 1541 l 1,0,-1
EndSplineSet
Layer: 3
SplineSet
725 1541 m 29
 981 1255 l 21
 888 1167 l 5
 667 1413 l 5
 778 1433 l 5
 531 1168 l 13
 443 1246 l 29
 725 1541 l 29
EndSplineSet
EndChar

StartChar: ampersand
Encoding: 38 38 91
Width: 1589
VWidth: 2097
Flags: MW
LayerCount: 4
Fore
SplineSet
687 1440 m 0,0,1
 936 1442 936 1442 1015 1282 c 0,2,3
 1048 1215 1048 1215 1035 1126 c 128,-1,4
 1022 1037 1022 1037 926 939 c 1,5,-1
 894 908 l 2,6,7
 877 893 877 893 856 875 c 2,8,-1
 728 772 l 1,9,-1
 1076 401 l 1,10,-1
 1399 754 l 1,11,-1
 1492 660 l 1,12,-1
 1170 301 l 1,13,-1
 1453 0 l 1,14,-1
 1250 0 l 1,15,-1
 1055 201 l 1,16,17
 951 100 951 100 891 60 c 0,18,19
 752 -32 752 -32 581 -45 c 0,20,21
 392 -59 392 -59 282 39 c 0,22,23
 176 134 176 134 180 280 c 0,24,25
 185 489 185 489 353 646 c 0,26,27
 401 691 401 691 467 742 c 2,28,-1
 504 770 l 1,29,-1
 425 853 l 1,30,31
 263 1031 263 1031 313 1200 c 0,32,33
 347 1317 347 1317 458.5 1378 c 128,-1,34
 570 1439 570 1439 687 1440 c 0,0,1
635 871 m 1,35,-1
 722 939 l 2,36,37
 799 998 799 998 824 1026 c 0,38,39
 877 1085 877 1085 874 1137 c 0,40,41
 871 1232 871 1232 795 1271 c 128,-1,42
 719 1310 719 1310 634 1291 c 128,-1,43
 549 1272 549 1272 510 1219 c 0,44,45
 422 1103 422 1103 528 982 c 0,46,47
 547 960 547 960 584 923 c 2,48,-1
 635 871 l 1,35,-1
960 299 m 1,49,-1
 601 671 l 1,50,-1
 497 587 l 1,51,52
 332 449 332 449 348 303 c 0,53,54
 358 212 358 212 427.5 156.5 c 128,-1,55
 497 101 497 101 592 100 c 0,56,57
 751 99 751 99 927 267 c 1,58,-1
 960 299 l 1,49,-1
EndSplineSet
Layer: 3
SplineSet
702 1440 m 0
 763.663 1440.58 826.128 1431.02 882.309 1405.6 c 0
 938.491 1380.18 987.68 1337.28 1015 1282 c 0
 1036.7 1238.09 1044.04 1187.47 1037 1139 c 0
 1025.87 1062.34 980.351 994.556 926.046 939.316 c 0
 871.74 884.076 809.548 837.316 749 789 c 2
 551 631 l 2
 498.329 588.969 444.908 546.366 405.044 492.036 c 0
 365.18 437.706 340.638 369.982 348 303 c 0
 354.326 245.441 384.456 190.999 429.56 154.687 c 0
 474.665 118.374 533.096 100.352 591 100 c 0
 659.967 99.5813 727.571 123.003 787 158 c 0
 865.078 203.98 929.928 268.928 994 333 c 2
 1015 354 l 1
 1060 384 l 1
 1399 754 l 1
 1492 660 l 1
 1164 294 l 1
 1107 252 l 1
 1092 237 l 2
 1028.76 173.759 965.553 109.404 891 60 c 0
 799.061 -0.925473 690.984 -36.7469 581 -45 c 0
 527.934 -48.982 474.064 -46.473 422.447 -33.5274 c 0
 370.83 -20.5819 321.625 3.47858 282 39 c 0
 247.171 70.2227 220.158 109.946 203.152 153.52 c 0
 186.147 197.095 178.933 244.237 180 291 c 0
 182.109 383.444 215.97 473.762 268.763 549.677 c 0
 321.556 625.592 393.825 685.469 467 742 c 2
 722 939 l 2
 757.518 966.439 794.128 993.1 824.005 1026.59 c 0
 838.944 1043.34 851.963 1061.97 860.962 1082.53 c 0
 869.961 1103.09 874.795 1125.57 874 1148 c 0
 873.059 1174.57 864.089 1200.73 848.9 1222.54 c 0
 833.711 1244.36 812.619 1261.8 789 1274 c 0
 741.981 1298.29 685.922 1302.51 634.301 1290.85 c 0
 582.68 1279.19 533.811 1251.29 502 1209 c 0
 482.289 1182.79 469.891 1150.78 469 1118 c 0
 468.313 1092.73 474.387 1067.49 485.134 1044.61 c 0
 495.882 1021.73 511.048 1001.17 527.702 982.147 c 0
 561.01 944.11 598.385 909.852 633 873 c 2
 1453 0 l 1
 1250 0 l 1
 480 795 l 2
 426.434 850.306 372.388 907.041 337.938 975.898 c 0
 303.488 1044.76 291.303 1126.13 313 1200 c 0
 324.494 1239.13 344.843 1275.54 371.488 1306.42 c 0
 398.132 1337.3 430.885 1362.69 466.629 1382.33 c 0
 538.115 1421.63 620.428 1439.23 702 1440 c 0
EndSplineSet
EndChar

StartChar: less
Encoding: 60 60 92
Width: 1073
VWidth: 2097
Flags: MW
LayerCount: 4
Fore
SplineSet
973 1128 m 1,0,-1
 973 973 l 1,1,-1
 274 621 l 1,2,-1
 973 285 l 1,3,-1
 973 120 l 1,4,-1
 100 533 l 1,5,-1
 100 698 l 1,6,-1
 973 1128 l 1,0,-1
EndSplineSet
Layer: 3
SplineSet
973 1128 m 5
 100 698 l 5
 100 533 l 5
 973 120 l 5
 973 285 l 5
 172 670 l 5
 172 570 l 5
 973 973 l 5
 973 1128 l 5
EndSplineSet
EndChar

StartChar: greater
Encoding: 62 62 93
Width: 1073
VWidth: 2097
Flags: MW
LayerCount: 4
Fore
SplineSet
100 1128 m 1,0,-1
 973 698 l 1,1,-1
 973 533 l 1,2,-1
 100 120 l 1,3,-1
 100 285 l 1,4,-1
 799 621 l 1,5,-1
 100 973 l 1,6,-1
 100 1128 l 1,0,-1
EndSplineSet
Layer: 3
SplineSet
100 1128 m 5
 973 698 l 5
 973 533 l 5
 100 120 l 5
 100 285 l 5
 901 670 l 5
 901 570 l 5
 100 973 l 5
 100 1128 l 5
EndSplineSet
EndChar

StartChar: braceleft
Encoding: 123 123 94
Width: 798
VWidth: 2097
Flags: MW
LayerCount: 4
Fore
SplineSet
347 1081 m 0,0,1
 374 1372 374 1372 577 1474 c 0,2,3
 642 1506 642 1506 712 1512 c 1,4,-1
 742 1383 l 1,5,6
 514 1350 514 1350 491 1021 c 0,7,8
 481 880 481 880 471 815.5 c 128,-1,9
 461 751 461 751 422 680 c 0,10,11
 377 599 377 599 302 550 c 1,12,13
 462 446 462 446 484 191 c 0,14,15
 487 162 487 162 489.5 123 c 128,-1,16
 492 84 492 84 493 65 c 0,17,18
 504 -83 504 -83 556 -162 c 0,19,20
 625 -267 625 -267 742 -282 c 1,21,-1
 712 -411 l 1,22,23
 564 -398 564 -398 464 -288 c 0,24,25
 366 -180 366 -180 347 7 c 0,26,27
 344 32 344 32 340.5 89.5 c 128,-1,28
 337 147 337 147 329.5 211 c 128,-1,29
 322 275 322 275 288 336 c 0,30,31
 219 460 219 460 90 481 c 1,32,-1
 90 619 l 1,33,34
 219 641 219 641 286 761 c 0,35,36
 321 824 321 824 329.5 886.5 c 128,-1,37
 338 949 338 949 342 1007 c 128,-1,38
 346 1065 346 1065 347 1081 c 0,0,1
EndSplineSet
Layer: 3
SplineSet
464 1389 m 0
 527.251 1459.3 617.707 1504.85 712 1512 c 1
 742 1383 l 1
 666.611 1372.59 597.735 1326.64 556 1263 c 0
 509.663 1192.34 496.895 1105.29 491 1021 c 0
 486.929 962.784 484.957 904.295 475.822 846.657 c 0
 466.687 789.02 450.176 732.105 422 681 c 0
 396.587 634.906 361.774 593.849 319.523 562.458 c 0
 277.272 531.068 227.779 509.457 176 500 c 1
 176 600 l 1
 227.67 590.599 277.08 569.125 319.322 537.92 c 0
 361.565 506.714 396.448 465.884 422 420 c 0
 451.632 366.79 468.537 307.229 477.644 247.009 c 0
 486.75 186.788 488.306 125.724 493 65 c 0
 499.119 -14.1543 512.73 -95.4375 556 -162 c 0
 597.506 -225.849 666.514 -271.942 742 -282 c 1
 712 -411 l 1
 617.839 -403.2 527.609 -357.864 464 -288 c 0
 427.744 -248.178 399.994 -200.895 381.145 -150.446 c 0
 362.294 -99.999 352.412 -46.582 347 7 c 0
 341.28 63.6221 340.339 120.675 333.616 177.187 c 0
 326.893 233.698 313.594 290.227 286 340 c 0
 265.793 376.45 238.068 408.87 204.364 433.387 c 0
 170.661 457.903 131.154 474.416 90 481 c 1
 90 619 l 1
 131.171 625.924 170.632 642.679 204.312 667.349 c 0
 237.993 692.02 265.721 724.507 286 761 c 0
 312.602 808.871 326.179 862.999 333.354 917.293 c 0
 340.528 971.587 341.964 1026.47 347 1081 c 0
 352.144 1136.69 361.298 1192.33 379.919 1245.07 c 0
 398.539 1297.8 426.593 1347.43 464 1389 c 0
EndSplineSet
EndChar

StartChar: sterling
Encoding: 163 163 95
Width: 1300
VWidth: 2097
Flags: MW
LayerCount: 4
Fore
SplineSet
152 135 m 1,0,-1
 396 135 l 1,1,-1
 396 662 l 1,2,-1
 220 662 l 1,3,-1
 220 797 l 1,4,-1
 396 797 l 1,5,-1
 396 938 l 2,6,7
 396 1066 396 1066 418 1136 c 0,8,9
 458 1263 458 1263 581 1347 c 128,-1,10
 704 1431 704 1431 882 1431 c 0,11,12
 998 1431 998 1431 1117 1393 c 1,13,-1
 1069 1271 l 1,14,15
 980 1295 980 1295 897.5 1295 c 128,-1,16
 815 1295 815 1295 760.5 1272 c 128,-1,17
 706 1249 706 1249 676 1225.5 c 128,-1,18
 646 1202 646 1202 627 1178.5 c 128,-1,19
 608 1155 608 1155 594 1122.5 c 128,-1,20
 580 1090 580 1090 574 1066.5 c 128,-1,21
 568 1043 568 1043 564 1008 c 0,22,23
 560 963 560 963 560 911 c 2,24,-1
 560 797 l 1,25,-1
 1090 797 l 1,26,-1
 1090 662 l 1,27,-1
 560 662 l 1,28,-1
 560 135 l 1,29,-1
 1148 135 l 1,30,-1
 1148 0 l 1,31,-1
 152 0 l 1,32,-1
 152 135 l 1,0,-1
EndSplineSet
Layer: 3
SplineSet
220 797 m 17
 1090 797 l 9
 1090 662 l 25
 220 662 l 25
 220 797 l 17
152 135 m 1
 396 135 l 1
 396 938 l 2
 396 1005 398 1072 418 1136 c 0
 468 1296 634 1431 882 1431 c 0
 964 1431 1045 1416 1117 1393 c 1
 1069 1271 l 1
 1017 1285 960 1295 904 1295 c 0
 849 1295 794 1286 744 1265 c 0
 559 1188 560 1005 560 911 c 0
 560 898 560 885 560 872 c 2
 560 135 l 1
 1148 135 l 1
 1148 0 l 1
 152 0 l 1
 152 135 l 1
EndSplineSet
EndChar

StartChar: exclamdown
Encoding: 161 161 96
Width: 650
VWidth: 2097
Flags: MW
LayerCount: 4
Fore
SplineSet
240 863 m 1,0,-1
 410 863 l 1,1,-1
 410 -410 l 1,2,-1
 240 -410 l 1,3,-1
 240 863 l 1,0,-1
225 1321 m 1,4,-1
 425 1321 l 1,5,-1
 425 1121 l 1,6,-1
 225 1121 l 1,7,-1
 225 1321 l 1,4,-1
EndSplineSet
Layer: 3
SplineSet
225 1321 m 1
 425 1321 l 1
 425 1121 l 1
 225 1121 l 1
 225 1321 l 1
240 863 m 1
 410 863 l 1
 410 -410 l 1
 240 -410 l 1
 240 863 l 1
EndSplineSet
EndChar

StartChar: cent
Encoding: 162 162 97
Width: 1021
VWidth: 2097
Flags: MW
LayerCount: 4
Fore
SplineSet
543 1511 m 1,0,-1
 664 1511 l 1,1,-1
 664 1241 l 1,2,3
 787 1235 787 1235 906 1183 c 1,4,-1
 866 1063 l 1,5,6
 743 1106 743 1106 647 1102 c 0,7,8
 290 1087 290 1087 310 709 c 0,9,10
 321 496 321 496 464 411 c 0,11,12
 528 373 528 373 630.5 361 c 128,-1,13
 733 349 733 349 855 393 c 1,14,-1
 895 280 l 1,15,16
 780 235 780 235 664 227 c 1,17,-1
 664 -65 l 1,18,-1
 543 -65 l 1,19,-1
 543 229 l 1,20,21
 341 252 341 252 237 397 c 0,22,23
 151 518 151 518 150 711 c 0,24,25
 149 947 149 947 265 1086 c 0,26,27
 368 1210 368 1210 543 1236 c 1,28,-1
 543 1511 l 1,0,-1
EndSplineSet
Layer: 3
SplineSet
543 291 m 17
 664 291 l 9
 664 -65 l 25
 543 -65 l 25
 543 291 l 17
543 1511 m 25
 664 1511 l 25
 664 1182 l 25
 543 1182 l 25
 543 1511 l 25
620 1242 m 0
 718.062 1243.47 816.134 1222.27 906 1183 c 1
 866 1063 l 1
 789.035 1089.67 707.387 1104.31 626 1101 c 0
 580.162 1099.14 534.258 1091.06 491.868 1073.52 c 0
 449.479 1055.98 411.028 1028.52 382 993 c 0
 350.39 954.317 330.487 906.96 320.02 858.113 c 0
 309.552 809.266 307.385 758.887 310 709 c 0
 313.371 644.691 325.317 579.617 356 523 c 0
 380.963 476.939 418.623 437.939 463.59 411.055 c 0
 508.557 384.172 559.957 369.022 612 363 c 0
 693.777 353.538 777.52 365.181 855 393 c 1
 895 280 l 1
 805.956 245.057 710.654 225.255 615 225 c 0
 542.994 224.809 470.371 236.265 404.118 264.468 c 0
 337.864 292.67 278.919 338.454 237 397 c 0
 172.746 486.739 150.31 600.63 150 711 c 0
 149.813 777.703 157.187 844.656 175.073 908.916 c 0
 192.959 973.176 222.347 1034.72 265 1086 c 0
 307.67 1137.3 363.282 1177.5 424.822 1203.3 c 0
 486.362 1229.11 553.277 1241 620 1242 c 0
EndSplineSet
EndChar

StartChar: currency
Encoding: 164 164 98
Width: 1300
Flags: MW
LayerCount: 4
Fore
SplineSet
310 1207 m 1,0,-1
 477 1040 l 1,1,2
 555 1086 555 1086 648 1087 c 128,-1,3
 741 1088 741 1088 823 1040 c 1,4,-1
 989 1205 l 1,5,-1
 1114 1080 l 1,6,-1
 948 915 l 1,7,8
 994 837 994 837 995 744 c 128,-1,9
 996 651 996 651 948 569 c 1,10,-1
 1113 404 l 1,11,-1
 988 279 l 1,12,-1
 823 444 l 1,13,14
 741 395 741 395 648 396 c 128,-1,15
 555 397 555 397 477 443 c 1,16,-1
 311 277 l 1,17,-1
 186 402 l 1,18,-1
 352 568 l 1,19,20
 305 645 305 645 303.5 739 c 128,-1,21
 302 833 302 833 352 915 c 1,22,-1
 185 1082 l 1,23,-1
 310 1207 l 1,0,-1
450 739 m 128,-1,25
 451 655 451 655 508.5 596.5 c 128,-1,26
 566 538 566 538 647.5 537 c 128,-1,27
 729 536 729 536 786.5 592.5 c 128,-1,28
 844 649 844 649 849 733 c 128,-1,29
 854 817 854 817 795.5 881 c 128,-1,30
 737 945 737 945 651 946 c 0,31,32
 566 947 566 947 507.5 885 c 128,-1,24
 449 823 449 823 450 739 c 128,-1,25
EndSplineSet
Layer: 3
SplineSet
651 946 m 0
 597.289 946.338 543.982 923.289 506.888 884.443 c 0
 469.794 845.597 449.125 791.705 450 738 c 0
 450.848 685.945 471.891 634.346 508.211 597.045 c 0
 544.531 559.745 595.94 537.406 648 537 c 0
 699.254 536.6 750.224 557.435 786.993 593.145 c 0
 823.762 628.854 846.141 678.825 849 730 c 0
 852.047 784.533 832.809 840.127 796.148 880.612 c 0
 759.488 921.098 705.617 945.656 651 946 c 0
310 1207 m 1
 477 1040 l 1
 527.706 1069.77 586.205 1086.14 645 1087 c 0
 707.128 1087.91 769.419 1071.46 823 1040 c 1
 989 1205 l 1
 1114 1080 l 1
 948 915 l 1
 977.934 864.004 994.308 805.129 995 746 c 0
 995.723 684.205 979.284 622.296 948 569 c 1
 1113 404 l 1
 988 279 l 1
 823 444 l 1
 769.872 412.228 707.901 395.423 646 396 c 0
 586.857 396.552 527.936 412.938 477 443 c 1
 311 277 l 1
 186 402 l 1
 352 568 l 1
 321.696 618.521 304.961 677.095 304 736 c 0
 302.98 798.571 319.81 861.335 352 915 c 1
 185 1082 l 1
 310 1207 l 1
EndSplineSet
EndChar

StartChar: yen
Encoding: 165 165 99
Width: 1300
VWidth: 2097
Flags: MW
LayerCount: 4
Fore
SplineSet
143 1421 m 1,0,-1
 328 1421 l 1,1,-1
 650 818 l 1,2,-1
 982 1421 l 1,3,-1
 1157 1421 l 1,4,-1
 730 699 l 1,5,-1
 1012 699 l 1,6,-1
 1012 574 l 1,7,-1
 723 574 l 1,8,-1
 723 374 l 1,9,-1
 1012 374 l 1,10,-1
 1012 249 l 1,11,-1
 723 249 l 1,12,-1
 723 0 l 1,13,-1
 563 0 l 1,14,-1
 563 249 l 1,15,-1
 288 249 l 1,16,-1
 288 374 l 1,17,-1
 563 374 l 1,18,-1
 563 574 l 1,19,-1
 288 574 l 1,20,-1
 288 699 l 1,21,-1
 556 699 l 1,22,-1
 143 1421 l 1,0,-1
EndSplineSet
Layer: 3
SplineSet
288 374 m 25
 1012 374 l 25
 1012 249 l 25
 288 249 l 25
 288 374 l 25
288 699 m 17
 1012 699 l 9
 1012 574 l 25
 288 574 l 25
 288 699 l 17
143 1421 m 9
 328 1421 l 17
 672 778 l 9
 632 785 l 17
 982 1421 l 9
 1157 1421 l 25
 723 687 l 25
 723 0 l 25
 563 0 l 25
 563 687 l 17
 143 1421 l 9
EndSplineSet
EndChar

StartChar: brokenbar
Encoding: 166 166 100
Width: 884
VWidth: 2097
Flags: MW
LayerCount: 4
Fore
SplineSet
360 1601 m 1,0,-1
 524 1601 l 1,1,-1
 524 837 l 1,2,-1
 360 837 l 1,3,-1
 360 1601 l 1,0,-1
360 460 m 1,4,-1
 524 460 l 1,5,-1
 524 -308 l 1,6,-1
 360 -308 l 1,7,-1
 360 460 l 1,4,-1
EndSplineSet
Layer: 3
SplineSet
360 460 m 1
 524 460 l 1
 524 -308 l 1
 360 -308 l 1
 360 460 l 1
360 1601 m 1
 524 1601 l 1
 524 837 l 1
 360 837 l 1
 360 1601 l 1
EndSplineSet
EndChar

StartChar: section
Encoding: 167 167 101
Width: 1136
VWidth: 2097
Flags: MW
LayerCount: 4
Fore
SplineSet
469 1414 m 0,0,1
 550 1434 550 1434 615 1434 c 0,2,3
 713 1434 713 1434 752 1429 c 2,4,-1
 790 1424 l 2,5,6
 805 1422 805 1422 828 1417 c 2,7,-1
 858 1409 l 2,8,9
 866 1407 866 1407 891 1400 c 2,10,-1
 922 1391 l 1,11,-1
 877 1260 l 1,12,13
 753 1299 753 1299 635 1299 c 128,-1,14
 517 1299 517 1299 445 1259 c 128,-1,15
 373 1219 373 1219 374 1147 c 0,16,17
 374 1099 374 1099 419 1062.5 c 128,-1,18
 464 1026 464 1026 530.5 1004 c 128,-1,19
 597 982 597 982 675 953.5 c 128,-1,20
 753 925 753 925 819.5 894.5 c 128,-1,21
 886 864 886 864 930.5 809 c 128,-1,22
 975 754 975 754 975 682 c 0,23,24
 975 559 975 559 891 474 c 1,25,26
 974 406 974 406 974 306 c 0,27,28
 974 211 974 211 931.5 150.5 c 128,-1,29
 889 90 889 90 841 57 c 0,30,31
 729 -20 729 -20 524 -20 c 0,32,33
 324 -20 324 -20 160 45 c 1,34,-1
 206 169 l 1,35,36
 377 109 377 109 510 109 c 0,37,38
 786 109 786 109 786 286 c 0,39,40
 786 368 786 368 669 413 c 0,41,42
 617 433 617 433 554 451.5 c 128,-1,43
 491 470 491 470 427.5 493 c 128,-1,44
 364 516 364 516 312 547 c 0,45,46
 195 617 195 617 195 752 c 0,47,48
 195 860 195 860 283 944 c 1,49,50
 196 1014 196 1014 196 1127 c 0,51,52
 196 1213 196 1213 256 1288 c 0,53,54
 328 1378 328 1378 469 1414 c 0,0,1
424 870 m 1,55,56
 374 830 374 830 374 783 c 128,-1,57
 374 736 374 736 394.5 709 c 128,-1,58
 415 682 415 682 457.5 660.5 c 128,-1,59
 500 639 500 639 538.5 624.5 c 128,-1,60
 577 610 577 610 641.5 589 c 128,-1,61
 706 568 706 568 743 554 c 1,62,63
 787 597 787 597 787 662 c 0,64,65
 787 762 787 762 593 817 c 1,66,-1
 508 842 l 2,67,68
 458 858 458 858 424 870 c 1,55,56
EndSplineSet
Layer: 3
SplineSet
424 870 m 1
 383 837 374 796 374 771 c 0
 374 650 574 619 743 554 c 1
 776 586 787 626 787 662 c 0
 787 788 591 809 424 870 c 1
651 1434 m 0
 787 1434 847 1412.08 922 1391.08 c 1
 877 1260 l 1
 803 1283.3 711 1299 626 1299 c 0
 488 1299 373 1247 374 1147 c 0
 376.05 942.01 975 991 975 682 c 0
 975 618 955 539 891 474 c 1
 941 433 974 380 974 306 c 0
 974 176 890 -20 524 -20 c 0
 451 -20 330 -22 160 45 c 1
 206 169 l 1
 323 128 428 109 510 109 c 0
 661.521 109 786 150 786 286 c 0
 786 501 195 410 195 752 c 0
 195 806 217 881 283 944 c 1
 231 986 196 1044 196 1127 c 0
 196 1249.8 299.712 1434 651 1434 c 0
EndSplineSet
EndChar

StartChar: copyright
Encoding: 169 169 102
Width: 1760
VWidth: 2097
Flags: MW
LayerCount: 4
Fore
SplineSet
913 1055 m 0,0,1
 1005 1057 1005 1057 1107 1012 c 1,2,-1
 1077 925 l 1,3,4
 919 980 919 980 806 933 c 0,5,6
 667 875 667 875 676 669 c 0,7,8
 684 512 684 512 786 452 c 0,9,10
 832 425 832 425 906 417 c 128,-1,11
 980 409 980 409 1069 440 c 1,12,-1
 1099 358 l 1,13,14
 998 319 998 319 904 319 c 0,15,16
 712 319 712 319 623 443 c 0,17,18
 561 530 561 530 560 670 c 0,19,20
 559 840 559 840 646 946 c 128,-1,21
 733 1052 733 1052 913 1055 c 0,0,1
880 1248 m 128,-1,23
 768 1248 768 1248 661 1205 c 128,-1,24
 554 1162 554 1162 473.5 1084 c 128,-1,25
 393 1006 393 1006 348 900.5 c 128,-1,26
 303 795 303 795 303 683 c 128,-1,27
 303 571 303 571 348 465.5 c 128,-1,28
 393 360 393 360 473.5 282 c 128,-1,29
 554 204 554 204 661 161 c 128,-1,30
 768 118 768 118 880 118 c 128,-1,31
 992 118 992 118 1099 161 c 128,-1,32
 1206 204 1206 204 1286.5 282 c 128,-1,33
 1367 360 1367 360 1412 465.5 c 128,-1,34
 1457 571 1457 571 1457 683 c 128,-1,35
 1457 795 1457 795 1412 900.5 c 128,-1,36
 1367 1006 1367 1006 1286.5 1084 c 128,-1,37
 1206 1162 1206 1162 1099 1205 c 128,-1,22
 992 1248 992 1248 880 1248 c 128,-1,23
608.5 1326 m 128,-1,39
 739 1379 739 1379 877.5 1380 c 128,-1,40
 1016 1381 1016 1381 1147.5 1328 c 128,-1,41
 1279 1275 1279 1275 1378.5 1179 c 128,-1,42
 1478 1083 1478 1083 1534 952 c 128,-1,43
 1590 821 1590 821 1590 683 c 128,-1,44
 1590 545 1590 545 1534.5 414.5 c 128,-1,45
 1479 284 1479 284 1380 188 c 128,-1,46
 1281 92 1281 92 1149.5 39 c 128,-1,47
 1018 -14 1018 -14 880 -14 c 128,-1,48
 742 -14 742 -14 610.5 39 c 128,-1,49
 479 92 479 92 380 188 c 128,-1,50
 281 284 281 284 225.5 414.5 c 128,-1,51
 170 545 170 545 170 682.5 c 128,-1,52
 170 820 170 820 225 950.5 c 128,-1,53
 280 1081 280 1081 379 1177 c 128,-1,38
 478 1273 478 1273 608.5 1326 c 128,-1,39
EndSplineSet
Layer: 3
SplineSet
877 1380 m 0
 1061.69 1380.78 1246.03 1307.72 1378.68 1179.22 c 0
 1511.34 1050.72 1590.01 867.689 1590 683 c 0
 1589.99 498.817 1511.76 316.264 1379.74 187.835 c 0
 1247.72 59.4059 1064.18 -13.9941 880 -14 c 0
 695.812 -14.0059 512.269 59.4033 380.245 187.835 c 0
 248.221 316.266 169.994 498.812 170 683 c 0
 170.006 866.683 247.799 1048.74 379.188 1177.1 c 0
 510.577 1305.46 693.318 1379.23 877 1380 c 0
880 1248 m 0
 730.503 1248 581.476 1188.68 474.12 1084.64 c 0
 366.765 980.604 303 832.497 303 683 c 0
 303 533.503 366.765 385.397 474.12 281.357 c 0
 581.476 177.317 730.503 118 880 118 c 0
 1029.5 118 1178.52 177.317 1285.88 281.357 c 0
 1393.23 385.397 1457 533.503 1457 683 c 0
 1457 832.497 1393.23 980.604 1285.88 1084.64 c 0
 1178.52 1188.68 1029.5 1248 880 1248 c 0
899 1055 m 0
 970.33 1056.16 1041.69 1040.7 1107 1012 c 1
 1077 925 l 1
 1021.26 944.592 962.04 955.396 903 953 c 0
 869.831 951.654 836.61 945.747 806.001 932.9 c 0
 775.391 920.054 747.723 899.934 727 874 c 0
 704.542 845.894 690.614 811.639 683.296 776.415 c 0
 675.977 741.19 674.42 704.942 676 669 c 0
 678.062 622.086 685.947 574.459 708 533 c 0
 725.777 499.58 752.988 471.322 785.557 452.028 c 0
 818.125 432.735 855.369 422.102 893 418 c 0
 952.258 411.54 1012.8 420.134 1069 440 c 1
 1099 358 l 1
 1034.33 333.15 965.28 319.081 896 319 c 0
 844.021 318.939 791.604 327.173 743.752 347.476 c 0
 695.902 367.779 653.299 400.765 623 443 c 0
 576.484 507.84 560.316 590.201 560 670 c 0
 559.809 718.136 565.006 766.457 577.732 812.88 c 0
 590.458 859.304 611.431 903.816 642 941 c 0
 672.736 978.387 712.941 1007.74 757.512 1026.61 c 0
 802.082 1045.48 850.607 1054.21 899 1055 c 0
EndSplineSet
EndChar

StartChar: guillemotleft
Encoding: 171 171 103
Width: 936
VWidth: 2097
Flags: MW
LayerCount: 4
Fore
SplineSet
700 988 m 1,0,-1
 886 988 l 1,1,-1
 612 623 l 1,2,-1
 886 258 l 1,3,-1
 701 258 l 1,4,-1
 446 623 l 1,5,-1
 700 988 l 1,0,-1
329 988 m 1,6,-1
 515 988 l 1,7,-1
 241 623 l 1,8,-1
 515 258 l 1,9,-1
 330 258 l 1,10,-1
 75 623 l 1,11,-1
 329 988 l 1,6,-1
EndSplineSet
Layer: 3
SplineSet
329 988 m 5
 515 988 l 5
 226 604 l 5
 226 643 l 5
 515 258 l 5
 330 258 l 5
 75 623 l 5
 329 988 l 5
700 988 m 5
 886 988 l 5
 597 604 l 5
 597 643 l 5
 886 258 l 5
 701 258 l 5
 446 623 l 5
 700 988 l 5
EndSplineSet
EndChar

StartChar: guillemotright
Encoding: 187 187 104
Width: 936
VWidth: 2097
Flags: MW
LayerCount: 4
Fore
SplineSet
236 988 m 1,0,-1
 490 623 l 1,1,-1
 235 258 l 1,2,-1
 50 258 l 1,3,-1
 324 623 l 1,4,-1
 50 988 l 1,5,-1
 236 988 l 1,0,-1
607 988 m 1,6,-1
 861 623 l 1,7,-1
 606 258 l 1,8,-1
 421 258 l 1,9,-1
 695 623 l 1,10,-1
 421 988 l 1,11,-1
 607 988 l 1,6,-1
EndSplineSet
Layer: 3
SplineSet
607 988 m 1
 861 623 l 1
 606 258 l 1
 421 258 l 1
 710 643 l 1
 710 604 l 1
 421 988 l 1
 607 988 l 1
236 988 m 1
 490 623 l 1
 235 258 l 1
 50 258 l 1
 339 643 l 1
 339 604 l 1
 50 988 l 1
 236 988 l 1
EndSplineSet
EndChar

StartChar: registered
Encoding: 174 174 105
Width: 1232
VWidth: 2097
Flags: MW
LayerCount: 4
Fore
SplineSet
427 1316 m 1,0,-1
 649 1320 l 2,1,2
 770 1322 770 1322 810 1237 c 1,3,4
 841 1175 841 1175 817 1096 c 0,5,6
 795 1022 795 1022 721 998 c 1,7,-1
 833 776 l 1,8,-1
 733 776 l 1,9,-1
 632 985 l 1,10,11
 597 984 597 984 544 984 c 2,12,-1
 520 984 l 1,13,-1
 520 776 l 1,14,-1
 427 776 l 1,15,-1
 427 1316 l 1,0,-1
616 1561 m 128,-1,17
 719 1561 719 1561 816 1521.5 c 128,-1,18
 913 1482 913 1482 986.5 1410.5 c 128,-1,19
 1060 1339 1060 1339 1101 1242 c 128,-1,20
 1142 1145 1142 1145 1142 1043 c 128,-1,21
 1142 941 1142 941 1101 844 c 128,-1,22
 1060 747 1060 747 986.5 675.5 c 128,-1,23
 913 604 913 604 816 564.5 c 128,-1,24
 719 525 719 525 616 525 c 128,-1,25
 513 525 513 525 416 564.5 c 128,-1,26
 319 604 319 604 245.5 675.5 c 128,-1,27
 172 747 172 747 131 844 c 128,-1,28
 90 941 90 941 90 1043 c 128,-1,29
 90 1145 90 1145 131 1242 c 128,-1,30
 172 1339 172 1339 245.5 1410.5 c 128,-1,31
 319 1482 319 1482 416 1521.5 c 128,-1,16
 513 1561 513 1561 616 1561 c 128,-1,17
907 1333 m 0,32,33
 785 1451 785 1451 614 1450 c 0,34,35
 444 1449 444 1449 323 1332 c 0,36,37
 201 1213 201 1213 201 1043 c 0,38,39
 201 873 201 873 324 754 c 0,40,41
 445 636 445 636 616 636 c 128,-1,42
 787 636 787 636 908 754 c 0,43,44
 1031 873 1031 873 1031 1043 c 0,45,46
 1031 1124 1031 1124 998 1200.5 c 128,-1,47
 965 1277 965 1277 907 1333 c 0,32,33
520 1061 m 1,48,-1
 553 1061 l 2,49,50
 645 1060 645 1060 669 1064 c 0,51,52
 718 1071 718 1071 734 1118 c 0,53,54
 749 1161 749 1161 729 1190 c 0,55,56
 699 1236 699 1236 646 1239 c 0,57,58
 635 1240 635 1240 601 1240 c 2,59,-1
 520 1240 l 1,60,-1
 520 1061 l 1,48,-1
EndSplineSet
Layer: 3
SplineSet
614 1450 m 0
 721.94 1450.52 829.718 1407.94 907.326 1332.92 c 0
 984.935 1257.9 1031.01 1150.94 1031 1043 c 0
 1030.99 935.396 985.214 828.759 908.029 753.784 c 0
 830.845 678.809 723.604 636.004 616 636 c 0
 508.393 635.996 401.147 678.808 323.96 753.784 c 0
 246.773 828.76 200.996 935.393 201 1043 c 0
 201.004 1150.27 246.491 1256.58 323.255 1331.51 c 0
 400.019 1406.44 506.73 1449.49 614 1450 c 0
616 1561 m 0
 479.336 1561 343.211 1506.22 245.477 1410.7 c 0
 147.742 1315.17 90 1179.66 90 1043 c 0
 90 906.336 147.742 770.825 245.477 675.301 c 0
 343.211 579.776 479.336 525 616 525 c 0
 752.664 525 888.789 579.776 986.523 675.301 c 0
 1084.26 770.825 1142 906.336 1142 1043 c 0
 1142 1179.66 1084.26 1315.17 986.523 1410.7 c 0
 888.789 1506.22 752.664 1561 616 1561 c 0
614 1022 m 1
 709 1022 l 1
 833 776 l 1
 733 776 l 1
 614 1022 l 1
427 1316 m 1
 649 1320 l 2
 668.556 1320.35 688.281 1320.14 707.388 1315.96 c 0
 726.495 1311.78 744.804 1303.97 761 1293 c 0
 781.778 1278.93 799.061 1259.58 810 1237 c 0
 820.511 1215.3 825.151 1191.09 826 1167 c 0
 826.839 1143.18 824.281 1119.14 817.377 1096.33 c 0
 810.473 1073.52 798.714 1051.99 782 1035 c 0
 768.568 1021.34 752.144 1010.78 734.47 1003.39 c 0
 716.797 996.005 697.967 991.674 679 989 c 0
 634.375 982.708 589.066 984 544 984 c 2
 467 984 l 1
 467 1061 l 1
 553 1061 l 2
 588.368 1061 623.991 1057.98 659 1063 c 0
 678.667 1065.82 698.328 1072.6 713 1086 c 0
 722.487 1094.66 729.627 1105.82 733.774 1117.98 c 0
 737.922 1130.14 739.194 1143.21 738 1156 c 0
 736.574 1171.28 731.633 1186.28 723.242 1199.13 c 0
 714.851 1211.97 702.864 1222.43 689 1229 c 0
 675.527 1235.39 660.587 1238.12 645.715 1239.19 c 0
 630.843 1240.26 615.911 1240 601 1240 c 2
 520 1240 l 1
 520 776 l 1
 427 776 l 1
 427 1316 l 1
EndSplineSet
EndChar

StartChar: paragraph
Encoding: 182 182 106
Width: 1338
VWidth: 2097
Flags: MW
LayerCount: 4
Fore
SplineSet
232 1406 m 0,0,1
 299 1471 299 1471 387.5 1491 c 128,-1,2
 476 1511 476 1511 610 1511 c 2,3,-1
 1148 1511 l 1,4,-1
 1148 0 l 1,5,-1
 978 0 l 1,6,-1
 978 1361 l 1,7,-1
 738 1361 l 1,8,-1
 738 0 l 1,9,-1
 567 0 l 1,10,-1
 566 686 l 1,11,12
 461 695 461 695 400 714.5 c 128,-1,13
 339 734 339 734 290 771.5 c 128,-1,14
 241 809 241 809 211.5 851.5 c 128,-1,15
 182 894 182 894 163 946 c 0,16,17
 130 1035 130 1035 130 1133 c 0,18,19
 130 1306 130 1306 232 1406 c 0,0,1
EndSplineSet
Layer: 3
SplineSet
232 1406 m 0
 330 1502 462 1511 610 1511 c 2
 1148 1511 l 1
 1148 0 l 1
 978 0 l 1
 978 1361 l 1
 738 1361 l 1
 738 0 l 1
 567 0 l 1
 566 855 l 1
 647 855 l 1
 647 681 l 1
 512 687 449 699 403 714 c 0
 182 785 130 992 130 1133 c 0
 130 1246 166 1341 232 1406 c 0
EndSplineSet
EndChar

StartChar: periodcentered
Encoding: 183 183 107
Width: 590
VWidth: 2097
Flags: MW
LayerCount: 4
Fore
SplineSet
190 838 m 1,0,-1
 400 838 l 1,1,-1
 400 628 l 1,2,-1
 190 628 l 1,3,-1
 190 838 l 1,0,-1
EndSplineSet
Layer: 3
SplineSet
190 838 m 1
 400 838 l 1
 400 628 l 1
 190 628 l 1
 190 838 l 1
EndSplineSet
EndChar

StartChar: questiondown
Encoding: 191 191 108
Width: 1047
VWidth: 2097
Flags: HMW
LayerCount: 4
Fore
SplineSet
357 -93 m 128,-1,1
 451 -141 451 -141 548 -141 c 0,2,3
 718 -141 718 -141 904 -53 c 1,4,-1
 852 69 l 1,5,6
 688 2 688 2 563.5 2 c 128,-1,7
 439 2 439 2 366 67.5 c 128,-1,8
 293 133 293 133 293 225 c 0,9,10
 294 310 294 310 342 364 c 0,11,12
 364 390 364 390 393 413 c 2,13,-1
 454 463 l 2,14,15
 537 531 537 531 572 582.5 c 0,16,17
 608 634 608 634 630 687 c 0,18,19
 678 801 678 801 678 988 c 1,20,-1
 508 988 l 1,21,22
 508 794 508 794 432 686 c 0,23,24
 380 610 380 610 278 528 c 0,25,26
 238 496 238 496 204 460 c 0,27,28
 128 379 128 379 128 257.5 c 128,-1,29
 128 136 128 136 195.5 45.5 c 128,-1,0
 263 -45 263 -45 357 -93 c 128,-1,1
693 1220 m 1,30,-1
 693 1420 l 1,31,-1
 493 1420 l 1,32,-1
 493 1220 l 1,33,-1
 693 1220 l 1,30,-1
EndSplineSet
Layer: 3
SplineSet
339 1220 m 1
 539 1220 l 1
 539 1420 l 1
 339 1420 l 1
 339 1220 l 1
491 -141 m 0
 666 -141 904 19 904 241 c 0
 904 600 524 492 524 988 c 1
 354 988 l 1
 354 405 739 495 739 225 c 0
 739 110 645 2 465 2 c 0
 408 2 327 9 180 69 c 1
 128 -53 l 1
 238 -105 342 -141 491 -141 c 0
EndSplineSet
EndChar

StartChar: uni00B5
Encoding: 181 181 109
Width: 1187
VWidth: 2097
Flags: MW
LayerCount: 4
Fore
SplineSet
190 988 m 1,0,-1
 354 988 l 1,1,-1
 355 452 l 2,2,3
 355 377 355 377 362 326.5 c 128,-1,4
 369 276 369 276 397 227 c 0,5,6
 456 121 456 121 579 113 c 0,7,8
 675 106 675 106 843 189 c 1,9,-1
 843 988 l 1,10,-1
 1007 988 l 1,11,-1
 1007 0 l 1,12,-1
 892 0 l 1,13,-1
 863 67 l 1,14,15
 715 -28 715 -28 579 -27 c 128,-1,16
 443 -26 443 -26 354 53 c 1,17,-1
 354 -410 l 1,18,-1
 190 -410 l 1,19,-1
 190 988 l 1,0,-1
EndSplineSet
Layer: 3
SplineSet
190 988 m 1
 354 988 l 1
 355 452 l 2
 355.071 414.014 355.252 375.889 360.567 338.277 c 0
 365.881 300.665 376.49 263.514 394.908 230.292 c 0
 413.326 197.07 439.625 168.085 471.627 147.622 c 0
 503.629 127.158 540.99 115.484 578.878 112.762 c 0
 640.261 108.353 701.075 126.615 758 150 c 0
 814.562 173.236 869.162 201.007 923 230 c 1
 873 520 l 1
 1007 520 l 1
 1007 0 l 1
 892 0 l 1
 843 115 l 1
 843 988 l 1
 1007 988 l 1
 1007 348 l 2
 1007 316.05 1006.47 283.895 1000.22 252.562 c 0
 993.97 221.23 982.114 190.982 964.926 164.05 c 0
 930.548 110.185 876.734 71.4014 820 42 c 0
 741.661 1.40234 655.231 -27.7139 567 -27 c 0
 489.456 -26.373 411.846 1.42773 354 53.0732 c 1
 354 -410 l 1
 190 -410 l 1
 190 988 l 1
EndSplineSet
EndChar

StartChar: uni00AD
Encoding: 173 173 110
Width: 1074
VWidth: 2097
Flags: MW
LayerCount: 4
Fore
SplineSet
220 728 m 1,0,-1
 854 728 l 1,1,-1
 854 589 l 1,2,-1
 220 589 l 1,3,-1
 220 728 l 1,0,-1
EndSplineSet
Layer: 3
SplineSet
220 728 m 1
 854 728 l 1
 854 589 l 1
 220 589 l 1
 220 728 l 1
EndSplineSet
EndChar

StartChar: plusminus
Encoding: 177 177 111
Width: 1400
VWidth: 2097
Flags: MW
LayerCount: 4
Fore
SplineSet
627 1421 m 1,0,-1
 773 1421 l 1,1,-1
 773 1009 l 1,2,-1
 1180 1009 l 1,3,-1
 1180 872 l 1,4,-1
 773 872 l 1,5,-1
 773 461 l 1,6,-1
 627 461 l 1,7,-1
 627 872 l 1,8,-1
 220 872 l 1,9,-1
 220 1009 l 1,10,-1
 627 1009 l 1,11,-1
 627 1421 l 1,0,-1
220 287 m 1,12,-1
 1180 287 l 1,13,-1
 1180 150 l 1,14,-1
 220 150 l 1,15,-1
 220 287 l 1,12,-1
EndSplineSet
Layer: 3
SplineSet
220 287 m 1
 1180 287 l 1
 1180 150 l 1
 220 150 l 1
 220 287 l 1
627 1421 m 5
 773 1421 l 5
 773 461 l 5
 627 461 l 5
 627 1421 l 5
220 1009 m 5
 1180 1009 l 5
 1180 872 l 5
 220 872 l 5
 220 1009 l 5
EndSplineSet
EndChar

StartChar: ae
Encoding: 230 230 112
Width: 1674
VWidth: 0
Flags: MW
LayerCount: 4
Fore
SplineSet
286 274 m 0,0,1
 286 207 286 207 353 159 c 128,-1,2
 420 111 420 111 506 111 c 0,3,4
 633 111 633 111 724 207 c 1,5,-1
 724 437 l 1,6,7
 698 438 698 438 650 438 c 0,8,9
 468 438 468 438 377 402 c 128,-1,10
 286 366 286 366 286 274 c 0,0,1
1386 560 m 1,11,12
 1386 569 1386 569 1386 593.5 c 128,-1,13
 1386 618 1386 618 1380.5 654 c 128,-1,14
 1375 690 1375 690 1359 729 c 128,-1,15
 1343 768 1343 768 1319 797 c 0,16,17
 1264 864 1264 864 1173.5 864 c 128,-1,18
 1083 864 1083 864 1023 821 c 0,19,20
 906 737 906 737 897 560 c 1,21,-1
 1386 560 l 1,11,12
724 561 m 1,22,-1
 725 613 l 1,23,24
 725 802 725 802 580 854 c 0,25,26
 536 870 536 870 461.5 870 c 128,-1,27
 387 870 387 870 227 826 c 1,28,-1
 186 944 l 1,29,30
 353 1006 353 1006 519 1006 c 0,31,32
 753 1006 753 1006 836 832 c 1,33,34
 901 911 901 911 994.5 958.5 c 128,-1,35
 1088 1006 1088 1006 1191 1006 c 0,36,37
 1543 1006 1543 1006 1544 501 c 0,38,39
 1544 455 1544 455 1543 436 c 1,40,-1
 889 436 l 1,41,42
 889 429 889 429 889 423 c 0,43,44
 889 295 889 295 991 204 c 0,45,46
 1095 111 1095 111 1253 112 c 0,47,48
 1335 112 1335 112 1459 148 c 1,49,-1
 1486 36 l 1,50,51
 1337 -19 1337 -19 1190 -19 c 0,52,53
 946 -19 946 -19 821 131 c 1,54,55
 706 -20 706 -20 473 -20 c 0,56,57
 382 -20 382 -20 302 16.5 c 128,-1,58
 222 53 222 53 172.5 119.5 c 128,-1,59
 123 186 123 186 123 266 c 0,60,61
 123 378 123 378 215 457 c 128,-1,62
 307 536 307 536 483 553 c 0,63,64
 564 561 564 561 631 561 c 0,65,66
 707 561 707 561 724 561 c 1,22,-1
EndSplineSet
Layer: 3
SplineSet
186 944 m 5
 311.048 990.652 435.725 1006.06 519 1006 c 4
 683.101 1007.22 786.375 937.046 836 832 c 5
 919.301 932.896 1048.92 1006.33 1190.87 1006.33 c 4
 1473.37 1006.33 1543.65 767.369 1544 501 c 4
 1544.02 464.4 1543.65 448.176 1543 436 c 5
 889 436 l 5
 888.785 431.616 888.679 427.228 888.679 422.842 c 4
 888.679 254.932 1039.64 111.613 1253.23 111.613 c 4
 1332.66 111.613 1415.36 135.157 1459 148 c 5
 1486 36 l 5
 1374.73 -5.20703 1264.15 -19.3105 1190.15 -19.3105 c 4
 1054.59 -19.3105 911.184 22.917 821 131 c 5
 741.021 25.5342 620.156 -20.1533 472.688 -20.1533 c 4
 289.796 -20.1533 123.212 101.172 122.999 265.579 c 4
 122.999 408.162 239.42 528.987 483.157 553.286 c 4
 554.777 560.426 627.204 561 663.215 561 c 4
 677.429 561 703.736 560.781 724 561 c 5
 722.606 574.601 724.634 585.392 724.634 612.981 c 4
 724.634 729.832 675.475 870.062 478.837 870.062 c 4
 428.469 870.062 362.069 863.222 227 826 c 5
 186 944 l 5
1386.37 582.462 m 4
 1386.37 692.294 1341.72 864.019 1163.11 864.019 c 4
 996.39 864.019 904.888 719.422 897 560 c 5
 1386 560 l 5
 1386.25 566.146 1386.37 576.302 1386.37 582.462 c 4
286 274 m 4
 286 183 394 111 506 111 c 4
 594 111 671 151 724 207 c 5
 724 437 l 5
 698 438 674 438 650 438 c 4
 423 438 286 403 286 274 c 4
EndSplineSet
EndChar

StartChar: germandbls
Encoding: 223 223 113
Width: 1260
VWidth: 2097
Flags: MW
LayerCount: 4
Fore
SplineSet
602 1430 m 0,0,1
 664 1430 664 1430 721.5 1409.5 c 128,-1,2
 779 1389 779 1389 819 1355.5 c 128,-1,3
 859 1322 859 1322 887 1278 c 0,4,5
 942 1194 942 1194 942 1101 c 128,-1,6
 942 1008 942 1008 891 943 c 0,7,8
 851 894 851 894 804 859 c 128,-1,9
 757 824 757 824 734 804 c 0,10,11
 682 760 682 760 682 721 c 128,-1,12
 682 682 682 682 698 659 c 0,13,14
 723 622 723 622 801 592 c 1,15,-1
 873 565 l 1,16,17
 973 529 973 529 1014.5 501 c 128,-1,18
 1056 473 1056 473 1082 442 c 0,19,20
 1140 375 1140 375 1140 261 c 0,21,22
 1140 186 1140 186 1109.5 131.5 c 128,-1,23
 1079 77 1079 77 1044 46 c 0,24,25
 962 -26 962 -26 813 -26 c 128,-1,26
 664 -26 664 -26 504 21 c 1,27,-1
 535 137 l 1,28,29
 692 106 692 106 779 106 c 128,-1,30
 866 106 866 106 916.5 141 c 128,-1,31
 967 176 967 176 967 258 c 0,32,33
 967 334 967 334 910 376 c 0,34,35
 866 409 866 409 780 440 c 1,36,-1
 706 467 l 1,37,38
 571 519 571 519 534 614 c 0,39,40
 519 654 519 654 519 702 c 128,-1,41
 519 750 519 750 533.5 788 c 128,-1,42
 548 826 548 826 571 852 c 128,-1,43
 594 878 594 878 622.5 901.5 c 128,-1,44
 651 925 651 925 679 945.5 c 128,-1,45
 707 966 707 966 730 986 c 0,46,47
 782 1033 782 1033 782 1102.5 c 128,-1,48
 782 1172 782 1172 718.5 1227.5 c 128,-1,49
 655 1283 655 1283 578 1283 c 0,50,51
 489 1283 489 1283 426 1216 c 0,52,53
 366 1151 366 1151 366 1022 c 2,54,-1
 368 0 l 1,55,-1
 202 0 l 1,56,-1
 200 1023 l 2,57,58
 200 1265 200 1265 379 1372 c 0,59,60
 477 1430 477 1430 602 1430 c 0,0,1
EndSplineSet
Layer: 3
SplineSet
596.46 1430.19 m 0
 828.344 1430.19 942.43 1243.11 942.43 1101.02 c 0
 942.43 866.544 681.861 840 681.861 712.248 c 0
 681.861 523.56 1140.05 622.866 1140.05 260.664 c 0
 1140.05 161.906 1082.62 -26.0322 808.683 -26.0322 c 0
 733.985 -26.0322 618.817 -12.8203 504 21 c 1
 535 137 l 1
 620.939 120.039 704.609 106.108 775.045 106.108 c 0
 887.761 106.108 966.59 141.782 966.59 257.795 c 0
 966.59 502.768 518.797 384.978 518.797 705.365 c 0
 518.797 925.674 782.298 939 782.298 1091.14 c 0
 782.298 1203.73 674.674 1282.72 577.922 1283 c 0
 530.002 1283 365.539 1257.37 366 1022 c 2
 368 0 l 1
 202 0 l 1
 200 1023 l 2
 199.42 1319.78 415.783 1430.19 596.46 1430.19 c 0
EndSplineSet
EndChar

StartChar: multiply
Encoding: 215 215 114
Width: 1299
VWidth: 2097
Flags: MW
LayerCount: 4
Fore
SplineSet
288 194 m 1,0,-1
 182 299 l 1,1,-1
 537 654 l 1,2,-1
 190 1000 l 1,3,-1
 295 1105 l 1,4,-1
 656 744 l 1,5,-1
 1010 1099 l 1,6,-1
 1115 993 l 1,7,-1
 761 639 l 1,8,-1
 1108 292 l 1,9,-1
 1003 187 l 1,10,-1
 642 548 l 1,11,-1
 288 194 l 1,0,-1
EndSplineSet
Layer: 3
SplineSet
1003.29 187 m 1
 190.293 1000 l 1
 295.293 1105 l 1
 1108.29 292 l 1
 1003.29 187 l 1
288.222 194.071 m 1
 182.222 299.071 l 1
 580.383 697.232 l 1
 625.638 714.203 l 1
 1010.36 1098.93 l 1
 1115.36 992.929 l 1
 726.896 604.46 l 1
 685.883 591.732 l 1
 288.222 194.071 l 1
EndSplineSet
EndChar

StartChar: divide
Encoding: 247 247 115
Width: 1400
VWidth: 2097
Flags: MW
LayerCount: 4
Fore
SplineSet
125 727 m 1,0,-1
 1275 727 l 1,1,-1
 1275 588 l 1,2,-1
 125 588 l 1,3,-1
 125 727 l 1,0,-1
602 278 m 1,4,-1
 797 278 l 1,5,-1
 797 83 l 1,6,-1
 602 83 l 1,7,-1
 602 278 l 1,4,-1
602 1233 m 1,8,-1
 797 1233 l 1,9,-1
 797 1038 l 1,10,-1
 602 1038 l 1,11,-1
 602 1233 l 1,8,-1
EndSplineSet
Layer: 3
SplineSet
602 1233 m 1
 797 1233 l 1
 797 1038 l 1
 602 1038 l 1
 602 1233 l 1
602 278 m 1
 797 278 l 1
 797 83 l 1
 602 83 l 1
 602 278 l 1
125 727 m 5
 1275 727 l 5
 1275 588 l 1
 125 588 l 1
 125 727 l 5
EndSplineSet
EndChar

StartChar: oslash
Encoding: 248 248 116
Width: 1211
VWidth: 2097
Flags: MW
LayerCount: 4
Fore
SplineSet
1041 995 m 1
 1099 939 l 1
 168 -15 l 1
 110 41 l 1
 1041 995 l 1
EndSplineSet
Refer: 6 111 N 1 0 0 1 0 0 2
Layer: 3
SplineSet
1041 995 m 25
 1099 939 l 25
 168 -15 l 25
 110 41 l 25
 1041 995 l 25
EndSplineSet
Refer: 6 111 N 1 0 0 1 0 0 2
EndChar

StartChar: OE
Encoding: 338 338 118
Width: 1998
VWidth: 2097
Flags: MW
LayerCount: 4
Fore
SplineSet
805 1261 m 0,0,1
 557 1222 557 1222 451 1010 c 0,2,3
 390 888 390 888 384.5 706 c 0,4,5
 378 524 378 524 458 392 c 0,6,7
 577 195 577 195 791 158 c 0,8,9
 840 150 840 150 924 150 c 2,10,-1
 1050 150 l 1,11,-1
 1050 1271 l 1,12,-1
 993 1271 l 2,13,14
 870 1271 870 1271 805 1261 c 0,0,1
696 1391 m 0,15,16
 821 1421 821 1421 1062 1421 c 2,17,-1
 1838 1421 l 1,18,-1
 1838 1271 l 1,19,-1
 1220 1271 l 1,20,-1
 1220 807 l 1,21,-1
 1783 807 l 1,22,-1
 1783 657 l 1,23,-1
 1220 657 l 1,24,-1
 1220 150 l 1,25,-1
 1838 150 l 1,26,-1
 1838 0 l 1,27,-1
 973 0 l 2,28,29
 718 0 718 0 568 63 c 128,-1,30
 418 126 418 126 325 271 c 0,31,32
 212 447 212 447 215 715 c 0,33,34
 218 1044 218 1044 391 1224 c 0,35,36
 508 1346 508 1346 696 1391 c 0,15,16
EndSplineSet
Layer: 3
SplineSet
696 1391 m 0
 815.313 1419.71 939.283 1421 1062 1421 c 2
 1220 1421 l 1
 1220 537 l 1
 1220 0 l 1
 973 0 l 2
 839.256 0 702.151 5.83385 579 58 c 0
 475.681 101.765 385.57 176.546 325 271 c 0
 241.538 401.153 213.483 560.392 215 715 c 0
 215.902 806.945 227.258 899.242 254.752 986.985 c 0
 282.246 1074.73 327.406 1157.59 391 1224 c 0
 472.293 1308.89 581.722 1363.51 696 1391 c 0
628 1200 m 0
 552.049 1155.96 490.606 1088.35 451 1010 c 0
 407.106 923.164 388.053 825.252 385 728 c 0
 381.223 607.703 402.592 483.912 465 381 c 0
 512.385 302.861 582.831 238.99 665 199 c 0
 704.903 179.58 747.572 165.875 791.309 158.364 c 0
 835.047 150.853 879.622 150 924 150 c 2
 1050 150 l 1
 1050 529 l 1
 1050 1271 l 1
 993 1271 l 2
 930.218 1271 867.151 1270.57 805.144 1260.74 c 0
 743.137 1250.9 682.313 1231.49 628 1200 c 0
1117 657 m 1
 1117 807 l 1
 1783 807 l 1
 1783 657 l 1
 1117 657 l 1
1117 0 m 1
 1117 150 l 1
 1838 150 l 1
 1838 0 l 1
 1117 0 l 1
1117 1271 m 1
 1117 1421 l 1
 1838 1421 l 1
 1838 1271 l 1
 1117 1271 l 1
EndSplineSet
EndChar

StartChar: oe
Encoding: 339 339 119
Width: 1803
VWidth: 0
Flags: MW
LayerCount: 4
Fore
SplineSet
849 320.5 m 128,-1,1
 871 389 871 389 871 481 c 128,-1,2
 871 573 871 573 845 650 c 128,-1,3
 819 727 819 727 776 772 c 0,4,5
 689 862 689 862 569 862 c 128,-1,6
 449 862 449 862 369.5 760 c 128,-1,7
 290 658 290 658 290 502 c 0,8,9
 290 396 290 396 327.5 308.5 c 128,-1,10
 365 221 365 221 435 169.5 c 128,-1,11
 505 118 505 118 578 118 c 128,-1,12
 651 118 651 118 700.5 141 c 128,-1,13
 750 164 750 164 788.5 208 c 128,-1,0
 827 252 827 252 849 320.5 c 128,-1,1
1026 531 m 1,14,-1
 1516 531 l 1,15,16
 1516 541 1516 541 1516 551 c 0,17,18
 1516 708 1516 708 1455.5 781.5 c 128,-1,19
 1395 855 1395 855 1277.5 855 c 128,-1,20
 1160 855 1160 855 1094 757 c 128,-1,21
 1028 659 1028 659 1026 531 c 1,14,-1
594 1002 m 0,22,23
 845 1002 845 1002 960 805 c 1,24,25
 1085 998 1085 998 1321 997 c 0,26,27
 1554 997 1554 997 1638 779 c 0,28,29
 1656 733 1656 733 1664.5 678.5 c 128,-1,30
 1673 624 1673 624 1673 504 c 2,31,-1
 1673 407 l 1,32,-1
 1022 407 l 1,33,34
 1026 266 1026 266 1149 175 c 0,35,36
 1239 108 1239 108 1380 108 c 0,37,38
 1471 108 1471 108 1589 144 c 1,39,-1
 1616 32 l 1,40,41
 1469 -23 1469 -23 1316 -23 c 0,42,43
 1051 -23 1051 -23 937 160 c 1,44,45
 812 -22 812 -22 576 -22 c 0,46,47
 374 -22 374 -22 252 116 c 128,-1,48
 130 254 130 254 130 488 c 128,-1,49
 130 722 130 722 257 862 c 128,-1,50
 384 1002 384 1002 594 1002 c 0,22,23
EndSplineSet
Layer: 3
SplineSet
1320.78 997.094 m 4
 1593.76 997.094 1652.25 752.66 1662 692 c 4
 1671.96 629.994 1673 567 1673 504 c 6
 1673 407 l 5
 1022 407 l 5
 1026.08 274.501 1135.09 107.979 1379.87 107.979 c 4
 1408.06 107.979 1476.24 109.682 1589 144 c 5
 1616 32 l 5
 1535.79 1.9209 1431.99 -23 1316 -23 c 4
 1098.89 -23 990.71 73.6289 936.961 160.3 c 5
 857.369 43.8965 731.583 -22.002 576.357 -22.002 c 4
 308.933 -22.002 129.989 175.371 129.989 486.251 c 4
 129.989 802.954 315.694 1002 594.252 1002 c 4
 764.554 1002 888.265 927.66 959.666 804.546 c 5
 1071.54 976.343 1243.29 997.094 1320.78 997.094 c 4
1286.51 854.748 m 4
 1113.3 854.748 1028.54 693.456 1026 531 c 5
 1516 531 l 5
 1516.16 537.649 1516.24 544.298 1516.24 550.943 c 4
 1516.24 768.501 1424.35 854.748 1286.51 854.748 c 4
871.024 474.295 m 4
 871.024 748.225 716.615 862 577 862 c 4
 404.123 861.482 289.946 707.027 289.946 502.142 c 4
 289.946 289.714 411.607 117.998 594.099 117.998 c 4
 743.275 117.998 871.024 240.288 871.024 474.295 c 4
EndSplineSet
EndChar

StartChar: AE
Encoding: 198 198 120
Width: 1915
VWidth: 2097
Flags: MW
LayerCount: 4
Fore
SplineSet
685 1421 m 1,0,-1
 1755 1421 l 1,1,-1
 1755 1271 l 1,2,-1
 1137 1271 l 1,3,-1
 1137 807 l 1,4,-1
 1700 807 l 1,5,-1
 1700 657 l 1,6,-1
 1137 657 l 1,7,-1
 1137 150 l 1,8,-1
 1755 150 l 1,9,-1
 1755 0 l 1,10,-1
 967 0 l 1,11,-1
 967 413 l 1,12,-1
 452 414 l 1,13,-1
 292 0 l 1,14,-1
 130 0 l 1,15,-1
 685 1421 l 1,0,-1
510 562 m 1,16,-1
 967 562 l 1,17,-1
 967 1271 l 1,18,-1
 784 1271 l 1,19,-1
 510 562 l 1,16,-1
EndSplineSet
Layer: 3
SplineSet
685 1421 m 1
 1755 1421 l 1
 1755 1271 l 1
 1137 1271 l 1
 1137 807 l 1
 1700 807 l 1
 1700 657 l 1
 1137 657 l 1
 1137 150 l 1
 1755 150 l 1
 1755 0 l 1
 967 0 l 1
 967 413 l 1
 376 414 l 1
 463 562 l 1
 967 562 l 1
 967 1271 l 1
 784.048 1271 l 1
 292 0 l 1
 130 0 l 1
 685 1421 l 1
EndSplineSet
EndChar

StartChar: onequarter
Encoding: 188 188 121
Width: 1770
VWidth: 0
Flags: MW
LayerCount: 4
Fore
SplineSet
1180 1421 m 1,0,-1
 1355 1421 l 1,1,-1
 535 0 l 1,2,-1
 359 0 l 1,3,-1
 1180 1421 l 1,0,-1
341 1421 m 1,4,-1
 453 1421 l 1,5,-1
 453 618 l 1,6,-1
 320 618 l 1,7,-1
 320 1291 l 1,8,-1
 180 1252 l 1,9,-1
 150 1369 l 1,10,-1
 341 1421 l 1,4,-1
1391 836 m 1,11,-1
 1548 836 l 1,12,-1
 1548 305 l 1,13,-1
 1655 305 l 1,14,-1
 1655 195 l 1,15,-1
 1548 195 l 1,16,-1
 1548 0 l 1,17,-1
 1415 0 l 1,18,-1
 1415 195 l 1,19,-1
 1025 195 l 1,20,-1
 1025 284 l 1,21,-1
 1391 836 l 1,11,-1
1415 688 m 1,22,-1
 1174 305 l 1,23,-1
 1415 305 l 1,24,-1
 1415 688 l 1,22,-1
EndSplineSet
Layer: 3
SplineSet
1415 688 m 1
 1174 305 l 1
 1415 305 l 1
 1415 688 l 1
1391 836 m 1
 1548 836 l 1
 1548 305 l 1
 1655 305 l 1
 1655 195 l 1
 1548 195 l 1
 1548 0 l 1
 1415 0 l 1
 1415 195 l 1
 1025 195 l 1
 1025 284 l 1
 1391 836 l 1
341 1421 m 1
 453 1421 l 1
 453 618 l 1
 320 618 l 1
 320 1291 l 1
 180 1252 l 1
 150 1369 l 1
 341 1421 l 1
1180 1421 m 1
 1355 1421 l 1
 535 0 l 1
 359 0 l 1
 1180 1421 l 1
EndSplineSet
EndChar

StartChar: onehalf
Encoding: 189 189 122
Width: 1797
VWidth: 0
Flags: MW
LayerCount: 4
Fore
SplineSet
1180 1421 m 1,0,-1
 1355 1421 l 1,1,-1
 535 0 l 1,2,-1
 359 0 l 1,3,-1
 1180 1421 l 1,0,-1
1138 773 m 1,4,5
 1279 842 1279 842 1398 842 c 128,-1,6
 1517 842 1517 842 1595 781 c 128,-1,7
 1673 720 1673 720 1673 624 c 0,8,9
 1673 544 1673 544 1618 476 c 0,10,11
 1593 445 1593 445 1560 415 c 2,12,-1
 1493 353 l 1,13,14
 1405 273 1405 273 1367 218.5 c 128,-1,15
 1329 164 1329 164 1309 116 c 1,16,-1
 1687 116 l 1,17,-1
 1687 -0 l 1,18,-1
 1156 -0 l 1,19,-1
 1156 72 l 1,20,21
 1218 271 1218 271 1423 452 c 0,22,23
 1505 524 1505 524 1524 554.5 c 128,-1,24
 1543 585 1543 585 1543 608 c 0,25,26
 1543 655 1543 655 1497 691.5 c 128,-1,27
 1451 728 1451 728 1384.5 728 c 128,-1,28
 1318 728 1318 728 1179 673 c 1,29,-1
 1138 773 l 1,4,5
341 1421 m 1,30,-1
 453 1421 l 1,31,-1
 453 618 l 1,32,-1
 320 618 l 1,33,-1
 320 1291 l 1,34,-1
 180 1252 l 1,35,-1
 150 1369 l 1,36,-1
 341 1421 l 1,30,-1
EndSplineSet
Layer: 3
SplineSet
341 1421 m 1
 453 1421 l 1
 453 618 l 1
 320 618 l 1
 320 1291 l 1
 180 1252 l 1
 150 1369 l 1
 341 1421 l 1
1401.38 842.32 m 0
 1552.53 842.596 1672.69 754.849 1672.69 623.663 c 0
 1672.69 421.582 1406.58 357.133 1309.45 115.199 c 1
 1686.95 115.199 l 1
 1686.95 -0.300781 l 1
 1155.65 -0.300781 l 1
 1156.4 71.708 l 1
 1257.88 397.383 1543.09 493.215 1543.09 608.396 c 0
 1543.09 668.884 1475.65 728.053 1383.94 728.053 c 0
 1340.7 728.053 1289.85 716.899 1178.73 672.933 c 1
 1138.07 772.846 l 1
 1201.82 804.25 1290.87 842.112 1401.38 842.32 c 0
1180 1421 m 1
 1355 1421 l 1
 535 0 l 1
 359 0 l 1
 1180 1421 l 1
EndSplineSet
EndChar

StartChar: threequarters
Encoding: 190 190 123
Width: 1851
VWidth: 0
Flags: MW
LayerCount: 4
Fore
SplineSet
1271 1421 m 1,0,-1
 1446 1421 l 1,1,-1
 626 0 l 1,2,-1
 450 0 l 1,3,-1
 1271 1421 l 1,0,-1
1472 836 m 1,4,-1
 1629 836 l 1,5,-1
 1629 305 l 1,6,-1
 1736 305 l 1,7,-1
 1736 195 l 1,8,-1
 1629 195 l 1,9,-1
 1629 0 l 1,10,-1
 1496 0 l 1,11,-1
 1496 195 l 1,12,-1
 1106 195 l 1,13,-1
 1106 284 l 1,14,-1
 1472 836 l 1,4,-1
1496 688 m 1,15,-1
 1255 305 l 1,16,-1
 1496 305 l 1,17,-1
 1496 688 l 1,15,-1
563 1392.5 m 128,-1,19
 635 1335 635 1335 635 1234.5 c 128,-1,20
 635 1134 635 1134 541 1073 c 1,21,22
 669 1020 669 1020 669 889 c 128,-1,23
 669 758 669 758 578.5 680 c 128,-1,24
 488 602 488 602 350 601 c 1,25,-1
 347 601 l 2,26,27
 247 601 247 601 125 650 c 1,28,-1
 162 756 l 1,29,30
 293 721 293 721 361 721 c 128,-1,31
 429 721 429 721 485 760.5 c 128,-1,32
 541 800 541 800 541 862 c 0,33,34
 542 911 542 911 508 943 c 0,35,36
 446 1002 446 1002 320 1002 c 2,37,-1
 292 1002 l 1,38,-1
 292 1115 l 1,39,-1
 309 1115 l 1,40,41
 416 1118 416 1118 462 1153.5 c 128,-1,42
 508 1189 508 1189 508 1231 c 128,-1,43
 508 1273 508 1273 471 1302.5 c 128,-1,44
 434 1332 434 1332 363.5 1332 c 128,-1,45
 293 1332 293 1332 184 1281 c 1,46,-1
 140 1385 l 1,47,48
 270 1450 270 1450 380.5 1450 c 128,-1,18
 491 1450 491 1450 563 1392.5 c 128,-1,19
EndSplineSet
Layer: 3
SplineSet
541 1073 m 1
 635 1034 669 959 669 882 c 0
 669 714 532 602 350 601 c 1
 347 601 l 2
 284 601 212 615 140 644 c 2
 125 650 l 1
 162 756 l 1
 177 752 l 2
 272 726 316 721 351 721 c 0
 453 721 541 778 541 862 c 0
 541 918 497 1002 320 1002 c 2
 292 1002 l 1
 292 1115 l 1
 309 1115 l 2
 468 1119 508 1186 508 1233 c 0
 508 1283 460 1332 371 1332 c 0
 302 1332 234 1304 199 1288 c 2
 184 1281 l 1
 140 1385 l 1
 154 1392 l 2
 206 1417 292 1450 383 1450 c 0
 526 1450 635 1365 635 1248 c 0
 635 1174 598 1110 541 1073 c 1
1496 688 m 1
 1255 305 l 1
 1496 305 l 1
 1496 688 l 1
1472 836 m 1
 1629 836 l 1
 1629 305 l 1
 1736 305 l 1
 1736 195 l 1
 1629 195 l 1
 1629 0 l 1
 1496 0 l 1
 1496 195 l 1
 1106 195 l 1
 1106 284 l 1
 1472 836 l 1
1271 1421 m 1
 1446 1421 l 1
 626 0 l 1
 450 0 l 1
 1271 1421 l 1
EndSplineSet
EndChar

StartChar: degree
Encoding: 176 176 124
Width: 589
Flags: MW
LayerCount: 4
Fore
SplineSet
385.5 1328 m 128,-1,1
 349 1368 349 1368 294.5 1368 c 128,-1,2
 240 1368 240 1368 202.5 1328.5 c 128,-1,3
 165 1289 165 1289 165 1235 c 128,-1,4
 165 1181 165 1181 201.5 1141 c 128,-1,5
 238 1101 238 1101 293.5 1101 c 128,-1,6
 349 1101 349 1101 385.5 1141.5 c 128,-1,7
 422 1182 422 1182 422 1235 c 128,-1,0
 422 1288 422 1288 385.5 1328 c 128,-1,1
294 1459 m 128,-1,9
 384 1459 384 1459 449 1393.5 c 128,-1,10
 514 1328 514 1328 514 1235 c 128,-1,11
 514 1142 514 1142 449.5 1076 c 128,-1,12
 385 1010 385 1010 295 1010 c 128,-1,13
 205 1010 205 1010 140 1075.5 c 128,-1,14
 75 1141 75 1141 75 1234.5 c 128,-1,15
 75 1328 75 1328 139.5 1393.5 c 128,-1,8
 204 1459 204 1459 294 1459 c 128,-1,9
EndSplineSet
Layer: 3
SplineSet
294 1459 m 0
 413 1459 514 1360 514 1235 c 0
 514 1110 415 1010 295 1010 c 0
 176 1010 75 1109 75 1235 c 0
 75 1359 174 1459 294 1459 c 0
295 1368 m 0
 220 1368 165 1306 165 1235 c 0
 165 1166 217 1101 295 1101 c 0
 369 1101 422 1166 422 1235 c 0
 422 1304 369 1368 295 1368 c 0
EndSplineSet
EndChar

StartChar: cedilla
Encoding: 184 184 126
Width: 1101
VWidth: 0
Flags: MW
LayerCount: 4
Fore
SplineSet
547 22 m 1,0,-1
 674 22 l 1,1,-1
 634 -135 l 1,2,-1
 660 -143 l 2,3,4
 710 -158 710 -158 741 -176 c 0,5,6
 811 -217 811 -217 817 -300 c 0,7,8
 825 -395 825 -395 745 -456 c 0,9,10
 665 -516 665 -516 534 -487 c 0,11,12
 507 -481 507 -481 420 -456 c 2,13,-1
 386 -446 l 1,14,-1
 412 -355 l 1,15,-1
 442 -364 l 2,16,17
 575 -403 575 -403 615 -402 c 0,18,19
 695 -400 695 -400 714 -349 c 0,20,21
 728 -311 728 -311 707 -286 c 128,-1,22
 686 -261 686 -261 666 -252 c 128,-1,23
 646 -243 646 -243 614 -233 c 2,24,-1
 489 -195 l 1,25,-1
 547 22 l 1,0,-1
EndSplineSet
Layer: 3
SplineSet
547 22 m 1
 674 22 l 1
 629 -156 l 1
 610 -128 l 1
 660 -143 l 2
 685.824 -150.747 711.742 -159.082 734.984 -172.749 c 0
 758.225 -186.415 778.572 -205.224 793 -228 c 0
 806.751 -249.708 815.089 -274.793 817.219 -300.401 c 0
 819.349 -326.009 815.332 -352.058 806 -376 c 0
 793.694 -407.571 772.152 -435.381 745.062 -455.737 c 0
 717.974 -476.093 685.494 -488.867 652 -494 c 0
 612.934 -499.986 572.919 -495.792 534.28 -487.481 c 0
 495.641 -479.171 457.89 -467.24 420 -456 c 0
 408.674 -452.64 397.342 -449.304 386 -446 c 1
 412 -355 l 1
 421.986 -358.045 431.987 -361.045 442 -364 c 0
 471.826 -372.801 501.723 -381.396 531.922 -388.816 c 0
 562.121 -396.237 592.915 -402.868 624 -402 c 0
 642.509 -401.483 661.214 -397.964 677.566 -389.278 c 0
 693.918 -380.591 707.594 -366.373 714 -349 c 0
 718.378 -337.127 719.314 -324.021 716.748 -311.63 c 0
 714.182 -299.238 708.18 -287.655 700 -278 c 0
 689.388 -265.475 675.311 -256.257 660.402 -249.384 c 0
 645.493 -242.512 629.707 -237.775 614 -233 c 2
 489 -195 l 1
 547 22 l 1
EndSplineSet
EndChar

StartChar: Ccedilla
Encoding: 199 199 127
Width: 1451
VWidth: 0
Flags: MW
LayerCount: 4
Fore
SplineSet
772 25 m 1
 916 19 l 1
 878 -135 l 1
 946 -155 946 -155 977 -174 c 0
 1049 -216 1049 -216 1057 -301 c 0
 1065 -397 1065 -397 985 -461 c 0
 902 -526 902 -526 766 -497 c 0
 738 -491 738 -491 642 -463 c 2
 608 -453 l 1
 638 -349 l 1
 668 -358 l 2
 811 -400 811 -400 849 -399 c 0
 922 -397 922 -397 940 -352 c 0
 954 -319 954 -319 936 -294 c 0
 918 -270 918 -270 899 -261 c 0
 880 -252 880 -252 848 -242 c 2
 710 -201 l 1
 772 25 l 1
EndSplineSet
Refer: 54 67 N 1 0 0 1 0 0 3
Layer: 3
SplineSet
772.5 25.2939 m 1
 916.5 19.2939 l 1
 871.5 -158.706 l 1
 843.5 -124.706 l 1
 893.5 -139.706 l 2
 920.172 -147.708 946.945 -156.258 971.054 -170.193 c 0
 995.162 -184.129 1016.39 -203.313 1031.5 -226.706 c 0
 1045.92 -249.043 1054.7 -274.97 1056.97 -301.462 c 0
 1059.25 -327.954 1055.11 -354.913 1045.5 -379.706 c 0
 1033.18 -411.489 1011.9 -439.658 985.087 -460.698 c 0
 958.27 -481.739 926.021 -495.522 892.5 -501.706 c 0
 850.614 -509.433 807.326 -505.434 765.654 -496.627 c 0
 723.982 -487.821 683.33 -474.83 642.5 -462.706 c 0
 631.176 -459.343 619.843 -456.007 608.5 -452.706 c 1
 638.5 -348.706 l 1
 648.485 -351.755 658.485 -354.754 668.5 -357.706 c 0
 699.518 -366.849 730.618 -375.734 761.948 -383.741 c 0
 793.278 -391.748 825.172 -399.482 857.5 -398.706 c 0
 874.349 -398.302 891.374 -395.23 906.381 -387.561 c 0
 921.388 -379.89 934.117 -367.304 940.5 -351.706 c 0
 944.769 -341.276 946.157 -329.691 944.506 -318.544 c 0
 942.854 -307.396 938.203 -296.765 931.5 -287.706 c 0
 921.828 -274.634 908.109 -264.99 893.432 -257.99 c 0
 878.754 -250.991 863.079 -246.368 847.5 -241.706 c 2
 710.5 -200.706 l 1
 772.5 25.2939 l 1
EndSplineSet
Refer: 54 67 N 1 0 0 1 0 0 3
EndChar

StartChar: dieresis
Encoding: 168 168 128
Width: 1200
VWidth: 0
Flags: MW
LayerCount: 4
Fore
SplineSet
732 1420 m 1,0,-1
 917 1420 l 1,1,-1
 917 1235 l 1,2,-1
 732 1235 l 1,3,-1
 732 1420 l 1,0,-1
283 1420 m 1,4,-1
 468 1420 l 1,5,-1
 468 1235 l 1,6,-1
 283 1235 l 1,7,-1
 283 1420 l 1,4,-1
EndSplineSet
Layer: 3
SplineSet
283 1420 m 5
 468 1420 l 5
 468 1235 l 5
 283 1235 l 5
 283 1420 l 5
732 1420 m 5
 917 1420 l 5
 917 1235 l 5
 732 1235 l 5
 732 1420 l 5
EndSplineSet
EndChar

StartChar: Idieresis
Encoding: 207 207 131
Width: 670
VWidth: 0
Flags: MW
LayerCount: 4
Fore
SplineSet
477 1824 m 1,0,-1
 662 1824 l 1,1,-1
 662 1639 l 1,2,-1
 477 1639 l 1,3,-1
 477 1824 l 1,0,-1
88 1824 m 1,4,-1
 273 1824 l 1,5,-1
 273 1639 l 1,6,-1
 88 1639 l 1,7,-1
 88 1824 l 1,4,-1
290 1421 m 1,8,-1
 460 1421 l 1,9,-1
 460 0 l 1,10,-1
 290 0 l 1,11,-1
 290 1421 l 1,8,-1
EndSplineSet
Layer: 3
SplineSet
290 1421 m 1
 460 1421 l 1
 460 0 l 1
 290 0 l 1
 290 1421 l 1
88 1824 m 1
 273 1824 l 1
 273 1639 l 1
 88 1639 l 1
 88 1824 l 1
477 1824 m 5
 662 1824 l 5
 662 1639 l 5
 477 1639 l 5
 477 1824 l 5
EndSplineSet
EndChar

StartChar: idieresis
Encoding: 239 239 136
Width: 524
VWidth: 0
Flags: MW
LayerCount: 4
Fore
SplineSet
354 1421 m 1
 539 1421 l 1
 539 1236 l 1
 354 1236 l 1
 354 1421 l 1
-15 1421 m 1
 170 1421 l 1
 170 1236 l 1
 -15 1236 l 1
 -15 1421 l 1
EndSplineSet
Refer: 140 305 N 1 0 0 1 0 0 3
Layer: 3
SplineSet
-15 1421 m 5
 170 1421 l 5
 170 1236 l 5
 -15 1236 l 5
 -15 1421 l 5
354 1421 m 5
 539 1421 l 5
 539 1236 l 5
 354 1236 l 5
 354 1421 l 5
EndSplineSet
Refer: 140 305 N 1 0 0 1 0 0 3
EndChar

StartChar: dotlessi
Encoding: 305 305 140
Width: 524
VWidth: 2097
Flags: MW
LayerCount: 4
Fore
SplineSet
180 988 m 1,0,-1
 344 988 l 1,1,-1
 344 0 l 1,2,-1
 180 0 l 1,3,-1
 180 988 l 1,0,-1
EndSplineSet
Layer: 3
SplineSet
180 988 m 1
 344 988 l 1
 344 0 l 1
 180 0 l 1
 180 988 l 1
EndSplineSet
EndChar

StartChar: uni00B2
Encoding: 178 178 146
Width: 800
VWidth: 0
Flags: MW
LayerCount: 4
Fore
SplineSet
130 1461 m 1,0,1
 258 1524 258 1524 366 1524 c 128,-1,2
 474 1524 474 1524 545 1468.5 c 128,-1,3
 616 1413 616 1413 616 1325 c 0,4,5
 616 1241 616 1241 550 1173 c 0,6,7
 521 1143 521 1143 484 1108 c 2,8,-1
 411 1040 l 2,9,10
 326 963 326 963 286 863 c 1,11,-1
 629 863 l 1,12,-1
 629 758 l 1,13,-1
 146 758 l 1,14,-1
 147 823 l 1,15,16
 190 960 190 960 279 1059 c 0,17,18
 354 1141 354 1141 406 1186 c 0,19,20
 498 1266 498 1266 498 1310 c 128,-1,21
 498 1354 498 1354 456 1387 c 128,-1,22
 414 1420 414 1420 354 1420 c 128,-1,23
 294 1420 294 1420 167 1370 c 1,24,-1
 130 1461 l 1,0,1
EndSplineSet
Layer: 3
SplineSet
369.391 1524.02 m 4
 506.798 1524.27 616.038 1444.5 616.038 1325.24 c 4
 616.038 1141.53 374.117 1082.94 285.814 863 c 5
 629 863 l 5
 629 758 l 5
 146 758 l 5
 146.68 823.463 l 5
 238.939 1119.53 498.224 1206.65 498.224 1311.36 c 4
 498.224 1366.35 436.907 1420.14 353.539 1420.14 c 4
 314.228 1420.14 268 1410 166.984 1370.03 c 5
 130.019 1460.86 l 5
 187.976 1489.41 268.925 1523.83 369.391 1524.02 c 4
EndSplineSet
EndChar

StartChar: uni00B3
Encoding: 179 179 147
Width: 800
VWidth: 2097
Flags: MW
LayerCount: 4
Fore
SplineSet
522.5 1469 m 128,-1,1
 588 1417 588 1417 588 1325 c 128,-1,2
 588 1233 588 1233 503 1179 c 1,3,4
 619 1131 619 1131 619 1011.5 c 128,-1,5
 619 892 619 892 537 821.5 c 128,-1,6
 455 751 455 751 329 750 c 2,7,-1
 327 750 l 2,8,9
 235 750 235 750 125 794 c 1,10,-1
 158 890 l 1,11,12
 271 859 271 859 336 859 c 128,-1,13
 401 859 401 859 452 895 c 128,-1,14
 503 931 503 931 503 983.5 c 128,-1,15
 503 1036 503 1036 456.5 1075 c 128,-1,16
 410 1114 410 1114 302 1114 c 2,17,-1
 277 1114 l 1,18,-1
 277 1217 l 1,19,20
 430 1221 430 1221 465 1289 c 0,21,22
 473 1306 473 1306 473 1333.5 c 128,-1,23
 473 1361 473 1361 439.5 1387.5 c 128,-1,24
 406 1414 406 1414 342 1414 c 128,-1,25
 278 1414 278 1414 178 1368 c 1,26,-1
 139 1462 l 1,27,28
 259 1521 259 1521 358 1521 c 128,-1,0
 457 1521 457 1521 522.5 1469 c 128,-1,1
EndSplineSet
Layer: 3
SplineSet
502.649 1178.82 m 5
 588.396 1143.43 619 1075.26 619 1005 c 4
 619 851.854 494.291 751.046 329.048 750 c 5
 327 750 l 6
 269.833 750 204.102 762.394 138.354 789.104 c 6
 125.15 794.467 l 5
 158.447 890.195 l 5
 171.989 886.46 l 6
 258.35 862.637 298.418 859 330 859 c 4
 422.6 859 503 910.2 503 987 c 4
 503 1037.8 462.8 1114 302 1114 c 6
 277 1114 l 5
 277 1216.62 l 5
 291.615 1217 l 6
 436.146 1220.7 473 1281.2 473 1324 c 4
 473 1369.62 428.636 1414 348 1414 c 4
 285.715 1414 224.51 1389.25 192.286 1374.38 c 6
 178.159 1367.86 l 5
 138.707 1462.26 l 5
 151.412 1468.48 l 6
 198.391 1491.44 275.965 1521 359 1521 c 4
 488.849 1521 588 1444.48 588 1338 c 4
 588 1270.51 554.687 1212.13 502.649 1178.82 c 5
EndSplineSet
EndChar

StartChar: acute
Encoding: 180 180 148
Width: 1122
VWidth: 2097
Flags: MW
LayerCount: 4
Fore
SplineSet
778 1585 m 1,0,-1
 848 1462 l 1,1,-1
 336 1167 l 1,2,-1
 274 1275 l 1,3,-1
 778 1585 l 1,0,-1
EndSplineSet
Layer: 3
SplineSet
778 1585 m 1
 848 1462 l 1
 336 1167 l 1
 274 1275 l 1
 778 1585 l 1
EndSplineSet
EndChar

StartChar: uni00B9
Encoding: 185 185 149
Width: 543
VWidth: 0
Flags: MW
LayerCount: 4
Fore
SplineSet
251 1511 m 1,0,-1
 343 1511 l 1,1,-1
 343 760 l 1,2,-1
 230 760 l 1,3,-1
 230 1403 l 1,4,-1
 85 1362 l 1,5,-1
 60 1459 l 1,6,-1
 251 1511 l 1,0,-1
EndSplineSet
Layer: 3
SplineSet
251 1511 m 1
 343 1511 l 1
 343 760 l 1
 230 760 l 1
 230 1403 l 1
 85 1362 l 1
 60 1459 l 1
 251 1511 l 1
EndSplineSet
EndChar

StartChar: ordmasculine
Encoding: 186 186 150
Width: 762
VWidth: 2097
Flags: MW
LayerCount: 4
Fore
SplineSet
181 1149 m 0,0,1
 181 950 181 950 277 884 c 0,2,3
 324 852 324 852 371 852 c 128,-1,4
 418 852 418 852 449.5 864.5 c 0,5,6
 480 876 480 876 512 906 c 0,7,8
 580 970 580 970 581 1142 c 0,9,10
 581 1325 581 1325 486 1386 c 0,11,12
 439 1416 439 1416 391 1416 c 0,13,14
 305 1416 305 1416 243 1359 c 128,-1,15
 181 1302 181 1302 181 1149 c 0,0,1
372 1519 m 0,16,17
 422 1519 422 1519 459.5 1511.5 c 128,-1,18
 497 1504 497 1504 541.5 1479.5 c 128,-1,19
 586 1455 586 1455 618 1416 c 0,20,21
 694 1324 694 1324 694.5 1143.5 c 128,-1,22
 695 963 695 963 605.5 857.5 c 128,-1,23
 516 752 516 752 380 752 c 0,24,25
 250 752 250 752 164 834 c 0,26,27
 66 927 66 927 67 1146 c 0,28,29
 67 1330 67 1330 166 1428 c 0,30,31
 259 1520 259 1520 372 1519 c 0,16,17
EndSplineSet
Layer: 3
SplineSet
382 1519 m 4
 498 1519 695 1467 695 1145 c 4
 695 895 555 752 380 752 c 4
 221 752 67 843 67 1146 c 4
 67 1399 225 1519 382 1519 c 4
380 1416 m 4
 289 1415 181 1361 181 1149 c 4
 181 897 302 852 382 852 c 4
 467 852 581 903 581 1142 c 4
 581 1374 463 1416 380 1416 c 4
EndSplineSet
EndChar

StartChar: agrave
Encoding: 224 224 166
Width: 1069
VWidth: 0
Flags: MW
LayerCount: 4
Fore
SplineSet
445 1549 m 1
 809 1225 l 1
 729 1125 l 1
 353 1440 l 1
 445 1549 l 1
EndSplineSet
Refer: 0 97 N 1 0 0 1 0 0 3
Layer: 3
SplineSet
445.004 1549 m 29
 809.004 1225 l 29
 729.004 1125 l 29
 353.004 1440 l 29
 445.004 1549 l 29
EndSplineSet
Refer: 0 97 N 1 0 0 1 0 0 3
EndChar

StartChar: aacute
Encoding: 225 225 167
Width: 1069
VWidth: 0
Flags: MW
LayerCount: 4
Fore
SplineSet
676 1549 m 1
 768 1440 l 1
 392 1125 l 1
 312 1225 l 1
 676 1549 l 1
EndSplineSet
Refer: 0 97 N 1 0 0 1 0 0 3
Layer: 3
SplineSet
676.004 1549 m 29
 312.004 1225 l 29
 392.004 1125 l 29
 768.004 1440 l 29
 676.004 1549 l 29
EndSplineSet
Refer: 0 97 N 1 0 0 1 0 0 3
EndChar

StartChar: egrave
Encoding: 232 232 171
Width: 1102
VWidth: 0
Flags: MW
LayerCount: 4
Fore
SplineSet
460 1549 m 1
 824 1225 l 1
 744 1125 l 1
 368 1440 l 1
 460 1549 l 1
EndSplineSet
Refer: 2 101 N 1 0 0 1 0 0 3
Layer: 3
SplineSet
460 1549 m 29
 824 1225 l 29
 744 1125 l 29
 368 1440 l 29
 460 1549 l 29
EndSplineSet
Refer: 2 101 N 1 0 0 1 0 0 3
EndChar

StartChar: eacute
Encoding: 233 233 172
Width: 1102
VWidth: 0
Flags: MW
LayerCount: 4
Fore
SplineSet
776 1549 m 1
 868 1440 l 1
 492 1125 l 1
 412 1225 l 1
 776 1549 l 1
EndSplineSet
Refer: 2 101 N 1 0 0 1 0 0 3
Layer: 3
SplineSet
776 1549 m 29
 412 1225 l 29
 492 1125 l 29
 868 1440 l 29
 776 1549 l 29
EndSplineSet
Refer: 2 101 N 1 0 0 1 0 0 3
EndChar

StartChar: igrave
Encoding: 236 236 174
Width: 524
VWidth: 0
Flags: MW
LayerCount: 4
Fore
SplineSet
82 1549 m 1
 446 1225 l 1
 366 1125 l 1
 -10 1440 l 1
 82 1549 l 1
EndSplineSet
Refer: 140 305 N 1 0 0 1 0 0 3
Layer: 3
SplineSet
82 1549 m 29
 446 1225 l 29
 366 1125 l 29
 -10 1440 l 29
 82 1549 l 29
EndSplineSet
Refer: 140 305 N 1 0 0 1 0 0 3
EndChar

StartChar: iacute
Encoding: 237 237 175
Width: 524
VWidth: 0
Flags: MW
LayerCount: 4
Fore
SplineSet
476 1549 m 1
 568 1440 l 1
 192 1125 l 1
 112 1225 l 1
 476 1549 l 1
EndSplineSet
Refer: 140 305 N 1 0 0 1 0 0 3
Layer: 3
SplineSet
476 1549 m 29
 112 1225 l 29
 192 1125 l 29
 568 1440 l 29
 476 1549 l 29
EndSplineSet
Refer: 140 305 N 1 0 0 1 0 0 3
EndChar

StartChar: ograve
Encoding: 242 242 177
Width: 1211
VWidth: 0
Flags: MW
LayerCount: 4
Fore
SplineSet
529 1549 m 1
 893 1225 l 1
 813 1125 l 1
 437 1440 l 1
 529 1549 l 1
EndSplineSet
Refer: 6 111 N 1 0 0 1 0 0 3
Layer: 3
SplineSet
529 1549 m 25
 893 1225 l 25
 813 1125 l 25
 437 1440 l 25
 529 1549 l 25
EndSplineSet
Refer: 6 111 N 1 0 0 1 0 0 3
EndChar

StartChar: oacute
Encoding: 243 243 178
Width: 1211
VWidth: 0
Flags: MW
LayerCount: 4
Fore
SplineSet
706 1549 m 1
 798 1440 l 1
 422 1125 l 1
 342 1225 l 1
 706 1549 l 1
EndSplineSet
Refer: 6 111 N 1 0 0 1 0 0 3
Layer: 3
SplineSet
706 1549 m 25
 342 1225 l 25
 422 1125 l 25
 798 1440 l 25
 706 1549 l 25
EndSplineSet
Refer: 6 111 N 1 0 0 1 0 0 3
EndChar

StartChar: ugrave
Encoding: 249 249 181
Width: 1181
VWidth: 0
Flags: MW
LayerCount: 4
Fore
SplineSet
477 1549 m 1
 841 1225 l 1
 761 1125 l 1
 385 1440 l 1
 477 1549 l 1
EndSplineSet
Refer: 14 117 N 1 0 0 1 0 0 3
Layer: 3
SplineSet
477 1549 m 29
 841 1225 l 29
 761 1125 l 29
 385 1440 l 29
 477 1549 l 29
EndSplineSet
Refer: 14 117 N 1 0 0 1 0 0 3
EndChar

StartChar: uacute
Encoding: 250 250 182
Width: 1181
VWidth: 0
Flags: MW
LayerCount: 4
Fore
SplineSet
766 1549 m 1
 858 1440 l 1
 482 1125 l 1
 402 1225 l 1
 766 1549 l 1
EndSplineSet
Refer: 14 117 N 1 0 0 1 0 0 3
Layer: 3
SplineSet
766 1549 m 29
 402 1225 l 29
 482 1125 l 29
 858 1440 l 29
 766 1549 l 29
EndSplineSet
Refer: 14 117 N 1 0 0 1 0 0 3
EndChar

StartChar: yacute
Encoding: 253 253 184
Width: 1040
VWidth: 0
Flags: MW
LayerCount: 4
Fore
SplineSet
766 1549 m 1
 858 1440 l 1
 482 1125 l 1
 402 1225 l 1
 766 1549 l 1
EndSplineSet
Refer: 26 121 N 1 0 0 1 0 0 3
Layer: 3
SplineSet
766 1549 m 25
 402 1225 l 25
 482 1125 l 25
 858 1440 l 25
 766 1549 l 25
EndSplineSet
Refer: 26 121 N 1 0 0 1 0 0 3
EndChar

StartChar: eth
Encoding: 240 240 186
Width: 1252
VWidth: 2097
Flags: MW
LayerCount: 4
Fore
SplineSet
914 691 m 1,0,1
 722 810 722 810 588 807 c 128,-1,2
 454 804 454 804 372 714 c 0,3,4
 276 609 276 609 290 444 c 0,5,6
 299 339 299 339 348.5 263.5 c 128,-1,7
 398 188 398 188 469 149 c 128,-1,8
 540 110 540 110 618 115 c 0,9,10
 775 124 775 124 853 266 c 0,11,12
 920 386 920 386 914 691 c 1,0,1
904 834 m 1,13,14
 892 924 892 924 858.5 1001 c 128,-1,15
 825 1078 825 1078 748 1153 c 1,16,-1
 569 1050 l 1,17,-1
 515 1145 l 1,18,-1
 658 1227 l 1,19,20
 566 1292 566 1292 451 1330 c 1,21,-1
 513 1458 l 1,22,23
 679 1412 679 1412 808 1313 c 1,24,-1
 990 1418 l 1,25,-1
 1045 1323 l 1,26,-1
 893 1236 l 1,27,28
 952 1173 952 1173 990 1100 c 0,29,30
 1071 945 1071 945 1072 717.5 c 128,-1,31
 1073 490 1073 490 1046 372 c 128,-1,32
 1019 254 1019 254 973.5 177 c 128,-1,33
 928 100 928 100 841 43 c 128,-1,34
 754 -14 754 -14 631 -19 c 0,35,36
 375 -30 375 -30 239 118 c 0,37,38
 125 243 125 243 130 444 c 0,39,40
 136 670 136 670 270 813 c 0,41,42
 400 952 400 952 591 942 c 0,43,44
 728 934 728 934 904 834 c 1,13,14
EndSplineSet
Layer: 3
SplineSet
514.738 1144.67 m 1
 990.29 1417.68 l 1
 1044.79 1323.29 l 1
 569.238 1050.27 l 1
 514.738 1144.67 l 1
513 1458.5 m 1
 626.362 1427.1 733.936 1373.46 825 1299 c 0
 892.169 1244.08 949.78 1176.88 990 1100 c 0
 1055.72 974.402 1071.53 828.751 1072 687 c 0
 1072.37 575.337 1066.52 462.939 1042 354 c 0
 1028.53 294.164 1008.36 235.415 977.18 182.6 c 0
 946 129.785 903.378 83.4951 852 50 c 0
 782.983 5.00488 700.302 -16.2344 618 -20 c 0
 548.668 -23.1719 478.537 -14.7988 412.775 7.38965 c 0
 347.013 29.5791 285.877 66.8193 239 118 c 0
 199.323 161.32 170.31 213.993 152.719 270.041 c 0
 135.127 326.089 128.457 385.276 130 444 c 0
 131.765 511.176 144.01 578.151 166.959 641.311 c 0
 189.908 704.471 224.116 763.904 270 813 c 0
 310.69 856.539 360.611 891.595 415.902 913.825 c 0
 471.193 936.055 531.494 945.204 591 942 c 0
 676.903 937.374 759.794 907.946 837 870 c 0
 909.578 834.329 978.47 791.385 1044 744 c 1
 976 650 l 1
 917.574 690.933 856.015 727.639 791 757 c 0
 725.165 786.731 654.219 808.606 582 807 c 0
 503.281 805.249 425.049 772.184 372 714 c 0
 339.402 678.247 316.268 634.299 302.989 587.774 c 0
 289.709 541.249 285.896 492.208 290 444 c 0
 295.6 378.226 315.96 313.305 352 258 c 0
 381.054 213.414 420.601 175.429 467.341 149.984 c 0
 514.08 124.539 567.873 111.905 621 115 c 0
 669.118 117.803 716.414 133.534 756.639 160.089 c 0
 796.864 186.643 829.693 223.81 853 266 c 0
 881.777 318.092 896.222 376.998 904 436 c 0
 915.737 525.034 916.126 615.221 914 705 c 0
 911.718 801.396 902.489 899.592 864 988 c 0
 835.398 1053.7 791.359 1112.09 739 1161 c 0
 657.129 1237.49 557.121 1293.56 451 1329.5 c 1
 513 1458.5 l 1
EndSplineSet
EndChar

StartChar: thorn
Encoding: 254 254 187
Width: 1221
VWidth: 2097
Flags: MW
LayerCount: 4
Fore
SplineSet
190 1421 m 1,0,-1
 354 1421 l 1,1,-1
 354 885 l 1,2,3
 451 994 451 994 613 1002 c 0,4,5
 718 1008 718 1008 815 968 c 128,-1,6
 912 928 912 928 979 849 c 0,7,8
 1091 716 1091 716 1091 502 c 128,-1,9
 1091 288 1091 288 969 139 c 0,10,11
 902 57 902 57 806 14.5 c 128,-1,12
 710 -28 710 -28 605 -22 c 0,13,14
 455 -13 455 -13 354 84 c 1,15,-1
 354 -531 l 1,16,-1
 190 -531 l 1,17,-1
 190 1421 l 1,0,-1
634 118 m 0,18,19
 756 126 756 126 838 214 c 0,20,21
 930 313 930 313 931 462.5 c 128,-1,22
 932 612 932 612 880 696 c 0,23,24
 779 860 779 860 614 862 c 0,25,26
 502 863 502 863 430 785 c 0,27,28
 379 729 379 729 362 650.5 c 128,-1,29
 345 572 345 572 345 487 c 0,30,31
 344 316 344 316 389 244 c 0,32,33
 474 108 474 108 634 118 c 0,18,19
EndSplineSet
Layer: 3
SplineSet
634 118 m 0
 710.833 122.88 785.635 157.564 838 214 c 0
 870.471 248.996 894.157 291.706 909.101 337.047 c 0
 924.044 382.387 930.712 430.261 931 478 c 0
 931.49 559.238 913.671 641.869 871 711 c 0
 843.77 755.116 806.292 793.042 761.78 819.621 c 0
 717.268 846.201 665.841 861.474 614 862 c 0
 579.755 862.347 545.368 856.203 513.697 843.173 c 0
 482.026 830.144 453.246 810.149 430 785 c 0
 392.664 744.609 370.734 691.932 359.373 638.114 c 0
 348.012 584.296 345.259 529.003 345 474 c 0
 344.805 432.582 346.336 391.009 353.238 350.17 c 0
 360.139 309.331 373.028 269.11 395 234 c 0
 419.692 194.543 455.901 162.414 498.034 142.629 c 0
 540.166 122.844 587.547 115.049 634 118 c 0
190 1421 m 1
 354 1421 l 1
 354 819 l 1
 277 722 l 1
 285.111 774.965 307.088 825.717 340 868 c 0
 361.83 896.045 388.371 920.373 418 940 c 0
 475.529 978.109 544.104 998.098 613 1002 c 0
 681.42 1005.88 750.716 994.419 814.136 968.452 c 0
 877.556 942.485 934.854 901.416 979 849 c 0
 1057.04 756.34 1090.77 632.146 1091 511 c 0
 1091.26 377.917 1053.54 241.781 969 139 c 0
 925.256 85.8193 869.258 42.6611 806.318 14.7275 c 0
 743.378 -13.2051 673.744 -26.002 605 -22 c 0
 503.012 -16.0635 402.676 28.3672 334 104 c 0
 290.279 152.15 259.777 212.23 247 276 c 1
 354 168 l 1
 354 -531 l 1
 190 -531 l 1
 190 1421 l 1
EndSplineSet
EndChar

StartChar: Eth
Encoding: 208 208 188
Width: 1605
VWidth: 2097
Flags: MW
LayerCount: 4
Fore
SplineSet
335 1421 m 1,0,-1
 732 1421 l 2,1,2
 979 1421 979 1421 1137 1356.5 c 128,-1,3
 1295 1292 1295 1292 1398.5 1132 c 128,-1,4
 1502 972 1502 972 1490 706 c 0,5,6
 1475 379 1475 379 1304 197 c 0,7,8
 1127 9 1127 9 770 1 c 0,9,10
 724 0 724 0 643 0 c 2,11,-1
 335 0 l 1,12,-1
 335 658 l 1,13,-1
 117 658 l 1,14,-1
 117 808 l 1,15,-1
 335 808 l 1,16,-1
 335 1421 l 1,0,-1
505 658 m 1,17,-1
 505 150 l 1,18,-1
 712 150 l 2,19,20
 835 150 835 150 917 163 c 128,-1,21
 999 176 999 176 1077 221 c 0,22,23
 1192 287 1192 287 1253.5 410 c 128,-1,24
 1315 533 1315 533 1320.5 715 c 0,25,26
 1326 896 1326 896 1246 1028 c 0,27,28
 1127 1225 1127 1225 914 1263 c 0,29,30
 865 1271 865 1271 781 1271 c 2,31,-1
 505 1271 l 1,32,-1
 505 808 l 1,33,-1
 761 808 l 1,34,-1
 761 658 l 1,35,-1
 505 658 l 1,17,-1
EndSplineSet
Layer: 3
SplineSet
117 808 m 1
 761 808 l 1
 761 658 l 1
 117 658 l 1
 117 808 l 1
505 1271 m 1
 505 150 l 1
 712 150 l 2
 774.782 150 837.849 150.426 899.856 160.261 c 0
 961.863 170.096 1022.69 189.509 1077 221 c 0
 1152.95 265.037 1214.39 332.647 1254 411 c 0
 1297.89 497.836 1316.95 595.748 1320 693 c 0
 1323.78 813.297 1302.41 937.088 1240 1040 c 0
 1192.61 1118.14 1122.17 1182.01 1040 1222 c 0
 1000.1 1241.42 957.428 1255.13 913.691 1262.64 c 0
 869.953 1270.15 825.378 1271 781 1271 c 2
 505 1271 l 1
335 1421 m 1
 732 1421 l 2
 864.03 1421 998.753 1412.88 1121 1363 c 0
 1229.57 1318.7 1326.39 1243.51 1390 1145 c 0
 1472.73 1016.88 1496.63 858.361 1490 706 c 0
 1485.99 613.829 1471.46 521.767 1442.17 434.284 c 0
 1412.88 346.8 1367.36 264.063 1304 197 c 0
 1225.32 113.715 1120.14 57.8271 1009 30 c 0
 889.935 0.189805 765.74 1.50308e-14 643 0 c 2
 335 0 l 1
 335 1421 l 1
EndSplineSet
EndChar

StartChar: Oslash
Encoding: 216 216 189
Width: 1756
VWidth: 0
Flags: MW
LayerCount: 4
Fore
SplineSet
402 182 m 1,0,-1
 217 5 l 1,1,-1
 154 70 l 1,2,-1
 345 252 l 1,3,4
 215 439 215 439 215 708 c 0,5,6
 215 872 215 872 269 1019 c 128,-1,7
 323 1166 323 1166 424 1259 c 0,8,9
 618 1438 618 1438 891 1436 c 0,10,11
 1031 1435 1031 1435 1156.5 1383 c 128,-1,12
 1282 1331 1282 1331 1372 1233 c 1,13,-1
 1556 1409 l 1,14,-1
 1619 1344 l 1,15,-1
 1429 1162 l 1,16,17
 1557 975 1557 975 1551 708 c 0,18,19
 1548 546 1548 546 1492.5 401 c 128,-1,20
 1437 256 1437 256 1337 164 c 0,21,22
 1143 -15 1143 -15 868 -15 c 128,-1,23
 593 -15 593 -15 402 182 c 1,0,-1
1247 1114 m 1,24,25
 1191 1182 1191 1182 1096 1235 c 128,-1,26
 1001 1288 1001 1288 887 1287 c 0,27,28
 659 1285 659 1285 524 1131 c 0,29,30
 384 972 384 972 390 708 c 0,31,32
 394 515 394 515 475 377 c 1,33,-1
 1247 1114 l 1,24,25
1299 1038 m 1,34,-1
 528 302 l 1,35,36
 594 224 594 224 689 178.5 c 128,-1,37
 784 133 784 133 894.5 134 c 128,-1,38
 1005 135 1005 135 1101 183.5 c 128,-1,39
 1197 232 1197 232 1262 320 c 0,40,41
 1376 473 1376 473 1376 686 c 128,-1,42
 1376 899 1376 899 1299 1038 c 1,34,-1
EndSplineSet
Layer: 3
SplineSet
1555.91 1409.07 m 1
 1618.67 1343.84 l 1
 217.091 4.93457 l 1
 154.329 70.1641 l 1
 1555.91 1409.07 l 1
872 1287 m 0
 740.98 1286.28 610.44 1229.46 524 1131 c 0
 474.071 1074.13 438.884 1005.1 417.637 932.463 c 0
 396.39 859.827 388.262 783.66 390 708 c 0
 393.198 568.756 430.185 426.704 516 317 c 0
 560.892 259.612 618.805 212.35 684.451 180.738 c 0
 750.096 149.125 823.145 133.084 896 134 c 0
 966.914 134.892 1037.66 151.873 1100.93 183.913 c 0
 1164.2 215.953 1219.62 263.136 1262 320 c 0
 1343.93 429.929 1375.84 570.899 1376 708 c 0
 1376.14 827.98 1351.95 950.25 1290 1053 c 0
 1246.86 1124.56 1185.23 1185.02 1112.23 1225.69 c 0
 1039.24 1266.37 955.557 1287.46 872 1287 c 0
891 1436 m 0
 981.195 1435.13 1071.43 1417.92 1154.78 1383.45 c 0
 1238.13 1348.98 1314.25 1296.67 1375 1230 c 0
 1438.35 1160.48 1484.45 1076 1512.84 986.328 c 0
 1541.23 896.66 1552.81 802.038 1551 708 c 0
 1549.03 605.611 1531.3 503.157 1494.65 407.529 c 0
 1458.01 311.9 1401.27 223.436 1326 154 c 0
 1205.44 42.7908 1040.02 -15.1393 876 -15 c 0
 706.801 -14.8563 535.935 47.6526 416 167 c 0
 346.014 236.644 294.304 323.686 261.799 416.916 c 0
 229.294 510.145 214.907 609.266 215 708 c 0
 215.098 811.35 231.017 915.114 266.663 1012.12 c 0
 302.309 1109.13 358.981 1198.98 435 1269 c 0
 556.945 1381.32 725.221 1437.61 891 1436 c 0
EndSplineSet
EndChar

StartChar: logicalnot
Encoding: 172 172 190
Width: 1400
VWidth: 2097
Flags: MW
LayerCount: 4
Fore
SplineSet
125 732 m 1,0,-1
 1275 732 l 1,1,-1
 1275 282 l 1,2,-1
 1127 282 l 1,3,-1
 1127 583 l 1,4,-1
 125 583 l 1,5,-1
 125 732 l 1,0,-1
EndSplineSet
Layer: 3
SplineSet
125 732 m 1
 1275 732 l 1
 1275 282 l 1
 1127 282 l 1
 1127 583 l 1
 125 583 l 1
 125 732 l 1
EndSplineSet
EndChar

StartChar: macron
Encoding: 175 175 191
Width: 1400
VWidth: 2097
Flags: MW
LayerCount: 4
Fore
SplineSet
285 1640 m 1,0,-1
 1115 1640 l 1,1,-1
 1115 1491 l 1,2,-1
 285 1491 l 1,3,-1
 285 1640 l 1,0,-1
EndSplineSet
Layer: 3
SplineSet
285 1640 m 5
 1115 1640 l 5
 1115 1491 l 5
 285 1491 l 5
 285 1640 l 5
EndSplineSet
EndChar

StartChar: ordfeminine
Encoding: 170 170 192
Width: 766
VWidth: 2097
Flags: MW
LayerCount: 4
Fore
SplineSet
523 1102 m 1,0,-1
 523 1121 l 2,1,2
 524 1186 524 1186 502 1210 c 0,3,4
 458 1259 458 1259 379 1259 c 128,-1,5
 300 1259 300 1259 211 1232 c 1,6,-1
 193 1303 l 1,7,8
 292 1339 292 1339 374 1339 c 128,-1,9
 456 1339 456 1339 502 1322.5 c 128,-1,10
 548 1306 548 1306 570.5 1285 c 128,-1,11
 593 1264 593 1264 605 1231 c 0,12,13
 621 1187 621 1187 621 1131 c 2,14,-1
 619 760 l 1,15,-1
 551 760 l 1,16,-1
 529 814 l 1,17,18
 464 742 464 742 376 742 c 128,-1,19
 288 742 288 742 231.5 787.5 c 128,-1,20
 175 833 175 833 175 915 c 0,21,22
 175 1050 175 1050 309 1082 c 0,23,24
 387 1100 387 1100 523 1102 c 1,0,-1
306 851.5 m 128,-1,26
 340 822 340 822 404 822 c 128,-1,27
 468 822 468 822 523 903 c 1,28,-1
 523 1019 l 1,29,-1
 504 1019 l 2,30,31
 346 1020 346 1020 302 982 c 0,32,33
 272 957 272 957 272 919 c 128,-1,25
 272 881 272 881 306 851.5 c 128,-1,26
EndSplineSet
Layer: 3
SplineSet
379 742 m 0
 262 742 175 802 175 915 c 0
 175 1077 301 1102 540 1102 c 1
 539 1019 l 1
 457 1017 272 1032 272 917 c 0
 272 872 318 822 394 822 c 0
 472 822 537 898 562 988 c 5
 610 991 l 1
 597 873 502 742 379 742 c 0
392 1339 m 0
 618 1339 621 1195 621 1131 c 2
 619 760 l 1
 551 760 l 1
 523 828 l 1
 523 1105 l 2
 523 1110 523 1116 523 1121 c 0
 523 1148 526 1259 381 1259 c 0
 324 1259 244 1242 211 1232 c 1
 193 1303 l 1
 256 1326 324 1339 392 1339 c 0
EndSplineSet
EndChar

StartChar: Thorn
Encoding: 222 222 193
Width: 1326
VWidth: 2097
Flags: MW
LayerCount: 4
Fore
SplineSet
290 1421 m 1,0,-1
 460 1421 l 1,1,-1
 460 1147 l 1,2,3
 814 1180 814 1180 981 1132 c 0,4,5
 1189 1072 1189 1072 1227 880 c 0,6,7
 1241 809 1241 809 1232 722 c 0,8,9
 1198 430 1198 430 952 358 c 0,10,11
 891 340 891 340 759.5 330 c 128,-1,12
 628 320 628 320 460 332 c 1,13,-1
 460 0 l 1,14,-1
 290 0 l 1,15,-1
 290 1421 l 1,0,-1
460 998 m 1,16,-1
 460 483 l 1,17,18
 775 458 775 458 895 499 c 0,19,20
 1050 551 1050 551 1062 730 c 0,21,22
 1075 923 1075 923 899 982 c 0,23,24
 769 1026 769 1026 460 998 c 1,16,-1
EndSplineSet
Layer: 3
SplineSet
290 1421 m 1
 460 1421 l 1
 460 0 l 1
 290 0 l 1
 290 1421 l 1
324 1131 m 1
 357.272 1135.49 390.61 1139.49 424 1143 c 0
 516.822 1152.76 610.044 1159.25 703.372 1160.24 c 0
 796.701 1161.22 891.246 1157.6 981 1132 c 0
 1050.59 1112.15 1117.18 1076.01 1163 1020 c 0
 1195.86 979.831 1217.18 930.858 1227.48 879.993 c 0
 1237.78 829.128 1237.96 776.554 1232 725 c 0
 1225.49 668.734 1211.76 613.051 1188.37 561.467 c 0
 1164.97 509.882 1130.91 462.775 1087 427 c 0
 1047.46 394.79 1000.61 372.208 951.67 357.888 c 0
 902.726 343.569 851.845 336.922 801 333 c 0
 675.919 323.352 549.956 323.859 425 335 c 0
 391.555 337.982 358.199 341.97 325 347 c 1
 353 495 l 1
 385.213 490.358 417.568 486.713 450 484 c 0
 566.369 474.267 683.735 469.1 800 480 c 0
 832.209 483.02 864.364 488.32 895.019 498.654 c 0
 925.675 508.987 954.712 524.631 979 546 c 0
 1004.92 568.804 1025.08 597.859 1038.68 629.591 c 0
 1052.28 661.323 1059.73 695.551 1062 730 c 0
 1064.21 763.481 1061.5 797.441 1052.24 829.69 c 0
 1042.97 861.94 1026.72 892.305 1004 917 c 0
 975.83 947.623 938.436 968.73 899 982 c 0
 827.459 1006.07 750.567 1008.67 675.085 1008.47 c 0
 599.603 1008.26 524.152 1004.05 449 997 c 0
 416.6 993.959 384.258 990.296 352 986 c 1
 324 1131 l 1
EndSplineSet
EndChar

StartChar: quotedblleft
Encoding: 8220 8220 194
Width: 830
VWidth: 2097
Flags: MW
LayerCount: 4
Fore
SplineSet
360 1421 m 1,0,-1
 235 988 l 1,1,-1
 40 988 l 1,2,-1
 165 1421 l 1,3,-1
 360 1421 l 1,0,-1
740 1421 m 1,4,-1
 615 988 l 1,5,-1
 420 988 l 1,6,-1
 545 1421 l 1,7,-1
 740 1421 l 1,4,-1
EndSplineSet
Layer: 3
SplineSet
740 1421 m 5
 545 1421 l 5
 420 988 l 5
 615 988 l 5
 740 1421 l 5
360 1421 m 5
 165 1421 l 5
 40 988 l 5
 235 988 l 5
 360 1421 l 5
EndSplineSet
EndChar

StartChar: quotedblright
Encoding: 8221 8221 195
Width: 830
VWidth: 2097
Flags: MW
LayerCount: 4
Fore
SplineSet
165 1421 m 1,0,-1
 360 1421 l 1,1,-1
 235 988 l 1,2,-1
 40 988 l 1,3,-1
 165 1421 l 1,0,-1
545 1421 m 1,4,-1
 740 1421 l 1,5,-1
 615 988 l 1,6,-1
 420 988 l 1,7,-1
 545 1421 l 1,4,-1
EndSplineSet
Layer: 3
SplineSet
545 1421 m 5
 740 1421 l 5
 615 988 l 5
 420 988 l 5
 545 1421 l 5
165 1421 m 5
 360 1421 l 5
 235 988 l 5
 40 988 l 5
 165 1421 l 5
EndSplineSet
EndChar

